<?xml version="1.0" encoding="utf-8"?>
<!-- Generator: Adobe Illustrator 21.1.0, SVG Export Plug-In . SVG Version: 6.00 Build 0)  -->
<svg version="1.1" id="Layer_1" xmlns="http://www.w3.org/2000/svg" xmlns:xlink="http://www.w3.org/1999/xlink" x="0px" y="0px"
	 viewBox="0 0 1200 1200" style="enable-background:new 0 0 1200 1200;" xml:space="preserve">
<style type="text/css">
	.st0{fill:none;}
	.st1{fill:#494949;}
	.st2{fill:#F1F2F2;}
	.st3{fill:#D1D3D4;}
	.st4{fill:#FFFFFF;}
	.st5{fill:#D3D2D1;}
	.st6{fill:#0F142B;}
	.st7{fill:#FFC54E;}
	.st8{opacity:0.1;fill:#231F20;enable-background:new    ;}
	.st9{fill:#AADFED;}
	.st10{fill:#FAF071;}
	.st11{fill:#EE1E3B;}
	.st12{fill:#4993CF;}
	.st13{fill:#E6E7E8;}
	.st14{opacity:0.1;enable-background:new    ;}
	.st15{fill:#716558;}
	.st16{fill:#9A8379;}
	.st17{fill:#69C8F2;}
	.st18{fill:#EF3A50;}
	.st19{fill:#7AC9AC;}
	.st20{fill:#CCCAC8;}
	.st21{fill:#2BB673;}
	.st22{opacity:0.2;fill:#231F20;enable-background:new    ;}
</style>
<title>Programming</title>
<g id="Layer_2">
	<g id="Coding">
		<g id="Background">
			<rect id="Background_1" class="st0" width="1200" height="1200"/>
			<circle id="Background_2" class="st1" cx="600" cy="600" r="399"/>
		</g>
		<g id="Coding-2">
			<path class="st2" d="M332.6,762.7h272.6c3,0,5.5,2.5,5.5,5.5v98.2c0,3-2.5,5.5-5.5,5.5H332.6c-3,0-5.5-2.5-5.5-5.5v-98.2
				C327.1,765.1,329.6,762.7,332.6,762.7z"/>
			<rect x="334.5" y="770.9" class="st3" width="269" height="92.7"/>
			<rect x="338.2" y="774.6" class="st4" width="14.8" height="14.8"/>
			<rect x="362.8" y="774.6" class="st4" width="14.8" height="14.8"/>
			<rect x="387.5" y="774.6" class="st4" width="14.8" height="14.8"/>
			<rect x="412.1" y="774.6" class="st4" width="14.8" height="14.8"/>
			<rect x="436.7" y="774.6" class="st4" width="14.8" height="14.8"/>
			<rect x="461.3" y="774.6" class="st4" width="14.8" height="14.8"/>
			<rect x="486" y="774.6" class="st4" width="14.8" height="14.8"/>
			<rect x="510.6" y="774.6" class="st4" width="14.8" height="14.8"/>
			<rect x="535.2" y="774.6" class="st4" width="14.8" height="14.8"/>
			<rect x="559.8" y="774.6" class="st4" width="14.8" height="14.8"/>
			<rect x="584.5" y="774.6" class="st4" width="14.8" height="14.8"/>
			<rect x="338.3" y="798.1" class="st4" width="14.8" height="14.8"/>
			<rect x="362.9" y="798.1" class="st4" width="14.8" height="14.8"/>
			<rect x="387.5" y="798.1" class="st4" width="14.8" height="14.8"/>
			<rect x="412.1" y="798.1" class="st4" width="14.8" height="14.8"/>
			<rect x="436.8" y="798.1" class="st4" width="14.8" height="14.8"/>
			<rect x="461.4" y="798.1" class="st4" width="14.8" height="14.8"/>
			<rect x="486" y="798.1" class="st4" width="14.8" height="14.8"/>
			<rect x="510.6" y="798.1" class="st4" width="14.8" height="14.8"/>
			<rect x="535.3" y="798.1" class="st4" width="14.8" height="14.8"/>
			<rect x="559.9" y="798.1" class="st4" width="14.8" height="14.8"/>
			<rect x="584.5" y="798.1" class="st4" width="14.8" height="14.8"/>
			<rect x="338.3" y="821.5" class="st4" width="14.8" height="14.8"/>
			<rect x="363" y="821.5" class="st4" width="14.8" height="14.8"/>
			<rect x="387.6" y="821.5" class="st4" width="14.8" height="14.8"/>
			<rect x="412.2" y="821.5" class="st4" width="14.8" height="14.8"/>
			<rect x="436.8" y="821.5" class="st4" width="14.8" height="14.8"/>
			<rect x="461.5" y="821.5" class="st4" width="14.8" height="14.8"/>
			<rect x="486.1" y="821.5" class="st4" width="14.8" height="14.8"/>
			<rect x="510.7" y="821.5" class="st4" width="14.8" height="14.8"/>
			<rect x="560" y="821.5" class="st4" width="14.8" height="14.8"/>
			<rect x="338.4" y="845" class="st4" width="14.8" height="14.8"/>
			<rect x="363" y="845" class="st4" width="14.8" height="14.8"/>
			<polygon class="st4" points="461.5,845 461.3,845.3 461.3,845 436.9,845 412.3,845 387.6,845 387.6,859.8 412.3,859.8 
				436.9,859.8 451.3,859.8 461.3,859.8 476.4,859.8 476.4,845 			"/>
			<rect x="486.1" y="845" class="st4" width="14.8" height="14.8"/>
			<rect x="510.8" y="845" class="st4" width="14.8" height="14.8"/>
			<rect x="535.4" y="845" class="st4" width="14.8" height="14.8"/>
			<rect x="560" y="845" class="st4" width="14.8" height="14.8"/>
			<rect x="584.7" y="845" class="st4" width="14.8" height="14.8"/>
			<path class="st5" d="M990.6,461.1l6-6l-15.5-15.5l-6.6,6.6c-4.3-2.5-8.8-4.3-13.6-5.4v-9.3H939v9.3c-5.8,1.3-11.4,3.7-16.3,7
				l-6.4-6.4l-15.5,15.5l6.8,6.9c-2.6,4.4-4.5,9.1-5.6,14.1h-9.3v21.9h9.3c1.2,5.1,3.1,9.9,5.8,14.4l-8.4,8.4l15.5,15.5l8.1-8.1
				c4.9,3.2,10.3,5.5,16,6.8v9.3h21.9v-9.3c5.1-1.1,9.9-3.1,14.4-5.8l7,7l15.5-15.5l-6.7-6.7c3.2-4.9,5.5-10.3,6.8-16h9.5v-21.9
				h-9.5C996.5,471.9,994,466.2,990.6,461.1z M950,524.4c-19.6,0-35.5-15.9-35.5-35.5s15.9-35.6,35.5-35.6s35.5,15.9,35.5,35.5v0
				C985.5,508.4,969.6,524.4,950,524.4z"/>
			<circle class="st5" cx="950" cy="488.8" r="25.8"/>
			<path class="st5" d="M934.6,559.8l3.2-3.2l-8.2-8.2l-3.5,3.5c-2.3-1.3-4.7-2.3-7.2-2.8v-5h-11.7v5c-3.1,0.7-6,2-8.7,3.7l-3.4-3.4
				l-8.2,8.2l3.7,3.6c-1.4,2.3-2.4,4.9-3,7.5h-5v11.7h5c0.6,2.7,1.7,5.3,3.1,7.7l-4.5,4.5l8.2,8.2l4.3-4.3c2.6,1.7,5.5,2.9,8.5,3.6
				v5h11.7v-5c2.7-0.6,5.3-1.7,7.7-3.1l3.7,3.7l8.2-8.2l-3.6-3.6c1.7-2.6,2.9-5.5,3.6-8.5h5v-11.6h-5
				C937.8,565.5,936.5,562.5,934.6,559.8z M913,593.4c-10.4,0-18.9-8.6-18.8-19c0-10.4,8.6-18.9,19-18.8c10.4,0,18.8,8.5,18.8,18.9
				C932,584.9,923.5,593.4,913,593.4C913.1,593.4,913,593.4,913,593.4z"/>
			<circle class="st5" cx="913" cy="574.5" r="13.8"/>
			<path class="st5" d="M988.5,561.7l1.9-1.9l-4.8-4.8l-2.1,2c-1.3-0.8-2.8-1.3-4.3-1.7v-2.9h-6.8v2.9c-1.8,0.4-3.5,1.2-5.1,2.2
				l-2-2l-4.8,4.8l2.1,2.1c-0.8,1.4-1.4,2.9-1.8,4.4H958v6.8h2.9c0.4,1.6,1,3.1,1.8,4.5l-2.6,2.6l4.8,4.8l2.5-2.5
				c1.5,1,3.2,1.7,5,2.1v2.9h6.8v-2.9c1.6-0.4,3.1-1,4.5-1.8l2.2,2.2l4.8-4.8l-2.1-2.1c1-1.5,1.7-3.2,2.1-5h3v-6.8h-3
				C990.4,565,989.6,563.3,988.5,561.7z M975.9,581.5c-6.1,0-11.1-5-11.1-11.1s5-11.1,11.1-11.1c6.1,0,11.1,5,11.1,11.1
				C987,576.5,982,581.5,975.9,581.5C975.9,581.5,975.9,581.5,975.9,581.5z"/>
			<circle class="st5" cx="975.9" cy="570.3" r="8.1"/>
			<path class="st6" d="M964.3,272.2c-4.1-4.4-11.1-6.6-20.1-6.7l0,0h-0.6l0,0c-9,0.1-15.8,2.4-19.9,6.7c-2.5,2.6-3.9,6.1-3.9,9.7
				v53h10v-53.4c0.1-0.9,0.6-1.8,1.2-2.5c2.1-2.3,6.8-3.6,13-3.6c11,0,14.1,3.8,14.2,6.2v53.3h10v-53
				C968.2,278.3,966.8,274.8,964.3,272.2z"/>
			<path class="st7" d="M956,304.8c-24.7-6.6-50.1,8-56.7,32.7c-6.6,24.7,8,50.1,32.7,56.7s50.1-8,56.7-32.7c1-3.9,1.6-7.9,1.6-12
				C990.3,328.6,976.2,310.3,956,304.8z M944,333.5c6.3,0,11.3,5.1,11.3,11.3c0,4.6-2.8,8.7-7.1,10.5v15.4h-8.5v-15.4
				c-5.8-2.3-8.6-9-6.2-14.7C935.2,336.3,939.4,333.5,944,333.5z"/>
			<path class="st8" d="M956,304.8c23,11.2,32.5,38.9,21.3,61.9c-9.7,19.9-32.2,30.1-53.6,24.4c23,11.2,50.7,1.7,61.9-21.3
				c11.2-23,1.7-50.7-21.3-61.9C961.7,306.6,958.9,305.6,956,304.8z"/>
			<path class="st4" d="M711.5,685.3h252.9c6.6,0,12,5.4,12,12v169.4c0,6.6-5.4,12-12,12H711.5c-6.6,0-12-5.4-12-12V697.3
				C699.5,690.7,704.8,685.3,711.5,685.3z"/>
			<path class="st3" d="M964.3,685.3H711.5c-6.6,0-12,5.4-12,12v14h276.9v-14C976.3,690.7,970.9,685.3,964.3,685.3z"/>
			<path class="st9" d="M767.8,799.8v-11l43.2-23.2V780l-29.9,14.2l29.9,14.3V823L767.8,799.8z"/>
			<path class="st9" d="M857,749.5L830.4,839h-12.6l26.5-89.5H857z"/>
			<path class="st9" d="M863.7,823v-14.5l29.9-14.3l-29.9-14.2v-14.5l43.2,23.2v11.1L863.7,823z"/>
			<circle class="st10" cx="904.8" cy="698.4" r="7.8"/>
			<circle class="st11" cx="926.8" cy="698.4" r="7.8"/>
			<circle class="st12" cx="949.8" cy="698.4" r="7.8"/>
			<rect x="543.2" y="656" class="st3" width="109.5" height="70.8"/>
			<path class="st3" d="M341.3,265.4h513.4c7.8,0,14.2,6.3,14.2,14.2v375.7c0,7.8-6.3,14.2-14.2,14.2H341.3
				c-7.8,0-14.2-6.3-14.2-14.2V279.6C327.1,271.8,333.5,265.4,341.3,265.4z"/>
			<path class="st6" d="M854.7,265.4H341.3c-7.8,0-14.2,6.4-14.2,14.2v320.1l541.8-0.8V279.6C868.9,271.8,862.5,265.5,854.7,265.4z"
				/>
			<rect x="345" y="284.1" class="st13" width="506.1" height="294.9"/>
			<rect x="521.3" y="719.9" class="st3" width="153.4" height="26.2"/>
			<rect x="543.2" y="671" class="st14" width="109.5" height="17.1"/>
			<circle class="st6" cx="598" cy="631.7" r="13.2"/>
			<rect x="345" y="284.1" class="st4" width="506.1" height="33"/>
			<circle class="st13" cx="789.2" cy="300.6" r="7.8"/>
			<circle class="st13" cx="811.2" cy="300.6" r="7.8"/>
			<circle class="st13" cx="834.2" cy="300.6" r="7.8"/>
			<path class="st15" d="M517.7,380.6c0-0.1,0-0.1,0-0.2V380.6z"/>
			<polygon class="st16" points="551.6,438.3 545.4,437.1 545.4,437.1 551.6,438.3 			"/>
			<rect x="418.9" y="334.9" class="st17" width="48" height="14.7"/>
			<rect x="493.7" y="370" class="st17" width="48" height="14.7"/>
			<rect x="418.9" y="370" class="st18" width="48" height="14.7"/>
			<rect x="418.9" y="405.1" class="st17" width="48" height="14.7"/>
			<rect x="493.7" y="405.1" class="st19" width="121.2" height="14.7"/>
			<rect x="566.5" y="440.2" class="st19" width="121.3" height="14.7"/>
			<rect x="484.8" y="334.9" class="st19" width="39.8" height="14.7"/>
			<rect x="516.9" y="475.3" class="st19" width="121.2" height="14.7"/>
			<rect x="491" y="510.5" class="st18" width="121.2" height="14.7"/>
			<rect x="638.2" y="507.3" class="st18" width="60.6" height="14.7"/>
			<rect x="707.4" y="507.3" class="st18" width="60.6" height="14.7"/>
			<rect x="638.2" y="546.1" class="st19" width="121.2" height="14.7"/>
			<rect x="418.9" y="440.2" class="st18" width="122.7" height="14.7"/>
			<rect x="418.9" y="475.3" class="st17" width="74.8" height="14.7"/>
			<rect x="418.9" y="510.5" class="st19" width="48" height="14.7"/>
			<rect x="418.9" y="545.6" class="st17" width="196" height="14.7"/>
			<path class="st6" d="M232.4,509.4H527c6.1,0,11,4.9,11,11v214.8c0,6.1-4.9,11-11,11H232.4c-6.1,0-11-4.9-11-11V520.4
				C221.4,514.3,226.3,509.4,232.4,509.4z"/>
			<rect x="238.5" y="524.8" class="st4" width="282.4" height="184.6"/>
			<path class="st20" d="M559.2,724.5H416.9v4.8h-74.3v-4.8H192.6v14.1c0,4.2,3.4,7.5,7.5,7.5h359c4.2,0,7.5-3.4,7.5-7.5v-14.1
				H559.2z"/>
			<rect x="265.3" y="552" class="st21" width="45.6" height="18"/>
			<rect x="265.3" y="596" class="st21" width="45.6" height="37.9"/>
			<rect x="415.7" y="596" class="st21" width="45.6" height="37.9"/>
			<rect x="323" y="552" class="st21" width="45.6" height="18"/>
			<rect x="323" y="596" class="st21" width="45.6" height="18"/>
			<rect x="417.9" y="659.9" class="st21" width="45.6" height="18"/>
			<rect x="392.7" y="552" class="st21" width="106.5" height="18"/>
			<rect x="436.4" y="570" class="st21" width="4.4" height="26"/>
			<rect x="438.5" y="633.9" class="st21" width="4.4" height="26"/>
			<rect x="285.9" y="570" class="st21" width="4.4" height="26"/>
			<rect x="343.6" y="570" class="st21" width="4.4" height="26"/>
			<rect x="367.6" y="558.8" class="st21" width="26" height="4.3"/>
			<rect x="303.7" y="605" class="st21" width="26" height="4.3"/>
			<path class="st3" d="M664.1,765.5h-21.5c-7.2,0-13.1,5.9-13.1,13.1v58.3c0,7.2,5.9,13.1,13.1,13.1h21.5c7.2,0,13.1-5.9,13.1-13.1
				v-58.3C677.2,771.4,671.3,765.5,664.1,765.5z"/>
			<path class="st8" d="M664.1,765.5h-21.5c-7.2,0-13.1,5.9-13.1,13.1v21.9h47.8v-21.9C677.2,771.4,671.3,765.5,664.1,765.5z"/>
			<path class="st4" d="M655.6,793.2c0.2,1.3-0.7,2.4-2,2.6c-1.3,0.2-2.4-0.7-2.6-2c0-0.2,0-0.4,0-0.6v-7.6c-0.2-1.3,0.7-2.4,2-2.6
				c1.3-0.2,2.4,0.7,2.6,2c0,0.2,0,0.4,0,0.6V793.2z"/>
			<path class="st22" d="M677.2,800.5v-21.9c0-7.2-5.9-13.1-13.1-13.1h-10.8v35L677.2,800.5z"/>
		</g>
	</g>
</g>
</svg>
