<?xml version="1.0" encoding="utf-8"?>
<!-- Generator: Adobe Illustrator 21.1.0, SVG Export Plug-In . SVG Version: 6.00 Build 0)  -->
<svg version="1.1" id="Layer_1" xmlns="http://www.w3.org/2000/svg" xmlns:xlink="http://www.w3.org/1999/xlink" x="0px" y="0px"
	 viewBox="0 0 834.5 583.1" style="enable-background:new 0 0 834.5 583.1;" xml:space="preserve">
<style type="text/css">
	.st0{fill:#517F38;}
	.st1{fill:#3B6837;}
	.st2{fill:#65B15B;}
	.st3{fill:#62324A;}
	.st4{fill:#A0523A;}
	.st5{fill:#6075B0;}
	.st6{fill:#794061;}
	.st7{fill:#072859;}
	.st8{fill:#F3885E;}
	.st9{fill:#FFBE62;}
	.st10{opacity:0.54;fill:#B0ACBF;enable-background:new    ;}
	.st11{fill:#7C4B39;}
	.st12{fill:#FCBBA4;}
	.st13{fill:#081344;}
	.st14{opacity:0.2;fill:#081344;enable-background:new    ;}
	.st15{fill:#FFD72E;}
	.st16{fill:#DADAE0;}
	.st17{fill:#FFFFFF;}
	.st18{fill:none;stroke:#B0ACBF;stroke-width:1.8;stroke-miterlimit:10;}
	.st19{fill:#244689;}
	.st20{fill:#D26552;}
	.st21{fill:#FFC7B0;}
	.st22{fill:#F4A891;}
	.st23{fill:#0A194D;}
	.st24{fill:#FC9F7B;}
	.st25{fill:#B0ACBF;}
	.st26{fill:#0C0F39;}
	.st27{fill:#87888D;}
	.st28{fill:#6C1A48;}
	.st29{opacity:0.62;fill:#0C0F39;enable-background:new    ;}
	.st30{opacity:0.16;fill:#0C0F39;enable-background:new    ;}
	.st31{fill:#747577;}
	.st32{fill:#F1AE9B;}
	.st33{fill:#FFBD48;}
	.st34{fill:#F14747;}
	.st35{fill:#394679;}
	.st36{fill:#1C1C2D;}
	.st37{fill:#848383;}
	.st38{fill:none;stroke:#0A194D;stroke-width:1.11;stroke-linecap:round;stroke-miterlimit:10;}
	.st39{fill:#9C9694;}
	.st40{fill:#25253A;}
	.st41{fill:#F4A22A;}
	.st42{fill:none;}
	.st43{fill:#716F82;}
	.st44{fill:#B1AEC1;}
	.st45{fill:#DDDDDD;}
	.st46{fill:#2D2D3A;}
	.st47{fill:#2F558C;}
	.st48{fill:#ECEEF0;}
	.st49{fill:#EA5444;}
	.st50{fill:#A29FB0;}
	.st51{fill:#6E89C4;}
	.st52{fill:#FFC543;}
	.st53{fill:#313D6E;}
	.st54{fill:#85818E;}
	.st55{opacity:0.55;fill:#C5CBED;enable-background:new    ;}
	.st56{opacity:0.37;fill:#6C1A48;enable-background:new    ;}
	.st57{fill:#884C2E;}
	.st58{fill:none;stroke:#0A194D;stroke-width:1.18;stroke-linecap:round;stroke-miterlimit:10;}
	.st59{fill:#0A0A2C;}
	.st60{fill:#A36440;}
	.st61{opacity:0.33;fill:#6C1A48;enable-background:new    ;}
	.st62{opacity:0.48;fill:#6C1A48;enable-background:new    ;}
	.st63{fill:none;stroke:#FFFFFF;stroke-width:2.07;stroke-linecap:round;stroke-miterlimit:10;}
	.st64{fill:#FFDCD4;}
	.st65{fill:none;stroke:#F3885E;stroke-width:2.05;stroke-linecap:round;stroke-miterlimit:10;}
	.st66{fill:#FBAF3D;}
	.st67{fill:#F38154;}
	.st68{fill:#A2CC3B;}
	.st69{fill:#709B2C;}
	.st70{fill:#4C842F;}
	.st71{fill:none;stroke:#B0ACBF;stroke-width:1.27;stroke-miterlimit:10;}
</style>
<title>teamwork</title>
<g>
	<g id="Layer_2">
		<g id="Layer_1-2">
			<path class="st0" d="M660.7,34.1c7.8,10.6,23.5,12.4,23.5,12.4s3-15.5-4.8-26.1S655.8,8,655.8,8S652.8,23.5,660.7,34.1z"/>
			<path class="st1" d="M693.4,27.8c-7.2,7-6.8,19-6.8,19s12,0.6,19.2-6.5s6.8-19,6.8-19S700.6,20.7,693.4,27.8z"/>
			<path class="st2" d="M675.7,22.5c-1.5,13.1,8.9,25,8.9,25s12.7-9.3,14.1-22.5s-8.9-25-8.9-25S677.1,9.4,675.7,22.5z"/>
			<polygon class="st3" points="676.7,83.7 703.8,83.7 712.7,44 667.8,44 			"/>
			<polygon class="st4" points="666.4,83.7 693.6,83.7 697.6,44 657.5,44 			"/>
			
				<rect x="540.6" y="304.3" transform="matrix(0.1743 -0.9847 0.9847 0.1743 168.1965 813.3942)" class="st5" width="57.1" height="4.1"/>
			
				<rect x="564.4" y="282.1" transform="matrix(0.1743 -0.9847 0.9847 0.1743 192.137 799.7701)" class="st5" width="17.2" height="6.4"/>
			<polygon class="st6" points="559.4,342 555.3,341.7 560.1,284.8 562.6,281.1 564.2,285.1 			"/>
			<polygon class="st7" points="553.7,345 549.6,345.7 538.7,289.6 540.1,285.5 542.8,288.9 			"/>
			<polygon class="st8" points="562.8,358 545.1,358 539.3,311.1 568.6,311.1 			"/>
			<polygon class="st9" points="569.5,358 551.8,358 549.2,311.1 575.3,311.1 			"/>
			<rect x="515.2" y="97.1" class="st10" width="211.1" height="30"/>
			<path class="st11" d="M634.6,141.6l-11.6,7.2c-8.5,5.2-11.5,16.1-7,24.9c0.5,0.9,0.9,1.8,1.3,2.8c-0.4-0.5,17.8-34.7,17.8-34.7"
				/>
			<path class="st12" d="M671,253h-6c-5.6,0-10.1-4.5-10.1-10.1v-28.4c0-5.6,4.5-10.1,10.1-10.1h6c5.6,0,10.1,4.5,10.1,10.1V243
				C681,248.5,676.5,253,671,253z"/>
			<path class="st11" d="M617.6,176.4c-0.3,2.3,10.4,6.1,10.5,8.6l-1.7,4.8c13.1-4.8,1.5,2.5,1.5,2.5c3.9,11.6,2.5,18,13.7,22.4
				c5.7,2.3,11.9,3.2,18,2.8c8.5-0.6,16.1,2.1,22.3-0.9c1.3-0.6,2.6-1.5,3.6-2.6c2.2-2.2,4.1-4.6,5.8-7.1c0.6-1,1.2-2,1.8-3.1
				c3.4-6.5,10.2-25.5,9.7-33.4c-1.5-22.1-22.7-36.9-47-35.2c-0.6,0-1.2,0.1-1.9,0.1c-12.6,0.9-24.2,7.5-31.2,18
				c-0.4,0.5-0.7,1.1-1.1,1.6l0,0c-2,3.2-3,17-3,17C618.1,173.4,617.8,174.9,617.6,176.4z"/>
			<path class="st12" d="M618.5,183.5l0.3,6.1l0.5,10l0.8,3.6c0.1,1.6,0.9,9.9,1.2,11.4c2.8,14.2,12.1,17.2,26.6,19
				c0.4,0.1,0.9,0.1,1.3,0.1c3.1,0.3,6.2,0.1,9.3-0.4c2.9-0.5,5.6-1.4,8.2-2.7l0,0c6.4-3,11.6-7.9,15.1-14c2.7-4.7,4.1-9.9,4.3-15.3
				c0-0.4,0-0.8,0-1.1c0-0.5,0-0.9,0-1.4v-0.2v-1.1l-0.2-2.9l-0.5-9.9v-0.1l0,0l-0.1-1.8l-0.1-1.4l-0.1-1.3v-0.3
				c-0.1-2.2-0.6-4.4-1.3-6.6c-0.4-1.5-1-2.9-1.6-4.3c-0.1-0.2-0.2-0.4-0.3-0.6c-0.5-1.1-1.1-2.3-1.7-3.3l0,0
				c-2.4-4.1-5.7-7.6-9.6-10.3c-0.8-0.6-1.6-1.1-2.4-1.6c-5.9-3.4-12.6-5.1-19.4-4.7c-5.8,0.3-10.1,2-14.8,4.9
				c-2.8,1.7-5.4,3.8-7.6,6.2c-3,3.4-5.3,7.5-6.7,11.9c-0.1,0.2-0.2,0.5-0.2,0.8c-0.4,1.5-0.8,3-0.9,4.5
				C618.5,178.8,618.4,181.1,618.5,183.5z"/>
			<path class="st11" d="M630.8,153.5c-7.1,19.6,11.6,18,12.5,27c0.4,3.3,0.7,6.6,0.7,9.9l1.4,4.6c0.5,1.8,2.4,2.8,4.2,2.2
				c1.4-0.4,2.4-1.7,2.4-3.2v-0.1l-0.2-7.3l3.7,9.7c4.8,12.7,14.1,23.3,26.2,29.6c0,0,22.8-13.6,22.8-44.6c0-2.6-0.2-5.2-0.5-7.7
				c-0.3-2.3-0.7-4.5-1.2-6.8c-9.5-38.5-56.8-25.4-61.3-23.6C636.8,144.9,630.8,153.5,630.8,153.5z"/>
			<path class="st12" d="M614.5,204.2c0,0.1,0,0.5,0,0.5c0.1,2.1,1.9,3.8,6.4,3.7l-0.6-16.5C616.7,197.5,614.9,200.8,614.5,204.2z"
				/>
			<path class="st11" d="M617,184.2h10.1c1.2,0,2.1-1,2.1-2.1l0,0c0-1.2-1-2.1-2.1-2.1H617c-1.2,0-2.1,1-2.1,2.1l0,0
				C614.9,183.3,615.8,184.2,617,184.2z"/>
			<path class="st13" d="M622.7,191.8L622.7,191.8c0.8,0,1.5-0.7,1.5-1.5v-2.2c0-0.8-0.7-1.5-1.5-1.5l0,0c-0.8,0-1.5,0.7-1.5,1.5
				v2.2C621.2,191.2,621.8,191.8,622.7,191.8z"/>
			<path class="st14" d="M667.2,214.8c4.2,4.4,9.1,8.2,14.5,11c0,0,22.8-13.6,22.8-44.6c0-2.6-0.2-5.2-0.5-7.7
				c-0.3-2.3-0.7-4.5-1.2-6.8c-1,5.9-3.7,14.8-10.5,25.9C682.1,209.4,670.8,213.8,667.2,214.8z"/>
			<path class="st11" d="M621,213.5l0.3,11.6c0,9.9,11.7,13.8,20.3,12.9l13.8-1.5l-1.4-12l-3.8-22.9l6.1-17.1l-12.5,5.2l0,0
				c1,13.6-8.8,24.6-22.4,24L621,213.5z"/>
			<path class="st12" d="M652.9,184.1c-1.4,0-2.5,1.1-2.5,2.5l0.1,8.6l0.1,7.5h3c0.2,0,0.4,0,0.6,0c5-0.5,8.8-4.6,8.8-9.6
				c0-2.4-1-4.8-2.8-6.4c-1.6-1.5-3.8-2.4-6-2.5l0,0c-0.3,0-0.5,0-0.8,0L652.9,184.1z"/>
			<path class="st15" d="M126.8,540.3v-6.5h38c4.1,0,7.8,2.6,9.2,6.5H126.8z"/>
			<rect x="519.3" y="45.9" class="st16" width="114.7" height="24.4"/>
			<rect x="581.3" y="45.6" class="st17" width="53.1" height="25"/>
			<line class="st18" x1="519.4" y1="50.4" x2="634.2" y2="50.4"/>
			<line class="st18" x1="519.4" y1="55.3" x2="634.2" y2="55.3"/>
			<line class="st18" x1="519.4" y1="60.2" x2="634.2" y2="60.2"/>
			<line class="st18" x1="519.4" y1="65.1" x2="634.2" y2="65.1"/>
			<path class="st19" d="M419.9,163.1l-3.7,142.2h-84.4l-2.2-140.5c0-18,13.6-32.9,31.5-35.9c2.2-0.4,4.4-0.5,6.6-0.5h12.9
				C401.7,128.2,419.9,142.9,419.9,163.1z"/>
			<path class="st20" d="M375,25.3h5.6c19.8,0,35.9,16.1,35.9,35.8c0,0,0,0,0,0V81c0,15.8-12.8,28.5-28.5,28.5h-20.2
				c-15.8,0-28.5-12.8-28.5-28.5V61.2C339.1,41.4,355.1,25.3,375,25.3L375,25.3L375,25.3z"/>
			<path class="st21" d="M349.4,69.2l-0.5,8.6l-0.4,5.8l-2.7-0.1c-0.2,0-0.4,0-0.6-0.1c-4.5-0.5-8-3.9-7.7-7.8
				c0.2-2,1.2-3.8,2.9-4.9c1.6-1.2,3.6-1.8,5.6-1.7l0,0c0.2,0,0.5,0,0.7,0L349.4,69.2z"/>
			<path class="st21" d="M408.6,69.4l0.5,8.6l0.4,5.8l2.7-0.1c0.2,0,0.4,0,0.6-0.1c4.5-0.5,7.9-3.9,7.7-7.8c-0.2-2-1.2-3.8-2.9-4.9
				c-1.6-1.2-3.6-1.8-5.6-1.7l0,0c-0.2,0-0.5,0-0.7,0L408.6,69.4z"/>
			<path class="st22" d="M374.3,91h5.9c5.8,0,10.4,4.7,10.4,10.4v30.1c0,5.8-4.7,10.4-10.4,10.4h-5.9c-5.8,0-10.4-4.7-10.4-10.4
				v-30.1C363.9,95.7,368.6,91,374.3,91z"/>
			<path class="st21" d="M413.8,68L413,83.7l-0.1,2.4c-0.1,1.5-0.3,3.1-0.6,4.6c-2.5,12.5-12.6,22.4-25.4,25.6
				c-1.4,0.4-2.9,0.6-4.4,0.8c-0.4,0.1-0.9,0.1-1.4,0.1c-0.9,0.1-1.9,0.1-2.8,0.1c-0.7,0-1.4,0-2.1,0c-1.5-0.1-3.1-0.3-4.6-0.5
				c-0.6-0.1-1.2-0.2-1.8-0.4c-2.3-0.5-4.5-1.3-6.6-2.2l0,0c-10-4.4-17.2-13.3-19.4-24c0,0,0-0.1,0-0.1c-0.2-1.1-0.4-2.3-0.4-3.4
				c0-0.4,0-0.7-0.1-1.1s0-0.8,0-1.1c0-0.4,0-0.9,0-1.3v-0.2v-1.1l0.2-2.8l0.2-4.8l0,0l0.2-4.9v-0.1l0,0l0.1-1.8l0.1-1.4l0.1-1.3
				v-0.3c0.1-2.2,0.6-4.4,1.3-6.5c0.5-1.4,1-2.8,1.7-4.2c0.1-0.2,0.2-0.4,0.3-0.6c0.5-1.1,1.1-2.2,1.8-3.3l0,0
				c2.5-4,5.9-7.5,9.8-10.1c0.8-0.5,1.6-1,2.5-1.5c6-3.4,12.9-5,19.8-4.6c9.2,0.4,17.8,4.3,24.2,10.9c1.7,1.8,3.2,3.8,4.4,6
				c1,1.8,1.8,3.7,2.5,5.6c0.4,1.2,0.8,2.5,1,3.8l0,0c0.1,0.4,0.1,0.9,0.2,1.3c0.1,0.8,0.2,1.5,0.2,2.3
				C413.9,65,413.9,66.5,413.8,68z"/>
			<path class="st23" d="M391.6,70.4L391.6,70.4c0.9,0,1.6,0.7,1.6,1.5v4.7c0,0.8-0.7,1.5-1.5,1.5h-0.1c-0.8,0-1.5-0.7-1.5-1.5v-4.7
				C390.1,71.1,390.8,70.4,391.6,70.4z"/>
			<path class="st23" d="M364.5,70.3L364.5,70.3c0.9,0,1.6,0.7,1.6,1.5l0,4.7c0,0.8-0.7,1.5-1.5,1.5l-0.1,0c-0.8,0-1.5-0.7-1.5-1.5
				l0-4.7C363,71,363.7,70.3,364.5,70.3z"/>
			<path class="st20" d="M397.4,66.1h-11.7c-0.9,0-1.6-0.7-1.6-1.6l0,0c0-0.9,0.7-1.6,1.6-1.6h11.7c0.9,0,1.6,0.7,1.6,1.5
				c0,0,0,0,0,0l0,0C399,65.4,398.3,66.1,397.4,66.1C397.4,66.1,397.4,66.1,397.4,66.1z"/>
			<path class="st20" d="M370.7,66.2H359c-0.9,0-1.6-0.7-1.6-1.6l0,0c0-0.9,0.7-1.6,1.6-1.6h11.7c0.9,0,1.6,0.7,1.6,1.6l0,0
				C372.3,65.4,371.6,66.2,370.7,66.2z"/>
			<path class="st17" d="M387.4,92.7c-3.2,4.4-6.1,7.4-10.4,6.8c-3.6-0.5-6.6-3.2-8.4-7L387.4,92.7z"/>
			<path class="st24" d="M374.3,83h7.5C381.7,83,378.2,87.7,374.3,83z"/>
			<path class="st21" d="M413.8,68L413,83.7l-0.1,2.4c-0.1,1.5-0.3,3.1-0.6,4.6c-2.5,12.5-12.6,22.4-25.4,25.6
				c-1.4,0.4-2.9,0.6-4.4,0.8c-0.4,0.1-0.9,0.1-1.4,0.1c-0.9,0.1-1.9,0.1-2.8,0.1c-0.7,0-1.4,0-2.1,0c-1.8-0.1-3.5-0.3-5.2-0.5
				c-0.4-0.1-0.7-0.1-1-0.2c-2.3-0.5-4.5-1.3-6.7-2.2l0,0c-10.1-4.4-17.3-13.4-19.5-24.2c0,0,0-0.1,0-0.1c-0.2-1.1-0.4-2.3-0.4-3.4
				c0-0.4,0-0.7-0.1-1.1s0-0.8,0-1.1c0-0.4,0-0.9,0-1.3v-0.2v-1.1l0.2-2.8l0.2-4.8c1.6,17.6,8.1,39.9,31.1,40.8
				c31.9,1.2,38.5-32.2,39-51.5C414,65,413.9,66.5,413.8,68z"/>
			<polygon class="st19" points="393.3,305.3 359.7,305.3 360.8,125.8 368.2,125.5 376.1,142.5 384.8,126 392.8,126.2 			"/>
			<polygon class="st25" points="368.4,125.4 363.4,133.4 356.9,130 363.9,120.2 			"/>
			<polygon class="st25" points="384.9,125.9 390.2,133.4 396.6,131.3 390.9,121.2 			"/>
			<ellipse class="st20" cx="405.8" cy="47" rx="12.2" ry="11.7"/>
			<ellipse class="st20" cx="386.3" cy="51" rx="9.4" ry="9"/>
			<ellipse class="st20" cx="371.5" cy="51.5" rx="8.8" ry="8.4"/>
			<ellipse class="st20" cx="355.4" cy="49.3" rx="8.3" ry="8"/>
			<path class="st20" d="M366.4,32.5c0,0,17.6-4.8,27,1.5c5.8,4,10.7,9.1,14.5,15l-36.1,3L350,48.7l8.3-15.2"/>
			<path class="st20" d="M350.6,51.6l-4,25.4c-0.2,0.9-1.1,1.6-2,1.4c-0.2,0-0.4-0.1-0.6-0.2l0,0c-0.5-0.3-0.8-0.8-0.8-1.3L342,58.3
				C342,58.3,348.4,43,350.6,51.6z"/>
			<path class="st20" d="M405.9,54.8l4,25.4c0.2,0.9,1.1,1.6,2,1.4c0.2,0,0.4-0.1,0.6-0.2l0,0c0.5-0.3,0.8-0.8,0.8-1.3l1.2-23.6
				C414.6,56.5,408.1,46.3,405.9,54.8z"/>
			<path class="st20" d="M346.9,75.7c-0.5,6.2,3,34.4,29.7,35s32.1-26.7,32.5-32.5s4.4-5.1,4.4-3.9l-0.1,14.7
				c0,17.2-14.6,31.2-32.6,31.2h-3.8c-18,0-33.9-13.1-33.9-30.3l0.1-14.1C343.1,75.9,346.9,75.2,346.9,75.7z"/>
			
				<rect x="351.3" y="535" transform="matrix(0.9996 -2.792164e-02 2.792164e-02 0.9996 -15.0358 10.2674)" class="st26" width="17.8" height="17.2"/>
			<path class="st27" d="M373.4,553.7l-26.1,0.7l0,0c-0.2-5.7,4.3-10.4,10-10.6l5.5-0.2C368.5,543.5,373.2,548,373.4,553.7
				L373.4,553.7z"/>
			
				<rect x="346.9" y="553.8" transform="matrix(0.9996 -2.792164e-02 2.792164e-02 0.9996 -15.3815 10.2775)" class="st23" width="26.9" height="4.2"/>
			<polygon class="st28" points="372.5,321.9 372.3,327.1 371.1,528.3 371.1,528.4 370.9,538.3 370.8,539.9 370.8,540 350,540.7 
				348,540.8 338.5,422 334.1,329.9 334,327.1 333.9,323.8 333.8,323.2 368.1,322 370.6,322 			"/>
			<path class="st29" d="M376.1,346.2c0,0,0,0.4,0,1.2C376.1,347.1,376.1,346.7,376.1,346.2z"/>
			<polygon class="st28" points="416,302.2 415.5,327.7 334,327.3 331.9,302.2 			"/>
			<path class="st30" d="M376.1,346.2c0,0,0,0.4,0,1.2C376.1,347.1,376.1,346.7,376.1,346.2z"/>
			<polygon class="st31" points="346.6,535 371.6,534.7 371.2,540.5 347.1,541.1 			"/>
			<polygon class="st26" points="394.4,551.4 412.1,550.9 411.6,533.8 393.8,534.3 			"/>
			<path class="st27" d="M390.3,553.5l26.1-0.7l0,0c-0.2-5.7-5-10.2-10.6-10l-5.5,0.2C394.6,543,390.1,547.7,390.3,553.5
				C390.3,553.4,390.3,553.4,390.3,553.5L390.3,553.5z"/>
			<polygon class="st23" points="390.2,557.5 417.1,556.7 416.9,552.5 390,553.2 			"/>
			<polygon class="st28" points="377.1,322 377.5,327.2 391.1,528 391.1,528 391.9,538 392.1,539.5 392.1,539.7 412.8,539.2 
				414.9,539.1 417.1,420.1 415.8,327.8 415.8,325.1 415.7,321.8 415.7,321.1 381.4,321.9 378.9,322 			"/>
			<polygon class="st31" points="415.9,533.3 390.9,534.4 391.7,540.1 415.8,539.4 			"/>
			<path class="st32" d="M339.6,161.3c-7,22.9-11,46.6-11.7,70.5c-0.9,30.2-2.1,100.3-2.1,100.3l-13.7-0.3c0,0-4.2-40.6-4-96.5
				s15.7-80.3,21.5-82.2S340.1,154.6,339.6,161.3z"/>
			<path class="st32" d="M335.9,349.5l-7.1-13.1c-0.8-1.5-2.6-2.1-4.1-1.5l-0.3,0.1c-1.4,0.8-1.9,2.7-1.1,4.1l7.1,13.1
				c0.8,1.5,2.6,2.1,4.1,1.5l0.3-0.1C336.2,352.8,336.7,351,335.9,349.5z"/>
			<path class="st32" d="M309.4,337.9c0,0,0.9,9.8,1.1,12.6c0.4,5.5,1.9,8.2,5.5,8.5l7.2-1.4c3.9-1.4,5.6-2.2,5.9-5.6l0.9-11.3
				c0.3-3.4-3.5-12.8-7.1-13.1l-7.3-0.9C312,326.3,309.7,334.5,309.4,337.9z"/>
			<path class="st32" d="M323.8,354.3l1.8,12.8c0.2,2.1,1.5,3.7,3,3.6l0,0c1.4-0.1,2.4-1.9,2.1-4l-1.8-12.8c-0.2-2.1-1.5-3.7-3-3.6
				l0,0C324.5,350.5,323.5,352.2,323.8,354.3z"/>
			<path class="st32" d="M318,357.7l1.8,12.8c0.2,2.1,1.5,3.7,3,3.6l0,0c1.4-0.1,2.4-1.9,2.1-4l-1.8-12.8c-0.2-2.1-1.5-3.7-3-3.6
				l0,0C318.8,353.9,317.8,355.6,318,357.7z"/>
			<path class="st32" d="M311.4,354.9l1.8,12.8c0.2,2.1,1.5,3.7,3,3.6l0,0c1.4-0.1,2.4-1.9,2.1-4l-1.8-12.8c-0.2-2.1-1.5-3.7-3-3.6
				l0,0C312.1,351,311.2,352.8,311.4,354.9z"/>
			<path class="st32" d="M411.4,161.3c7,22.9,10.9,46.6,11.6,70.5c0.9,30.2,2.1,100.3,2.1,100.3l13.7-0.3c0,0,4.2-40.6,4-96.5
				s-15.7-80.3-21.5-82.2S410.9,154.6,411.4,161.3z"/>
			<path class="st32" d="M415.1,349.5l7.1-13.1c0.8-1.5,2.6-2.1,4.1-1.5l0.3,0.1c1.4,0.8,1.9,2.7,1.1,4.1l-7.1,13.1
				c-0.8,1.5-2.6,2.1-4.1,1.5l-0.3-0.1C414.8,352.8,414.3,351,415.1,349.5z"/>
			<path class="st32" d="M441.5,337.9c0,0-0.9,9.8-1.1,12.6c-0.4,5.5-1.9,8.2-5.5,8.5l-7.2-1.4c-3.9-1.4-5.6-2.2-5.9-5.6l-0.9-11.3
				c-0.3-3.4,3.5-12.8,7.1-13.1l7.3-0.9C439,326.3,441.3,334.5,441.5,337.9z"/>
			<path class="st32" d="M427.2,354.3l-1.8,12.8c-0.2,2.1-1.5,3.7-3,3.6l0,0c-1.4-0.1-2.4-1.9-2.1-4l1.8-12.8c0.2-2.1,1.5-3.7,3-3.6
				l0,0C426.5,350.5,427.4,352.2,427.2,354.3z"/>
			<path class="st32" d="M433,357.7l-1.8,12.8c-0.2,2.1-1.5,3.7-3,3.6l0,0c-1.4-0.1-2.4-1.9-2.1-4l1.8-12.8c0.2-2.1,1.5-3.7,3-3.6
				l0,0C432.2,353.9,433.2,355.6,433,357.7z"/>
			<path class="st32" d="M439.6,354.9l-1.8,12.8c-0.2,2.1-1.5,3.7-3,3.6l0,0c-1.4-0.1-2.4-1.9-2.1-4l1.8-12.8c0.2-2.1,1.5-3.7,3-3.6
				l0,0C438.8,351,439.8,352.8,439.6,354.9z"/>
			<ellipse class="st17" cx="376.4" cy="175.8" rx="2.1" ry="2.1"/>
			<ellipse class="st17" cx="376.4" cy="204.6" rx="2.1" ry="2.1"/>
			<ellipse class="st17" cx="376.4" cy="233.4" rx="2.1" ry="2.1"/>
			<ellipse class="st17" cx="376.4" cy="262.2" rx="2.1" ry="2"/>
			<ellipse class="st17" cx="376.4" cy="291" rx="2.1" ry="2"/>
			<path class="st19" d="M353.9,130.8l-10.9,3.9c-14.2,5.2-24.9,17.2-28.3,32l-6.1,26.3l30.5,6.3L353.9,130.8z"/>
			<path class="st19" d="M395.8,131.8l11.1,4c14.2,5.2,24.9,17.2,28.3,32l6.1,26.3l-30.5,6.3L395.8,131.8z"/>
			<path class="st10" d="M816.6,581.5H241.8c-9.9,0-17.9-8-17.9-17.9v0c0-9.9,8-17.9,17.9-17.9h574.7c9.9,0,17.9,8,17.9,17.9v0
				C834.5,573.5,826.4,581.5,816.6,581.5z"/>
			<path class="st20" d="M219,174.5l-2.7-4.8c-3.7-6.5-10.4-10.7-17.8-11.2l0,0c-7.5-0.5-14.7,2.8-19.2,8.8l0,0
				c-0.4,0.5-0.7,1-1,1.4c-6.4,9.2-8.9,24.3-4.2,46.3l8.9,56.2l29.5,4.2l9.4-89.1C222,182.2,221,178.1,219,174.5z"/>
			<path class="st21" d="M320.7,337.3l13.8-4c1-0.3,1.6-1.3,1.3-2.4l0,0c-0.3-1-1.3-1.6-2.4-1.3l-13.8,4c-1,0.3-1.6,1.3-1.3,2.4l0,0
				C318.7,337,319.7,337.6,320.7,337.3z"/>
			<path class="st21" d="M325.7,340.5l11.1-3.2c1-0.3,1.5-1.3,1.3-2.3l0,0c-0.3-1-1.3-1.6-2.4-1.3l-11.1,3.2c-1,0.3-1.6,1.3-1.3,2.4
				l0,0C323.6,340.3,324.7,340.8,325.7,340.5z"/>
			<path class="st21" d="M323.7,345.8l13.1-3.8c1-0.3,1.6-1.3,1.3-2.4l0,0c-0.3-1-1.3-1.6-2.4-1.3l-13.1,3.8c-1,0.3-1.6,1.3-1.3,2.4
				l0,0C321.6,345.5,322.7,346.1,323.7,345.8z"/>
			<path class="st21" d="M326.4,332.9c-0.1,0-1.9,0.2-3.8,0.4c-3.2,0.3-6.3,1.5-9,3.2l-5.2,3.4c0,0,4.3,9,4.8,9
				c10.9,0.6,14-4.7,14-4.7L326.4,332.9z"/>
			<path class="st21" d="M232.1,297.2c0,0,6.4,17.1,12.9,31.1c1.8,3.9,3.6,7.5,5.3,10.4c0.5,0.9,1,1.7,1.5,2.5
				c6.5,10,15.1,15.6,27.4,14.1l36.1-6.1l-2.1-12.5l-37.2,3.2c-4,0.5-10-5.1-12.6-8.9c-0.2-0.3-0.4-0.6-0.5-0.9
				c-1.2-2.1-2.6-4.7-4-7.6c-8.4-17.4-19-46-19-46L232.1,297.2z"/>
			<path class="st33" d="M236.8,265.1c0.7,1.1,17.9,34.6,17.9,34.6l-13.4,12.3L236.8,265.1z"/>
			<path class="st28" d="M242.8,433.7l-80.6,8l-29.6-150.1l45.6-0.2c20.1-0.1,37.4,13.9,41.6,33.6L242.8,433.7z"/>
			<path class="st34" d="M140.6,434.7l-17.7-131.4c-0.8-5.9,3.3-11.3,9.2-12.1l0,0c5.9-0.8,11.3,3.3,12.1,9.2l17.7,131.4
				c0.8,5.9-3.3,11.3-9.2,12.1l0,0C146.8,444.7,141.4,440.5,140.6,434.7z"/>
			<rect x="201.3" y="452.7" class="st35" width="12.5" height="73.7"/>
			<path class="st23" d="M213.8,457v16.6l-12.5-4.8v-11.3C204.4,457.4,210.4,457.1,213.8,457z"/>
			<path class="st35" d="M236.5,458.6h-55.8c-3.1,0-5.6-2.5-5.6-5.6l0,0c0-3.1,2.5-5.6,5.6-5.6h55.8c3.1,0,5.6,2.5,5.6,5.6l0,0
				C242,456.1,239.5,458.6,236.5,458.6z"/>
			<path class="st28" d="M199.6,424h64.1c7.7,0,14,6.2,14,14v0c0,7.7-6.2,14-14,14h-64.1c-7.7,0-13.9-6.2-13.9-14v0
				C185.7,430.3,191.9,424,199.6,424z"/>
			<path class="st34" d="M207.4,442.3h-51.3c-7.7,0-14-6.3-14-14l0,0c0-7.7,6.3-14,14-14h51.3c7.7,0,14,6.3,14,14l0,0
				C221.4,436,215.2,442.3,207.4,442.3z"/>
			<path class="st23" d="M260.5,550.9h-7.8c-0.1-9.3-7.6-16.8-16.9-16.9h-56.9c-9.3,0-16.9,7.6-16.9,16.9h-7.8
				c0-13.7,11.1-24.7,24.7-24.7h56.9C249.4,526.2,260.4,537.2,260.5,550.9z"/>
			<rect x="198.3" y="514.4" class="st23" width="18.2" height="11.9"/>
			<circle class="st23" cx="157.7" cy="558.4" r="6.5"/>
			<path class="st35" d="M157.8,547.3h0.7c4.7,0,8.5,3.8,8.5,8.5v2l0,0h-17.7l0,0v-2C149.3,551.2,153.1,547.4,157.8,547.3z"/>
			<circle class="st23" cx="256.9" cy="558.4" r="6.5"/>
			<path class="st35" d="M257.1,547.3h0.7c4.7,0,8.5,3.8,8.5,8.5v2l0,0h-17.8l0,0v-2C248.5,551.2,252.3,547.4,257.1,547.3z"/>
			<rect x="202.6" y="528.6" class="st23" width="10.3" height="23.4"/>
			<circle class="st23" cx="208" cy="558.4" r="6.5"/>
			<path class="st35" d="M208.2,547.3h0.7c4.7,0,8.5,3.8,8.5,8.5v2l0,0h-17.8l0,0v-2C199.6,551.2,203.5,547.3,208.2,547.3z"/>
			<path class="st7" d="M232.1,442l-0.5-0.2C231.7,442,231.9,442.1,232.1,442z"/>
			<path class="st7" d="M232.1,442l-0.5-0.2C231.7,442,231.9,442.1,232.1,442z"/>
			<path class="st36" d="M184.4,378.5l0.6,23.9c0.3,13.1,5.6,24.1,22.3,24.6l43.5,5.6v-26.2l-5.6-17.9L184.4,378.5z"/>
			<path class="st37" d="M284.1,563.6l45.4,1.2c2.7,0,4.9-2.2,5-4.9l0,0c0.1-2.1-1.2-4-3.2-4.8l-22.2-8.6h-24.5L284.1,563.6z"/>
			<path class="st23" d="M284.5,561.9l49.2,1l0,0l0,0c0,1.8-1.6,3.3-3.4,3.3l0,0l-45.9-0.9l0,0L284.5,561.9L284.5,561.9z"/>
			<line class="st38" x1="307.8" y1="553.3" x2="313.4" y2="547.5"/>
			<line class="st38" x1="311.8" y1="555" x2="317.3" y2="549.3"/>
			<line class="st38" x1="315.6" y1="557.4" x2="321.8" y2="550.9"/>
			<path class="st36" d="M284.1,548.8c2.7-45.2,4.4-98,0.9-106.5c-3.6-5.3-27-10.8-49.1-16.9l4.7-30.5c17.9,2.8,60.7,16.9,69.9,32.7
				c3.9,6.7,5.2,30.6,3.4,76.8c-1,24.2-2.1,43.1-2.1,43.1L284.1,548.8z"/>
			<path class="st39" d="M250.6,564.1l45.4,1.2c2.7,0,4.9-2.2,5-4.9l0,0c0.1-2.1-1.2-4-3.2-4.8l-22.2-8.6l-24.6,0L250.6,564.1z"/>
			<path class="st23" d="M251,562.4l49.2,1l0,0l0,0c0,1.8-1.6,3.3-3.4,3.3l0,0l-45.9-0.9l0,0L251,562.4L251,562.4z"/>
			<line class="st38" x1="274.3" y1="553.8" x2="279.9" y2="548.1"/>
			<line class="st38" x1="278.3" y1="555.6" x2="283.9" y2="549.9"/>
			<line class="st38" x1="282.1" y1="557.9" x2="288.3" y2="551.4"/>
			<path class="st40" d="M250.7,549.3c2.7-45.2,4.4-98,0.9-106.5c-3.3-3.3-29.4-9.6-51.1-15.9c-8.2-2.4-14.2-9.4-15.4-17.8
				l-1.1-13.9l23.8-1.1c17.9,2.8,60,18.2,69.2,34c3.9,6.7,5.2,30.6,3.4,76.8c-1,24.2-2.1,43.1-2.1,43.1L250.7,549.3z"/>
			<path class="st33" d="M247.1,391.9l-44.8,1.9l-18.8,0.8h-0.1l-5.5-92.1c-0.6-12.5,0.7-21.9,3.1-28.8
				c6.8-20.5,22.2-20.4,23.7-20.4l16.2,0.2c13.8,0,24.4,23.3,25.8,47.3l0.2,62.8l0.1,22L247.1,391.9z"/>
			<path class="st41" d="M247.1,391.9l-44.8,1.9l-18.8,0.8h-0.1l-5.5-92.1c-0.6-12.5,0.7-21.9,3.1-28.8l8.7,13.3l15.7,51.7l26,12.7
				l15.6,12.3l0.1,22L247.1,391.9z"/>
			<line class="st42" x1="736.8" y1="547.4" x2="736.8" y2="552.6"/>
			<rect x="595.7" y="421.1" class="st23" width="68.1" height="13.5"/>
			<rect x="593.7" y="375" class="st43" width="15.3" height="189"/>
			<rect x="650.7" y="375" class="st44" width="15.3" height="189"/>
			<rect x="217.5" y="375.1" class="st43" width="15.3" height="189"/>
			<rect x="273.2" y="375" class="st44" width="15.3" height="189"/>
			<path class="st20" d="M412.1,376H198.7l0,0v-11c0-3.3,2.7-6,6-6h201.4c3.3,0,6,2.7,6,6L412.1,376L412.1,376z"/>
			<path class="st24" d="M684,365v11H260.9v-11c0-3.3,2.7-6,6-6c0,0,0,0,0.1,0h411C681.2,359,684,361.6,684,365
				C684,365,684,365,684,365z"/>
			<path class="st20" d="M640.4,359v17H524.9c-2-4.5-5.3-11.7-7.6-17.1L640.4,359z"/>
			<path class="st45" d="M537.3,359.5h-86.9c-0.5-0.7-0.9-1.5-1.1-2.3L429.8,287c-0.8-2.8,0.9-5.7,3.6-6.5c0.5-0.1,0.9-0.2,1.4-0.2
				h76.5c2.4,0,4.4,1.6,5.1,3.9L537.3,359.5z"/>
			<path class="st46" d="M459.8,360.2h81.6l-21.8-78.5c-0.6-2.3-2.7-3.8-5-3.8h-76.4c-2.9,0-5.2,2.3-5.2,5.2c0,0.5,0.1,1,0.2,1.4
				l19.4,70.1C453.5,357.9,456.5,360.2,459.8,360.2z"/>
			<path class="st47" d="M437.4,287.6l15.9,57.2l3.3,12h80.9l-3.3-12L517.6,285c-0.6-2.1-2.5-3.5-4.7-3.5h-70.8
				c-2.7,0-4.9,2.2-4.9,4.9C437.3,286.7,437.3,287.2,437.4,287.6z"/>
			<polygon class="st48" points="485.1,289.2 510,289.2 509.4,287.5 484.5,287.5 			"/>
			<polygon class="st49" points="462.5,289.2 474.3,289.2 473.7,287.5 462,287.5 			"/>
			<polygon class="st50" points="445.5,289.2 457.3,289.2 456.7,287.5 444.9,287.5 			"/>
			<polygon class="st51" points="458.7,289.2 461.5,289.2 460.9,287.5 458.1,287.5 			"/>
			<polygon class="st50" points="475.7,289.2 483.9,289.2 483.4,287.5 475.1,287.5 			"/>
			<polygon class="st45" points="502.4,319.1 490.6,319.1 490.1,317.3 501.9,317.3 			"/>
			<polygon class="st52" points="519.5,319.1 507.7,319.1 507.1,317.3 518.9,317.3 			"/>
			<polygon class="st51" points="506.3,319.1 503.5,319.1 502.9,317.3 505.7,317.3 			"/>
			<polygon class="st49" points="503,296.7 512.4,296.7 511.8,294.9 502.5,294.9 			"/>
			<polygon class="st51" points="480.4,296.7 484.4,296.7 483.9,294.9 479.9,294.9 			"/>
			<polygon class="st49" points="447.9,296.7 467.4,296.7 466.9,294.9 447.3,294.9 			"/>
			<polygon class="st51" points="468.8,296.7 479.4,296.7 478.8,294.9 468.3,294.9 			"/>
			<polygon class="st51" points="485.8,296.7 501.9,296.7 501.3,294.9 485.3,294.9 			"/>
			<polygon class="st53" points="517.2,341.5 526.6,341.5 526,339.7 516.7,339.7 			"/>
			<polygon class="st45" points="505.4,304.1 514.7,304.1 514.2,302.4 504.8,302.4 			"/>
			<polygon class="st45" points="490.1,304.1 499.5,304.1 498.9,302.4 489.6,302.4 			"/>
			<polygon class="st51" points="452.8,304.1 468.9,304.1 468.3,302.4 452.2,302.4 			"/>
			<polygon class="st51" points="517.1,311.6 501,311.6 500.5,309.9 516.5,309.9 			"/>
			<polygon class="st46" points="453.3,344.8 456.6,356.8 537.6,356.8 534.2,344.8 			"/>
			<path class="st54" d="M496.9,360.3h99.4c2.3,0,4.2-1.9,4.2-4.2l0,0c0-2.3-1.9-4.2-4.2-4.2h-99.4c-2.3,0-4.2,1.9-4.2,4.2l0,0
				C492.7,358.4,494.6,360.3,496.9,360.3z"/>
			<polygon class="st55" points="447.3,277.8 498.4,351.7 529.7,351.7 478.5,277.8 			"/>
			<path class="st45" d="M459.4,360.3h58.9c2.4,0,4.3-1.9,4.3-4.3l0,0c0-2.4-1.9-4.3-4.3-4.3h-58.9c-2.4,0-4.3,1.9-4.4,4.3
				c0,0,0,0,0,0.1l0,0C455,358.4,457,360.3,459.4,360.3z"/>
			<rect x="479.9" y="354.4" class="st13" width="8.2" height="2.5"/>
			<rect x="490.6" y="354.4" class="st13" width="6" height="2.5"/>
			<path class="st34" d="M370,337.3v22.5h18.8v-22.5c0-1-0.8-1.8-1.8-1.8h-15.2C370.9,335.5,370,336.3,370,337.3L370,337.3z"/>
			<path class="st34" d="M388.6,356c0.2-0.1,6-3.5,6.5-9.4c0.2-1.6-0.3-3.2-1.4-4.4c-2.1-2.1-5.5-2-5.9-2l0.1,2.7
				c0.7,0,2.8,0.1,3.8,1.2c0.5,0.6,0.8,1.5,0.6,2.3c-0.4,4.5-5.1,7.3-5.2,7.3L388.6,356z"/>
			<path class="st34" d="M378.8,359.8h10v-22.5c0-1-0.8-1.8-1.8-1.8h-0.6c0,1.2-0.4,10.1-2.9,16.6
				C381.4,357.8,379.4,359.4,378.8,359.8z"/>
			<path class="st56" d="M393.7,342.1c-1.3-1.2-3.1-1.9-4.9-2v-2.8c0-1-0.8-1.8-1.8-1.8h-0.6c0,1.2-0.4,10.1-2.9,16.6
				c-2.2,5.6-4.1,7.3-4.7,7.7h10v-4c1.1-0.7,5.8-4,6.3-9.3C395.3,344.9,394.8,343.3,393.7,342.1z M392.4,346.3
				c-0.4,2.4-1.6,4.6-3.6,6.1v-9.5c1.1,0,2.1,0.4,2.9,1.1C392.3,344.6,392.5,345.5,392.4,346.3L392.4,346.3z"/>
			<path class="st45" d="M390.8,360.6h-67.2c-3.3,0-6-2.7-6-6c0-0.9,0.2-1.8,0.6-2.6l23.5-50c2-4.4,6.4-7.1,11.2-7.1h61.9
				c2.4,0,4.4,1.9,4.4,4.3c0,0.7-0.1,1.3-0.4,1.9L390.8,360.6z"/>
			<path class="st16" d="M323.8,360.7h-47.9c-1.9,0-3.5-1.6-3.5-3.5l0,0c0-1.9,1.6-3.5,3.5-3.5h47.9c1.9,0,3.5,1.6,3.5,3.5l0,0
				C327.3,359.2,325.7,360.7,323.8,360.7z"/>
			<rect x="299.7" y="356" class="st17" width="6.9" height="2"/>
			<rect x="292.7" y="356" class="st17" width="5" height="2"/>
			<path class="st50" d="M389.8,360.6h-67.4c-1.8,0-3.3-1.5-3.3-3.3c0-0.5,0.1-1,0.3-1.4l25.3-53.9c2-4.4,6.4-7.1,11.2-7.1h61.9
				c2.4,0,4.4,1.9,4.4,4.3c0,0.7-0.1,1.3-0.4,1.9l-26.1,55.8C394.5,359.1,392.3,360.6,389.8,360.6z"/>
			
				<ellipse transform="matrix(0.393 -0.9195 0.9195 0.393 -78.0241 541.6523)" class="st17" cx="371.2" cy="329.9" rx="7.4" ry="4.1"/>
			<path class="st21" d="M267.5,347.2l14.2-2.2c1-0.2,1.7-1.1,1.6-2.2l0,0c-0.2-1-1.1-1.7-2.2-1.6l-14.2,2.2c-1,0.2-1.7,1.1-1.6,2.2
				l0,0C265.5,346.7,266.4,347.4,267.5,347.2z"/>
			<path class="st21" d="M272,351.1l11.4-1.8c1-0.2,1.7-1.1,1.6-2.2l0,0c-0.2-1-1.1-1.7-2.2-1.6l-11.4,1.8c-1,0.2-1.7,1.1-1.6,2.2
				l0,0C270,350.5,271,351.2,272,351.1z"/>
			<path class="st21" d="M269.3,356l13.5-2.1c1-0.2,1.7-1.1,1.6-2.2l0,0c-0.2-1-1.1-1.7-2.2-1.6l-13.5,2.1c-1,0.2-1.7,1.1-1.6,2.2
				l0,0C267.3,355.4,268.3,356.2,269.3,356z"/>
			<path class="st21" d="M273.6,343.6c-0.1,0-1.9,0-3.8,0c-3.2-0.1-6.5,0.6-9.4,2.1l-5.6,2.7c0,0,3.1,9.5,3.6,9.6
				c10.8,2,14.5-2.9,14.5-2.9L273.6,343.6z"/>
			<path class="st21" d="M184.7,296.2c0,0,4.2,17.8,8.8,32.4c1.3,4.1,2.6,7.9,3.9,11c0.4,0.9,0.8,1.8,1.2,2.6
				c5.1,10.8,13,17.5,25.3,17.5l36.6-1.5l-0.5-12.6l-37.3-1.5c-4.1,0-9.2-6.3-11.3-10.4c-0.2-0.3-0.3-0.6-0.4-0.9
				c-0.9-2.2-1.9-5-3-8c-6.1-18.4-12.9-48-12.9-48L184.7,296.2z"/>
			<path class="st33" d="M198.1,265.4l8.2,36.5l-23.4,7.1c0,0-1.3-4.6-2.3-9.9s-2.1-19,0.4-25.3
				C183.5,267.7,191.3,266.7,198.1,265.4z"/>
			<path class="st57" d="M633.9,575.8l-49.3-1c-2.9-0.1-5.3-2.5-5.2-5.4c0,0,0,0,0,0l0,0c0-2.3,1.5-4.3,3.7-5l24.6-8l26.7,1.2
				L633.9,575.8z"/>
			<path class="st23" d="M583.5,576.2l49.9,1.4l0.1-3.6l-53.5-1.5l0,0C580,574.5,581.5,576.1,583.5,576.2
				C583.5,576.1,583.5,576.1,583.5,576.2z"/>
			<line class="st58" x1="608" y1="563.6" x2="602.4" y2="557.3"/>
			<line class="st58" x1="603.7" y1="565.3" x2="598.1" y2="559"/>
			<line class="st58" x1="599.6" y1="567.6" x2="593.2" y2="560.4"/>
			<path class="st59" d="M636.2,558.8c-2.9-48.1-2.1-92.6,1.7-101.6c3.8-5.6,33.8-17.7,63.8-19l-14-30.6
				c-39.3,2-67.4,16.7-77.2,33.6c-4.2,7.1-7.8,21.5-5.8,70.5c1,25.7,2.3,45.8,2.3,45.8L636.2,558.8z"/>
			<path class="st60" d="M590.5,576.2l-49.3,0.4c-2.9,0-5.3-2.3-5.4-5.3c0,0,0,0,0,0l0,0c0-2.3,1.4-4.3,3.5-5.1l24.3-8.7l26.7,0.5
				L590.5,576.2z"/>
			<path class="st23" d="M540.2,578h49.9v-3.6h-53.5C536.6,576.4,538.2,578,540.2,578z"/>
			<line class="st58" x1="564.3" y1="564.8" x2="558.5" y2="558.6"/>
			<line class="st58" x1="560.1" y1="566.5" x2="554.3" y2="560.3"/>
			<line class="st58" x1="556" y1="568.9" x2="549.5" y2="561.9"/>
			<path class="st40" d="M592.3,558.8c-2.9-48.1-2.1-92.6,1.7-101.6c3.8-5.6,33.8-17.7,63.8-19l-14-30.6
				c-39.3,2-67.4,16.7-77.2,33.6c-4.2,7.1-7.8,21.5-5.8,70.5c1,25.7,2.3,45.8,2.3,45.8L592.3,558.8z"/>
			<path class="st40" d="M634.6,416.4c0,12.3,10,22.3,22.3,22.3h37.4c1.1,0,2.2-0.1,3.3-0.2c2.7-0.4,5.3-1.3,7.7-2.6
				c0.4-0.2,0.8-0.5,1.2-0.7c6.3-4.1,10.1-11.1,10.1-18.7l-0.7-11.9l-80.7-0.7L634.6,416.4z"/>
			<path class="st21" d="M608.8,352.9l-19.3-3.1c-1.4-0.2-2.4-1.6-2.2-3c0,0,0,0,0,0l0,0c0.2-1.4,1.6-2.4,3-2.2c0,0,0,0,0,0
				l19.3,3.1c1.4,0.2,2.4,1.6,2.2,3c0,0,0,0,0,0l0,0C611.6,352.2,610.3,353.1,608.8,352.9C608.8,352.9,608.8,352.9,608.8,352.9z"/>
			<path class="st21" d="M602.7,358.1l-15.5-2.5c-1.4-0.2-2.4-1.6-2.2-3c0,0,0,0,0,0l0,0c0.2-1.4,1.6-2.4,3-2.2c0,0,0,0,0,0
				l15.5,2.5c1.4,0.2,2.4,1.6,2.2,3c0,0,0,0,0,0l0,0C605.5,357.4,604.1,358.3,602.7,358.1C602.7,358.1,602.7,358.1,602.7,358.1z"/>
			<path class="st21" d="M606.3,364.9l-18.3-2.9c-1.4-0.2-2.4-1.6-2.2-3c0,0,0,0,0,0l0,0c0.2-1.4,1.6-2.4,3-2.2c0,0,0,0,0,0
				l18.3,2.9c1.4,0.2,2.4,1.6,2.2,3c0,0,0,0,0,0l0,0C609,364.1,607.7,365.1,606.3,364.9C606.3,364.9,606.3,364.9,606.3,364.9z"/>
			<path class="st21" d="M600.5,347.9c0.2,0,2.6,0,5.1,0c4.4-0.1,8.8,0.9,12.8,2.9l7.6,3.7c0,0-4.4,12.9-5,13
				c-14.7,2.6-19.7-4-19.7-4L600.5,347.9z"/>
			<rect x="611.9" y="347.9" class="st17" width="6.5" height="21.2"/>
			<path class="st28" d="M661.1,371.3c15.4,0,29.4-9,35.9-22.9l0.3-0.7l20.1-61.4l-24.8-8.1L673,338c-2.3,4.5-7,7.3-12,7.2
				l-42.7-0.4l-0.2,26.1l42.7,0.4H661.1z"/>
			<path class="st21" d="M522,344.2c1.6-2.9,4-5.2,6.9-6.6h0.1c4-1.9,8.4-2.9,12.8-2.8l8.5,0.2c0,0,1.7,20.1,1.6,19.5
				c-0.2-1.2-8.2-2.4-29.7-2.4c-1.5,0-2.7-1.1-2.7-2.6c0-0.5,0.1-0.9,0.3-1.3L522,344.2z"/>
			<rect x="546.7" y="334.3" class="st17" width="8.1" height="21.7"/>
			<path class="st34" d="M719.2,422.9c0,0-8.3,0.9-19.6,1.4c-2,0.1-4.2,0.2-6.4,0.2c-13,0.3-28.3-0.1-39.2-2.9
				c-5.2-1.3-10.4-3-15.3-5.1c-1.5-0.7-2.8-1.3-4-1.9c-2.2-1-4.2-2.4-6-4l0,0l-0.6-69.6l-0.5-54.7c0-21.5,17.5-39,39-39h13.2
				c2.3,0,4.5,0.2,6.8,0.6c2.3,0.4,4.5,1,6.6,1.8l0,0c15.4,5.6,25.6,20.3,25.6,36.7L719.2,422.9z"/>
			<path class="st61" d="M719.2,422.9c0,0-8.3,0.9-19.6,1.4c-2,0.1-4.2,0.2-6.4,0.2c-7,0.2-14.6,0.1-21.8-0.4l-0.3-147.2
				c0-10.8-3.9-21.1-11-29.2c2.2-0.4,4.4-0.6,6.7-0.6h13.2c2.3,0,4.5,0.2,6.8,0.6c2.3,0.4,4.5,1,6.6,1.8l0,0
				c15.4,5.6,25.6,20.3,25.6,36.7L719.2,422.9z"/>
			<path class="st62" d="M653.1,286.7c-1.5,6.6-10.7,47.8-14.9,66.8l-0.2-32.3c-1.3,4.4-3,8.6-5.2,12.5l-2-17
				C630.8,316.7,655.1,278,653.1,286.7z"/>
			<rect x="675.4" y="465.7" class="st35" width="13.2" height="73.3"/>
			<path class="st23" d="M675.4,469.9v16.6l13.2-4.8v-11.2C685.2,470.3,678.9,470.1,675.4,469.9z"/>
			<path class="st35" d="M710.7,471.6h-59.6c-3.1,0-5.5-2.5-5.5-5.5v0c0-3.1,2.5-5.5,5.5-5.5h59.6c3.1,0,5.5,2.5,5.5,5.5v0
				C716.2,469.1,713.7,471.6,710.7,471.6z"/>
			<path class="st23" d="M626.6,566h8.2c0-9.3,8-16.8,17.9-16.8h60.1c9.8,0,17.9,7.5,17.9,16.8h8.2c0-13.6-11.7-24.6-26.1-24.6h-60
				C638.3,541.4,626.6,552.4,626.6,566z"/>
			<rect x="672.4" y="527.1" class="st23" width="19.2" height="16"/>
			<ellipse class="st23" cx="735.1" cy="573.5" rx="6.8" ry="6.5"/>
			<path class="st35" d="M744,572.9h-18.8l0,0v-1.7c0-4.8,3.9-8.8,8.8-8.8h1.2c4.8,0,8.8,3.9,8.8,8.8L744,572.9L744,572.9z"/>
			<ellipse class="st23" cx="630.4" cy="573.5" rx="6.8" ry="6.5"/>
			<path class="st35" d="M639.2,572.9h-18.7l0,0v-1.7c0-4.8,3.9-8.8,8.8-8.8h1.2c4.8,0,8.8,3.9,8.8,8.8V572.9L639.2,572.9z"/>
			<rect x="676.7" y="543.8" class="st23" width="10.9" height="23.3"/>
			<ellipse class="st23" cx="682" cy="573.5" rx="6.8" ry="6.5"/>
			<path class="st35" d="M690.8,572.9h-18.7l0,0v-1.7c0-4.8,3.9-8.8,8.8-8.8h1.2c4.8,0,8.8,3.9,8.8,8.8V572.9L690.8,572.9z"/>
			<path class="st28" d="M786.9,323.3l-17.7,127.4c-1.1,7.8-7.6,13.6-15.4,13.8l-40.2,0.7l24.5-160.2H771c8.8,0,16,7.1,16.1,15.9
				C787,321.8,787,322.5,786.9,323.3z"/>
			<path class="st34" d="M594.7,359.5c15.4,0,29.4-9,35.9-22.9l29-62.6L635.9,263l-29,62.6c-2.2,4.8-7,7.9-12.3,7.8l-42.7-0.4
				l-0.3,26.1l42.7,0.4H594.7z"/>
			<path class="st34" d="M716.4,465.3h-103c-7.7,0-13.9-6.2-13.9-13.9l0,0c0-7.7,6.2-13.9,13.9-13.9h103c7.7,0,13.9,6.2,13.9,13.9
				l0,0C730.3,459.1,724.1,465.3,716.4,465.3z"/>
			<rect x="653" y="238.2" class="st17" width="40.3" height="11.2"/>
			<path class="st34" d="M732,447.8l18.7-130.7c0.8-5.8-3.5-11.2-9.7-12l0,0c-6.2-0.8-11.9,3.3-12.7,9.2l-18.7,130.6
				c-0.8,5.8,3.5,11.2,9.7,12l0,0C725.4,457.7,728.6,462.1,732,447.8z"/>
			<path class="st62" d="M638.7,416.5c-1.5-0.7-2.8-1.3-4-1.9c-2.2-1-4.2-2.4-6-4l0,0l-0.6-69.6c4.4-5.9,7.7-12.6,9.8-19.7
				L638.7,416.5z"/>
			<rect x="130.4" y="495.1" class="st17" width="19.4" height="8.6"/>
			<rect x="132.2" y="497" class="st23" width="15.9" height="1.7"/>
			<rect x="132.2" y="499.8" class="st23" width="15.9" height="1.7"/>
			<rect x="133.6" y="452.5" class="st17" width="19.4" height="8.6"/>
			<rect x="135.5" y="454.5" class="st23" width="15.9" height="1.7"/>
			<rect x="135.5" y="457.3" class="st23" width="15.9" height="1.7"/>
			<rect x="135.4" y="517.9" class="st17" width="19.4" height="8.6"/>
			<rect x="137.3" y="519.8" class="st23" width="15.9" height="1.7"/>
			<rect x="137.3" y="522.7" class="st23" width="15.9" height="1.7"/>
			<rect x="516.5" y="83.1" class="st20" width="211.1" height="16.2"/>
			<rect x="532.1" y="69.7" class="st28" width="106.8" height="14.3"/>
			<rect x="498.1" y="69.7" class="st34" width="106.8" height="14.3"/>
			<rect x="394.4" y="348.5" class="st23" width="39.2" height="11.7"/>
			<rect x="383.4" y="348.5" class="st5" width="39.2" height="11.7"/>
			<path class="st63" d="M399,356L399,356c-3.9,0.6-6.8,3.9-6.9,7.8l-0.1,5c-0.2,7.7-6.3,13.8-14,13.9l-13,0.3
				c-5.9,0.1-10.9-4.5-11.3-10.4l-0.1-1.4c-0.4-6.3-5.4-11.4-11.7-12l0,0l-34.9-0.1c-1.2,0-2.3-0.5-3-1.4l-0.4-0.5"/>
			<path class="st63" d="M406.1,357L406.1,357c-3.4,0.2-6.1,3.1-6,6.5l1,37.2c0.3,9.5-7.2,17.4-16.7,17.6c-0.3,0-0.7,0-1,0l0,0
				c-9.1-0.3-16.4-7.6-16.6-16.7l-0.9-36.2c-0.1-3.4-2.8-6.1-6.2-6.2l-16.7-0.1"/>
			<path class="st17" d="M411.7,358.8h-7.6c-0.9,0-1.5-0.7-1.5-1.5l0,0c0-0.9,0.7-1.5,1.5-1.5h7.6c0.9,0,1.5,0.7,1.5,1.5l0,0
				C413.3,358.1,412.6,358.8,411.7,358.8z"/>
			<path class="st17" d="M399.4,358h-7.6c-0.9,0-1.5-0.7-1.5-1.5l0,0c0-0.9,0.7-1.5,1.5-1.5h7.6c0.9,0,1.5,0.7,1.5,1.5l0,0
				C400.9,357.3,400.2,358,399.4,358z"/>
			<rect x="485.1" y="83.1" class="st24" width="211.1" height="16.2"/>
			<path class="st22" d="M210.3,219.9h3.4c4.4,0,7.9,3.6,7.9,7.9V253c0,4.4-3.6,7.9-7.9,7.9h-3.4c-4.4,0-7.9-3.6-7.9-7.9v-25.2
				C202.3,223.4,205.9,219.9,210.3,219.9z"/>
			<path class="st17" d="M212.4,163.2l-2.8-3.2c0,0-14.3,2.3-20,14.7l2.1,3.1L212.4,163.2z"/>
			<path class="st8" d="M257.8,198.4c0,0.5-0.1,1-0.1,1.6c-0.3,2.4-0.8,4.9-1.6,7.2c-3.3,9.8-37-19.6-46.4-15.9
				c-4.7,1.9-7.6,41.6-8.4,41c-16-14.5-15.2-32.4-14.7-39c1.3-18.7,18.8-32.6,37.3-32.2c0.5,0,1.1,0,1.6,0.1
				c11.3,0.8,21.5,7,27.4,16.7l0,0C256.5,184,258.3,191.2,257.8,198.4L257.8,198.4z"/>
			<path class="st64" d="M211.3,205.6c0,0.7-0.2,1.5-0.5,2.2c-0.4,0.8-0.9,1.6-1.5,2.2c-1.2,1.2-2.8,1.8-4.5,1.7l-3.7-0.2l-2.8-0.1
				l0.4-8.4l0,0l0.1-1.6l0.1-1.2l0.1-1.1v-0.3l0,0l6.5,0.3c2.6,0.1,4.8,1.8,5.6,4.3C211.2,204.1,211.3,204.8,211.3,205.6z"/>
			<path class="st21" d="M198,216.1c0,0.3,0,0.6,0,1c0,0.1,0,0.2,0,0.3c0.2,4,1.2,7.9,3,11.5c0.1,0.2,0.2,0.4,0.3,0.5
				c2.9,5.5,7.5,9.9,13.1,12.6l0,0c2.2,1.1,4.6,1.8,7,2.3c0.9,0.2,1.8,0.3,2.7,0.4l1.1,0.1c1.3,0.1,2.7,0,4-0.1
				c0.4,0,0.7-0.1,1.1-0.1c12.3-1.5,22.2-10.7,24.6-22.9c0.3-1.3,0.4-2.7,0.5-4l0.1-2l0.7-13.6c0.1-2,0.1-4-0.1-6
				c-0.2-1.5-0.5-3-1-4.4c-1.2-3.7-3.1-7.2-5.7-10.1c-9.3-10.2-24.5-12.4-36.4-5.4c-0.7,0.4-1.4,0.9-2,1.3c-3.3,2.3-6.1,5.3-8.1,8.8
				l0,0c-0.5,0.9-1,1.9-1.5,2.8c-0.1,0.2-0.1,0.3-0.2,0.5c-0.5,1.2-1,2.4-1.4,3.6c-0.6,1.8-0.9,3.7-1.1,5.6v0.3l-0.1,1.1l-0.1,1.2
				l-0.1,1.6l0,0v0.4v0.7l-0.4,7.4l-0.1,2.4v0.9v0.2C198,215.3,198,215.7,198,216.1z"/>
			<path class="st64" d="M193.7,209.1c-0.1,2.7,1.7,5.1,4.3,5.8c0.2,0.1,0.5,0.1,0.7,0.1c0.1,0,0.3,0,0.4,0l1.8,0.1l0.2-3.7v-0.8
				l0.3-6.6l-1.8-0.1c-0.2,0-0.3,0-0.5,0l0,0c-0.2,0-0.4,0-0.7,0.1l0,0C195.9,204.3,193.8,206.4,193.7,209.1L193.7,209.1z"/>
			<path class="st21" d="M198,214.9L198,214.9c0,0.4,0,0.8,0,1.2c0,0.3,0,0.6,0,1c0,0.1,0,0.2,0,0.3h0.1c0.1,4,1.1,7.9,2.9,11.5
				c0.1,0.2,0.2,0.4,0.3,0.5c2.9,5.6,7.6,10.2,13.3,12.9l0,0c4.9,3,5.2,2.5,5.2,2.5s2.4-0.3,2.1-0.5c-2-1.3-7.2-6.2-10.4-14.8
				c-1.8-4.6-2.2-12.3-2.1-19.2v-0.5c0-3.1,0.2-6.1,0.3-8.5c0,0,0-0.1,0-0.1c0.2-3.3,0.4-5.4,0.4-5.4c-2.2-4.9-6.2-4.4-10.1-2.3
				c-0.5,1.7-0.9,3.5-1,5.3c0,0.1,0,0.2,0,0.3l0,0v0.3l-0.1,1.1l-0.1,1.2l-0.1,1.6h-0.2v0.7c-2.6,0.3-4.7,2.4-4.8,5.1
				C193.7,211.7,195.4,214.2,198,214.9z"/>
			<path class="st8" d="M247,186.7c0.7,4-1.9,7.8-5.9,8.5c-0.4,0.1-0.8,0.1-1.3,0.1c0,0-28.5,2.1-32.6,11l-3.1,5.6
				c-0.4,0.8-1.3,1.3-2.3,1.2h-0.1c-1.1-0.1-2-1-2.2-2.1c-0.7-5.5-3.9-21.3-3.9-22.5c0-2,1.9-4.3,3.2-5.6c1.4-1.4,3.2-2.1,5.1-2.1
				h35.5C243.1,180.7,246.3,183.2,247,186.7z"/>
			<path class="st34" d="M234.2,228.6h4.5c0.6,0,1.1-0.5,1.1-1.1l0,0c0-0.6-0.5-1.1-1.1-1.1h-4.5c-0.6,0-1.1,0.5-1.1,1.1l0,0
				C233.1,228.1,233.6,228.6,234.2,228.6z"/>
			<path class="st34" d="M234.4,230.5h3.2c0.8,0,1.4-0.6,1.4-1.4l0,0c0-0.8-0.6-1.4-1.4-1.4h-3.2c-0.8,0-1.4,0.6-1.4,1.4l0,0
				C232.9,229.9,233.6,230.5,234.4,230.5z"/>
			<path class="st21" d="M241.3,219.8c0,0-0.3,2.1-3.2,2c-2.6-0.1-2.8-1.9-2.8-1.9L241.3,219.8z"/>
			<circle class="st35" cx="197.1" cy="216.6" r="3.1"/>
			<path class="st8" d="M245,185.5c0,0,8.7-0.3,12.2,10c0,0,2-10.5-12.4-21.3s-39.8-1.8-41.8,2.8c-1.2,2.6-1.8,5.4-1.8,8.2
				L245,185.5z"/>
			<path class="st65" d="M231.9,203.8c-3.3-1.3-7-1-10,0.8"/>
			<path class="st65" d="M252.2,203.1c-3.3-1.3-7-1-10,0.8"/>
			<path class="st23" d="M227.2,213L227.2,213c-0.7,0-1.3-0.6-1.3-1.3v-2.4c0-0.7,0.6-1.3,1.3-1.3l0,0c0.7,0,1.3,0.6,1.3,1.3v2.4
				C228.5,212.4,227.9,213,227.2,213z"/>
			<path class="st23" d="M247.1,213L247.1,213c-0.7,0-1.3-0.6-1.3-1.3v-2.4c0-0.7,0.6-1.3,1.3-1.3l0,0c0.7,0,1.3,0.6,1.3,1.3v2.4
				C248.4,212.4,247.8,213,247.1,213z"/>
			<path class="st66" d="M73.7,533.8v19.6h90.9c5.4,0.2,10-4.1,10.1-9.5c0.2-5.4-4.1-10-9.5-10.1c-0.2,0-0.4,0-0.6,0H73.7z"/>
			<path class="st67" d="M52,533.8v19.6h90.9c5.4,0.2,10-4.1,10.1-9.5c0.2-5.4-4.1-10-9.5-10.1c-0.2,0-0.4,0-0.6,0H52z"/>
			<path class="st17" d="M52,537.1v12.6h88.3c3.5,0,6.3-2.8,6.3-6.3c0-3.5-2.8-6.3-6.3-6.3L52,537.1z"/>
			<path class="st68" d="M70.1,553.5v19.6H161c5.4,0,9.8-4.4,9.8-9.8c0-1.6-0.4-3.2-1.1-4.6c-0.5-0.9-1-1.6-1.7-2.3
				c-1.8-1.8-4.3-2.9-6.9-2.9H70.1z"/>
			<path class="st69" d="M79.5,553.5v5.2h90.2c-0.5-0.9-1-1.6-1.7-2.3c-1.9-1.8-4.4-2.9-7-2.9H79.5z"/>
			<path class="st69" d="M79.5,573.1v-5.2h90.2c-0.5,0.9-1,1.6-1.7,2.3c-1.8,1.8-4.3,2.9-6.9,2.9H79.5z"/>
			<path class="st70" d="M40,553.5v19.6h90.9c5.4,0.2,10-4.1,10.1-9.5c0.2-5.4-4.1-10-9.5-10.1c-0.2,0-0.4,0-0.6,0H40z"/>
			<path class="st17" d="M40,556.9v12.6h88.3c3.5,0,6.3-2.8,6.3-6.3c0-3.5-2.8-6.3-6.3-6.3H40z"/>
			<path class="st28" d="M77.4,487.5h69.7c2.9,0,5.3,2.4,5.3,5.3v13.4c0,2.9-2.4,5.3-5.3,5.3c0,0,0,0,0,0H77.4l0,0V487.5L77.4,487.5
				z"/>
			<path class="st28" d="M52,487.5h69.7c2.9,0,5.3,2.4,5.3,5.3v13.4c0,2.9-2.4,5.3-5.3,5.3c0,0,0,0,0,0H52l0,0V487.5L52,487.5z"/>
			<path class="st17" d="M52,489h67.1c2.5,0,4.6,2,4.6,4.6l0,0v11.9c0,2.5-2.1,4.5-4.6,4.5H52l0,0V489L52,489z"/>
			<path class="st28" d="M80.6,444.9h69.7c2.9,0,5.3,2.4,5.3,5.3v13.4c0,2.9-2.4,5.3-5.3,5.3H80.6l0,0V444.9L80.6,444.9z"/>
			<path class="st28" d="M54.5,444.9h70.4c2.9,0,5.3,2.4,5.3,5.3v13.4c0,2.9-2.4,5.3-5.3,5.3H54.5l0,0V444.9L54.5,444.9z"/>
			<path class="st17" d="M54.5,446.5h67.8c2.5,0,4.6,2,4.6,4.5v11.9c0,2.5-2,4.6-4.6,4.6h0H54.5l0,0V446.5L54.5,446.5z"/>
			<path class="st23" d="M82.4,510.3h69.7c2.9,0,5.3,2.4,5.3,5.3l0,0v13.4c0,2.9-2.4,5.3-5.3,5.3c0,0,0,0,0,0H82.4l0,0V510.3
				L82.4,510.3z"/>
			<path class="st23" d="M57.1,510.3h69.7c2.9,0,5.3,2.4,5.3,5.3l0,0v13.4c0,2.9-2.4,5.3-5.3,5.3c0,0,0,0,0,0H57.1l0,0V510.3
				L57.1,510.3z"/>
			<path class="st17" d="M57.1,511.8h67.1c2.5,0,4.6,2,4.6,4.6l0,0v11.9c0,2.5-2,4.6-4.6,4.6h0H57.1l0,0V511.8L57.1,511.8z"/>
			<path class="st20" d="M76.8,468.6v18.7h80.1c5.2,0,9.4-4.2,9.4-9.4s-4.2-9.4-9.4-9.4c0,0,0,0,0,0H76.8z"/>
			<path class="st24" d="M67.4,468.6v18.7h67.4c5.2,0,9.4-4.2,9.4-9.4c0-5.2-4.2-9.4-9.4-9.4c0,0,0,0,0,0H67.4z"/>
			<path class="st17" d="M67.4,471.8v12h64.8c3.3,0,6-2.7,6-6s-2.7-6-6-6H67.4z"/>
			<line class="st71" x1="54.5" y1="451.5" x2="124.3" y2="451.5"/>
			<line class="st71" x1="54.5" y1="455.5" x2="124.3" y2="455.5"/>
			<line class="st71" x1="54.5" y1="459.5" x2="124.3" y2="459.5"/>
			<line class="st71" x1="54.5" y1="463.5" x2="124.3" y2="463.5"/>
			<line class="st71" x1="52" y1="493.4" x2="121.7" y2="493.4"/>
			<line class="st71" x1="52" y1="497.4" x2="121.7" y2="497.4"/>
			<line class="st71" x1="52" y1="501.4" x2="121.7" y2="501.4"/>
			<line class="st71" x1="52" y1="505.4" x2="121.7" y2="505.4"/>
			<line class="st71" x1="57.2" y1="516.4" x2="127" y2="516.4"/>
			<line class="st71" x1="57.2" y1="520.5" x2="127" y2="520.5"/>
			<line class="st71" x1="57.2" y1="524.5" x2="127" y2="524.5"/>
			<line class="st71" x1="57.2" y1="528.5" x2="127" y2="528.5"/>
		</g>
	</g>
</g>
</svg>
