<?xml version="1.0" encoding="utf-8"?>
<!-- Generator: Adobe Illustrator 21.1.0, SVG Export Plug-In . SVG Version: 6.00 Build 0)  -->
<svg version="1.1" id="Layer_1" xmlns="http://www.w3.org/2000/svg" xmlns:xlink="http://www.w3.org/1999/xlink" x="0px" y="0px"
	 viewBox="0 0 675.1 677" style="enable-background:new 0 0 675.1 677;" xml:space="preserve">
<style type="text/css">
	.st0{fill:#474747;}
	.st1{opacity:0.6;}
	.st2{fill:#F2675D;}
	.st3{fill:#9ACAE6;}
	.st4{fill:#CCCCCC;}
	.st5{fill:#944232;}
	.st6{fill:#252735;}
	.st7{fill:#E2A176;}
	.st8{fill:#0E3B7C;}
	.st9{fill:#ED9311;}
	.st10{fill:#61DAFB;}
	.st11{fill:#F4B382;}
	.st12{fill:#261D17;}
	.st13{fill:#232221;}
	.st14{fill:#FFFFFF;}
	.st15{fill:#434444;}
	.st16{fill:#2B2B2B;}
	.st17{fill:#F0F0F2;}
	.st18{font-family:'Montserrat-Bold';}
	.st19{font-size:30.9428px;}
	.st20{font-size:26.0291px;}
	.st21{fill:#DDEEF2;}
	.st22{fill:#C5C6C7;}
	.st23{fill:#404041;}
	.st24{font-size:26.9417px;}
</style>
<title>SkillIllustration</title>
<animateMotion
	begin="0s"
	dur="40s"
	fill="remove"
	repeatCount="indefinite"
	xlink:href="#cloud1"
>
	<mpath href="#path1"/>
</animateMotion>
<animateMotion
	dur="20s"
	begin="0s"
	fill="remove"
	repeatCount="indefinite"
	xlink:href="#cloud2">
	<mpath href="#path1"/>
	
</animateMotion>
<animateMotion
	begin="0s"
	fill="remove"
	dur="15s"	
	repeatCount="indefinite"
	xlink:href="#cloud3">
	<mpath href="#path1"/>
</animateMotion>
<rect class="st0" width="675.1" height="677"/>
<g class="st1">
	<rect x="49.2" y="39.9" class="st2" width="324.1" height="8.3"/>
	<rect x="49.2" y="60.6" class="st3" width="103.8" height="8.3"/>
	<rect x="49.2" y="81.3" class="st4" width="167.6" height="8.3"/>
	<rect x="127.2" y="101.9" class="st3" width="97.8" height="8.3"/>
	<rect x="127.2" y="122.5" class="st3" width="97.8" height="8.3"/>
	<rect x="195" y="143.4" class="st3" width="95.1" height="8.3"/>
	<rect x="188.1" y="60.6" class="st4" width="177.1" height="8.3"/>
	<rect x="390.5" y="60.6" class="st4" width="84.4" height="8.3"/>
	<rect x="507" y="60.6" class="st4" width="114.3" height="8.3"/>
	<rect x="244.8" y="81.3" class="st3" width="99.6" height="8.3"/>
	<rect x="254.6" y="101.9" class="st4" width="57.1" height="8.3"/>
	<rect x="254.6" y="122.5" class="st4" width="97.8" height="8.3"/>
	<rect x="339.1" y="101.9" class="st4" width="108.6" height="8.3"/>
	<rect x="469.3" y="101.9" class="st4" width="56.9" height="8.3"/>
	<rect x="550.7" y="101.9" class="st4" width="70.6" height="8.3"/>
	<rect x="374.1" y="122.5" class="st4" width="123.4" height="8.3"/>
	<rect x="516" y="122.5" class="st4" width="36.7" height="8.3"/>
	<rect x="317.2" y="143.4" class="st4" width="70.7" height="8.3"/>
	<rect x="127.2" y="184.6" class="st3" width="97.8" height="8.3"/>
	<rect x="127.2" y="205.4" class="st3" width="97.8" height="8.3"/>
	<rect x="254.6" y="184.6" class="st4" width="57.1" height="8.3"/>
	<rect x="254.6" y="205.4" class="st4" width="88" height="8.3"/>
	<rect x="339.1" y="184.6" class="st4" width="83.5" height="8.3"/>
	<rect x="439.2" y="184.6" class="st4" width="43.8" height="8.3"/>
	<rect x="501.9" y="184.6" class="st4" width="54.3" height="8.3"/>
	<rect x="428.4" y="205.4" class="st4" width="97.8" height="8.3"/>
	<rect x="127.2" y="226" class="st3" width="97.8" height="8.3"/>
	<rect x="127.2" y="246.7" class="st3" width="97.8" height="8.3"/>
	<rect x="254.6" y="226" class="st4" width="57.1" height="8.3"/>
	<rect x="254.6" y="246.7" class="st4" width="179" height="8.3"/>
	<rect x="339.1" y="226" class="st4" width="108.6" height="8.3"/>
	<rect x="469.3" y="226" class="st4" width="56.9" height="8.3"/>
	<rect x="550.7" y="226" class="st4" width="70.6" height="8.3"/>
	<rect x="455.6" y="246.7" class="st4" width="100.4" height="8.3"/>
	<rect x="362.3" y="205.4" class="st4" width="41.7" height="8.3"/>
	<rect x="49.2" y="288.1" class="st3" width="103.8" height="8.3"/>
	<rect x="49.2" y="308.8" class="st4" width="167.6" height="8.3"/>
	<rect x="127.2" y="329.4" class="st3" width="97.8" height="8.3"/>
	<rect x="127.2" y="350.2" class="st3" width="97.8" height="8.4"/>
	<rect x="195" y="370.9" class="st3" width="95.1" height="8.3"/>
	<rect x="188.1" y="288.1" class="st4" width="98.3" height="8.3"/>
	<rect x="311.5" y="288.1" class="st4" width="49.6" height="8.3"/>
	<rect x="393.2" y="288.1" class="st4" width="157.8" height="8.3"/>
	<rect x="244.8" y="308.8" class="st3" width="99.6" height="8.3"/>
	<rect x="254.6" y="329.4" class="st4" width="111.4" height="8.3"/>
	<rect x="254.6" y="350.2" class="st4" width="75.9" height="8.4"/>
	<rect x="393.2" y="329.4" class="st4" width="82.7" height="8.3"/>
	<rect x="352.5" y="350.2" class="st4" width="145.2" height="8.4"/>
	<rect x="516" y="350.2" class="st4" width="36.7" height="8.4"/>
	<rect x="317.2" y="370.9" class="st4" width="70.7" height="8.3"/>
	<rect x="403.5" y="370.9" class="st4" width="131.5" height="8.3"/>
	<rect x="554.6" y="370.9" class="st4" width="39.3" height="8.3"/>
	<rect x="127.2" y="412.2" class="st3" width="97.8" height="8.3"/>
	<rect x="127.2" y="432.9" class="st3" width="97.8" height="8.3"/>
	<rect x="254.6" y="412.2" class="st4" width="161" height="8.3"/>
	<rect x="254.6" y="432.9" class="st4" width="88" height="8.3"/>
	<rect x="439.2" y="412.2" class="st4" width="43.8" height="8.3"/>
	<rect x="501.9" y="412.2" class="st4" width="54.3" height="8.3"/>
	<rect x="428.4" y="432.9" class="st4" width="97.8" height="8.3"/>
	<rect x="362.3" y="432.9" class="st4" width="41.7" height="8.3"/>
	<rect x="49.2" y="466.9" class="st3" width="103.8" height="8.3"/>
	<rect x="49.2" y="487.4" class="st4" width="167.6" height="8.3"/>
	<rect x="127.2" y="508.3" class="st3" width="97.8" height="8.3"/>
	<rect x="127.2" y="528.9" class="st3" width="97.8" height="8.3"/>
	<rect x="195" y="549.5" class="st3" width="95.1" height="8.3"/>
	<rect x="188.1" y="466.9" class="st4" width="98.3" height="8.3"/>
	<rect x="311.5" y="466.9" class="st4" width="49.6" height="8.3"/>
	<rect x="393.2" y="466.9" class="st4" width="228" height="8.3"/>
	<rect x="244.8" y="487.4" class="st3" width="99.6" height="8.3"/>
	<rect x="254.6" y="508.3" class="st4" width="111.4" height="8.3"/>
	<rect x="254.6" y="528.9" class="st4" width="75.9" height="8.3"/>
	<rect x="393.2" y="508.3" class="st4" width="82.7" height="8.3"/>
	<rect x="497.7" y="508.3" class="st4" width="50.4" height="8.3"/>
	<rect x="572.6" y="508.3" class="st4" width="48.7" height="8.3"/>
	<rect x="352.5" y="528.9" class="st4" width="145.2" height="8.3"/>
	<rect x="516" y="528.9" class="st4" width="36.7" height="8.3"/>
	<rect x="317.2" y="549.5" class="st4" width="70.7" height="8.3"/>
	<rect x="127.2" y="590.9" class="st3" width="97.8" height="8.3"/>
	<rect x="127.2" y="611.7" class="st3" width="97.8" height="8.3"/>
	<rect x="254.6" y="590.9" class="st4" width="161" height="8.3"/>
	<rect x="254.6" y="611.7" class="st4" width="88" height="8.3"/>
	<rect x="439.2" y="590.9" class="st4" width="43.8" height="8.3"/>
	<rect x="501.9" y="590.9" class="st4" width="54.3" height="8.3"/>
	<rect x="428.4" y="611.7" class="st4" width="97.8" height="8.3"/>
	<rect x="362.3" y="611.7" class="st4" width="41.7" height="8.3"/>
</g>
<path class="st5" d="M404.5,468.2c4.4-0.2,8.7-1.9,13-3c4.9-1.2,9.7-1.2,14.6-2.5c0.1,0,0.1-0.1,0.1-0.2s-0.1-0.1-0.2-0.1
	c-4.7,1-9.4,1-14.1,2.2C413.3,465.7,408.9,466.9,404.5,468.2L404.5,468.2L404.5,468.2z"/>
<path class="st5" d="M407,467.9c-0.2,0.7-0.1,1.4,0.1,2.2c0,0.1,0.1,0.1,0.2,0l0,0c0.1-0.7,0-1.4-0.2-2.1
	C407.2,467.9,407.2,467.9,407,467.9L407,467.9L407,467.9z"/>
<path class="st5" d="M408.5,467.3c-0.2,0.7-0.1,1.7,0.4,2.5c0,0.1,0.1,0.1,0.2,0l0,0c0.1-0.2,0.1-0.6,0-1c-0.1-0.5-0.1-0.9-0.2-1.4
	C408.8,467.3,408.7,467.2,408.5,467.3L408.5,467.3L408.5,467.3z"/>
<path class="st5" d="M410.7,466.8c0.1,0.7,0.2,1.6,0.6,2.4c0,0,0,0,0.1,0l0,0C411.2,468.3,411,467.6,410.7,466.8L410.7,466.8z"/>
<path class="st5" d="M412.4,466.6c0,0.9,0.2,1.7,0.7,2.5c0.1,0.1,0.2,0,0.2,0l0,0c0-0.9-0.1-1.7-0.6-2.5c0-0.1-0.2-0.1-0.4-0.1
	C412.5,466.3,412.4,466.4,412.4,466.6z"/>
<path class="st5" d="M414.1,465.9c0,0.5,0,1,0.2,1.6c0.1,0.5,0.4,0.9,0.7,1.2c0.1,0,0.1,0,0.2,0c0,0,0,0,0-0.1c0-0.5-0.1-1-0.2-1.6
	c-0.1-0.5-0.2-0.9-0.5-1.2c-0.1-0.1-0.2-0.1-0.2,0C414.1,465.8,414.1,465.8,414.1,465.9L414.1,465.9z"/>
<path class="st5" d="M415.8,465.6c0,0.5,0.1,1,0.4,1.4c0.1,0.4,0.1,0.9,0.5,1.1c0.1,0.1,0.2,0.1,0.2,0c0,0,0,0,0-0.1
	c0.1-0.5,0-0.9-0.2-1.4c-0.1-0.5-0.4-0.9-0.6-1.2C415.9,465.3,415.9,465.3,415.8,465.6C415.8,465.4,415.8,465.4,415.8,465.6
	L415.8,465.6z"/>
<path class="st5" d="M417.9,465.2c-0.1,0.5-0.1,1,0,1.4c0,0.5,0.2,1.1,0.6,1.6c0,0.1,0.1,0.1,0.2,0c0,0,0,0,0-0.1
	c0.1-0.5,0-1-0.2-1.4c-0.1-0.5-0.2-1-0.5-1.6C418,465.1,418,465.1,417.9,465.2C417.9,465.1,417.9,465.1,417.9,465.2L417.9,465.2z"/>
<path class="st5" d="M419.6,464.6c0,0.6,0.1,1.1,0.4,1.9c0.1,0.5,0.2,1,0.6,1.6c0,0.1,0.1,0.1,0.2,0c0,0,0,0,0-0.1
	c0-0.5-0.1-1-0.4-1.6c-0.1-0.5-0.4-1.1-0.6-1.7C419.9,464.3,419.6,464.4,419.6,464.6L419.6,464.6z"/>
<path class="st5" d="M421.4,464.4c0.2,0.9,0.5,1.7,0.9,2.5h0.1l0,0c-0.1-0.9-0.4-1.9-0.7-2.6C421.5,464.3,421.3,464.4,421.4,464.4
	L421.4,464.4z"/>
<path class="st5" d="M422.9,464.2c0,0.5,0,1,0.2,1.4c0.1,0.5,0.4,0.9,0.6,1.4c0,0,0.1,0.1,0.1,0l0,0c0.1-1-0.1-2.1-0.9-2.9
	C423.1,464.2,423,464.2,422.9,464.2L422.9,464.2z"/>
<path class="st5" d="M424.9,464.1c0.2,0.9,0.6,1.9,1.1,2.6c0,0.1,0.1,0,0.1,0c-0.2-0.9-0.6-1.9-1.1-2.6
	C425,463.9,424.9,463.9,424.9,464.1C424.9,463.9,424.7,464.1,424.9,464.1L424.9,464.1z"/>
<path class="st5" d="M426.2,463.8c0.1,0.5,0.2,1,0.4,1.6c0.1,0.4,0.2,0.7,0.5,1.1c0,0,0.1,0.1,0.2,0l0,0c0.4-0.9-0.4-2.1-0.9-2.9
	C426.5,463.7,426.4,463.7,426.2,463.8C426.2,463.7,426.2,463.7,426.2,463.8L426.2,463.8z"/>
<path class="st5" d="M427.9,463.6c0,0.9,0.2,1.9,0.9,2.5c0.1,0,0.1,0,0.2,0V466c0-0.4-0.1-0.9-0.4-1.2c-0.1-0.4-0.4-0.7-0.5-1.1
	C428.1,463.4,428,463.4,427.9,463.6C428,463.4,427.9,463.4,427.9,463.6L427.9,463.6z"/>
<path class="st5" d="M429.2,463.2c0.1,0.5,0.2,1,0.4,1.6c0.1,0.5,0,0.9,0.4,1.2c0.2-0.4,0-0.9-0.1-1.2
	C429.7,464.1,429.5,463.6,429.2,463.2C429.2,463.1,429.1,463.1,429.2,463.2L429.2,463.2z"/>
<path class="st5" d="M431.1,463.1c-0.2,1-0.1,2.1,0.4,3c0,0.1,0.1,0.1,0.2,0.1c0,0,0,0,0.1-0.1c0.1-0.5,0.1-1,0-1.4
	c-0.1-0.5-0.2-1-0.4-1.6C431.5,463,431.2,463.1,431.1,463.1L431.1,463.1z"/>
<path class="st5" d="M248.2,462.8c-0.2,0.4-0.4,0.9-0.5,1.2c-0.2,0.4-0.4,0.9-0.4,1.4c0,0.1,0,0.1,0.1,0.1h0.1
	c0.2-0.4,0.5-0.9,0.6-1.4S248.3,463.2,248.2,462.8C248.3,462.7,248.3,462.7,248.2,462.8C248.3,462.8,248.3,462.8,248.2,462.8
	L248.2,462.8z"/>
<path class="st5" d="M250.2,463.4c-0.1,0.5-0.2,1-0.2,1.6c-0.1,0.4-0.2,0.7,0,1.1c0.1,0.1,0.2,0.1,0.2,0.1l0,0
	c0.4-0.2,0.4-0.7,0.4-1.2c0.1-0.5,0.1-1,0-1.6c0-0.1-0.1-0.1-0.2-0.1S250.2,463.3,250.2,463.4L250.2,463.4z"/>
<path class="st5" d="M252.6,463.7c-0.1,0.5-0.1,1-0.1,1.4c-0.1,0.5-0.4,1-0.2,1.6c0,0.1,0.2,0.2,0.4,0.2c0,0,0,0,0.1,0
	c0.5-0.4,0.5-1.2,0.6-1.9c0.1-0.5,0.1-1.2-0.4-1.4C252.7,463.6,252.6,463.7,252.6,463.7L252.6,463.7z"/>
<path class="st5" d="M254.7,464.2c0,0.5,0,1,0,1.6c0,0.5-0.2,1,0,1.4c0.1,0,0.1,0,0.2,0c0.5-0.2,0.4-1.1,0.4-1.7
	C255.3,465,255.3,464.4,254.7,464.2C254.8,464.2,254.8,464.2,254.7,464.2C254.7,464.2,254.7,464.3,254.7,464.2L254.7,464.2z"/>
<path class="st5" d="M257.9,465.1c-0.2,0.4-0.4,0.7-0.4,1.1s-0.2,0.9,0,1.1c0.1,0.1,0.2,0.1,0.2,0.1c0.4-0.2,0.4-0.5,0.4-0.9
	c0.1-0.5,0.1-0.9,0-1.4C258.2,465.1,258,464.9,257.9,465.1C257.9,464.9,257.9,465.1,257.9,465.1L257.9,465.1z"/>
<path class="st5" d="M260,465.1c-0.1,0.5-0.1,1-0.2,1.6c-0.1,0.5-0.2,0.9-0.2,1.4c0,0.1,0.1,0.2,0.2,0.2s0.2-0.1,0.2-0.2
	c0.4-0.9,0.5-2,0.5-3C260.4,464.9,260,464.7,260,465.1L260,465.1z"/>
<path class="st5" d="M263,465.1c-0.4,1.1-0.6,2.4-0.7,3.5c0,0.4,0.6,0.5,0.7,0.1c0.2-1.1,0.4-2.4,0.2-3.5
	C263.3,465.1,263.2,464.9,263,465.1L263,465.1L263,465.1z"/>
<path class="st5" d="M265.5,465.8c-0.1,0.5-0.2,1-0.2,1.6c-0.1,0.5-0.1,1,0,1.6c0,0.1,0.1,0.1,0.2,0c0.2-0.4,0.4-0.9,0.2-1.4
	c0-0.6,0-1.1-0.1-1.9C265.8,465.7,265.8,465.7,265.5,465.8C265.5,465.7,265.5,465.7,265.5,465.8L265.5,465.8z"/>
<path class="st5" d="M267.9,466.3c-0.1,0.6-0.2,1.2-0.4,2c-0.1,0.5-0.2,1-0.1,1.6c0,0.1,0.1,0.1,0.2,0.1c0,0,0,0,0.1,0
	c0.6-1,0.9-2.4,0.5-3.6C268.1,466.3,268.1,466.3,267.9,466.3C268,466.3,267.9,466.3,267.9,466.3L267.9,466.3z"/>
<path class="st5" d="M269.9,466.8c-0.1,0.5-0.1,1-0.1,1.6c-0.1,0.5-0.1,1-0.1,1.6c0,0.1,0.1,0.1,0.2,0.1l0,0
	c0.4-0.4,0.5-0.9,0.5-1.4c0-0.6,0-1.1-0.1-1.9C270.3,466.8,270.1,466.8,269.9,466.8C270,466.7,269.9,466.8,269.9,466.8L269.9,466.8z
	"/>
<path class="st5" d="M272.4,467.4c-0.1,0.5-0.2,1-0.4,1.6c-0.1,0.4-0.1,0.9-0.1,1.2c0,0.1,0.1,0.1,0.2,0.1l0,0
	c0.7-0.5,0.6-2.1,0.6-2.9c0-0.1-0.1-0.2-0.2-0.2S272.4,467.4,272.4,467.4L272.4,467.4z"/>
<path class="st5" d="M245.8,462.6c4.4,1,9.1,1.9,13.6,2.6c4.7,0.7,9.4,1,14,2.6c0.4,0.1,0.5-0.4,0.1-0.5c-4.9-1.9-10-2.1-15-3
	C254.6,463.4,249.9,461.6,245.8,462.6L245.8,462.6z"/>
<path class="st6" d="M391.6,388.9c-17.1-3.9-34.3-6-51.7-6.1c-17.6,0.2-34.9,2.2-52,6.1c-8,1.9-14.2,10.1-14.2,18.2v132h132v-132
	C405.7,399,399.4,390.5,391.6,388.9"/>
<path class="st7" d="M400.8,487.5c-11.6-7.1-50.9-6.5-63.5-1.2c-0.2,0-0.5-0.1-0.7-0.1c-17.3,0.6-38.9,0.5-55,9.1
	c2.6-7.7,3.1-26.9,1.2-27.7c-6.9-2.5-14.5-2.6-21.4-4.5c-5-1.4-11.3-2.5-15.1,2.1c-1.1,1.7-1.9,3.7-2,5.9c-0.6,4.7-1.6,9.2-2.4,14
	c-1.6,9.2-2.5,18.6-3,27.9c0,0.1,0,0.4,0,0.5c0,0.2,0,0.5,0,0.7c2.9,22.6,51.6,7.9,52,7.7c26.2-8.6,52.1-17.8,79.5-21.6
	c0.1,0,0.2,0.1,0.4,0.1c3.6,0.6,31.2,1.2,33.2-3C406,493.5,404.3,489.6,400.8,487.5z"/>
<path class="st7" d="M338,486.3c-2.5-0.9-18.1-2.9-20.6-3.4c-0.2-0.5-23.9-1.1-33.4,2.7c-1.2,0.5-2.1,2-1.7,3.4l-4.1,7.4l42.6-7
	l-0.2-0.2c1,0.2,15.1,2,16,2.4C339.8,492.4,341.1,487.4,338,486.3z"/>
<path class="st8" d="M407.9,398c-2.6-3.1-6-5.5-9.7-7c-3.5-1.4-7.5-2-11.3-1.1c-1.6,0.2-3.1,0.9-4.4,1.9c-1.1,0.7-2.2,1.7-3,2.9
	c-1.4,2.1-2.2,4.7-2.2,7.2c0,5.2,4,24.1,5.1,25.8c2.7,5.2,5,10.8,6.6,16.3c2.1,6.6,3.7,13.8,4.9,19.2c1,5.5,1.7,9.1,1.7,9.1
	l37.3-6.5c0,0-0.6-4-2-10.2s-3.1-14.3-5.7-22.7c-2.5-8.2-5.7-16-9.7-23.6c-1.6-2.9-3.2-5.5-5.2-8.1c-0.6-1-1.4-1.9-1.9-2.4
	L407.9,398"/>
<path class="st8" d="M300.9,401.6c0-2.6-0.7-5.1-2.2-7.2c-0.7-1.1-1.9-2.1-3-2.9c-1.2-0.9-2.9-1.4-4.4-1.9
	c-3.7-0.6-7.7-0.2-11.3,1.1c-3.7,1.6-7.1,3.9-9.7,7l-0.6,0.7c-0.4,0.5-1.1,1.2-1.9,2.4c-2,2.6-3.6,5.4-5.2,8.1
	c-4,7.5-7.2,15.5-9.6,23.7c-2.6,8.4-4.4,16.6-5.7,22.7c-1.4,6.1-2,10.2-2,10.2l39.9,6.5c0,0,0.1-3.2,0.4-9.1
	c0.4-6.5,1.6-13,3.5-19.1C291.2,437.4,300.9,406.7,300.9,401.6z"/>
<path class="st8" d="M306.4,385.1c-4.2,7.5,2.4,16.1,8.2,20.6c7.2,5.5,15.8,8.9,24.8,9.6c8.7,0.6,16.6-2.7,23.3-8.2
	c5.9-4.9,13.1-13.1,11.1-21.4c-0.2-0.7-1.4-0.5-1.2,0.4c1.2,8.7-5.9,16.3-12.3,21.3c-5.7,4.5-13,6.9-20.3,6.6
	c-8-0.6-15.5-3.4-22.1-7.7c-3.5-2.1-6.5-5-8.7-8.4c-2.6-4-2.9-8-2.1-12.5C306.9,385,306.5,384.8,306.4,385.1L306.4,385.1z"/>
<path class="st8" d="M306.3,388.4c1.2,0.2,2.7-0.1,3.9-0.7c0.1-0.1,0.1-0.2,0-0.2l-0.1-0.1c-0.6,0-1.1,0.1-1.7,0.4
	c-0.6,0.2-1.2,0.4-2.1,0.4C306,388,306,388.4,306.3,388.4L306.3,388.4z"/>
<path class="st8" d="M306.5,392c0.7,0,1.4,0,2.2-0.2c0.7-0.1,1.4-0.4,2.1-0.7c0.1,0,0.1-0.1,0.1-0.2l-0.1-0.1
	c-0.6,0-1.4,0.1-2.1,0.4c-0.7,0.2-1.4,0.5-2.2,0.7c0,0-0.1,0-0.1,0.1C306.3,391.9,306.4,392,306.5,392L306.5,392z"/>
<path class="st8" d="M307,394.9c0.7,0.1,1.4-0.1,2.1-0.4c0.7-0.2,1.6-0.7,2.2-1.2c0.1-0.1,0-0.4-0.1-0.4c-0.6,0.1-1.2,0.4-2,0.7
	c-0.6,0.4-1.6,0.6-2.2,1c-0.1,0-0.1,0.1-0.1,0.2C306.9,394.9,306.9,394.9,307,394.9L307,394.9z"/>
<path class="st8" d="M309.3,397.6c0.6-0.2,1.2-0.5,2-0.9c0.6-0.2,1.1-0.7,1.6-1.2c0.1-0.1,0-0.2-0.1-0.4h-0.1
	c-0.6,0.2-1.2,0.5-2,0.9c-0.6,0.4-1.1,0.7-1.7,1.1c-0.1,0.1-0.1,0.4,0,0.5C309.2,397.6,309.3,397.9,309.3,397.6L309.3,397.6z"/>
<path class="st8" d="M310.9,401.1c0.9-0.6,1.7-1.1,2.6-1.9c0.7-0.5,1.6-1,2.1-1.7c0.1-0.1-0.1-0.4-0.2-0.2c-0.9,0.4-1.6,0.9-2.4,1.4
	c-0.7,0.6-1.6,1.4-2.4,2.2C310.7,401,310.8,401.1,310.9,401.1L310.9,401.1z"/>
<path class="st8" d="M313.4,403.5c0.9-0.5,1.7-1.1,2.6-1.9c0.7-0.5,1.4-1,1.9-1.9c0-0.1,0-0.1,0-0.2h-0.1c-0.7,0.5-1.6,1-2.2,1.6
	c-0.7,0.6-1.6,1.2-2.2,2C313,403.4,313.2,403.6,313.4,403.5L313.4,403.5z"/>
<path class="st8" d="M316,405.3c0.7-0.4,1.4-0.9,2.1-1.6c0.6-0.6,1.2-1.2,1.6-2.1c0-0.1,0-0.2-0.2-0.2h-0.1c-0.6,0.6-1.2,1.2-1.9,2
	C316.8,404,316.4,404.6,316,405.3L316,405.3L316,405.3L316,405.3z"/>
<circle class="st9" cx="340.3" cy="448.2" r="4.5"/>
<path class="st10" d="M340.3,464.9c3.6,3.5,7.1,5.5,9.8,5.5c0.9,0,1.9-0.1,2.6-0.6c2.6-1.4,3.5-5.2,2.6-10.3
	c-0.1-0.9-0.4-1.9-0.6-2.9c1-0.2,1.9-0.6,2.7-0.9c5-2,7.7-4.5,7.7-7.4s-2.7-5.6-7.7-7.4c-0.9-0.4-1.9-0.6-2.7-0.9
	c0.2-1,0.4-2,0.6-2.9c0.7-5.4-0.1-9.1-2.6-10.5c-0.7-0.4-1.7-0.6-2.6-0.6c-2.7,0-6.4,2.1-9.8,5.5c-3.5-3.5-7-5.5-9.8-5.5
	c-0.9,0-1.9,0.1-2.6,0.6c-2.6,1.4-3.5,5.2-2.6,10.3c0.1,0.9,0.4,1.9,0.6,2.9c-1,0.2-1.9,0.6-2.7,0.9c-5,2-7.7,4.5-7.7,7.4
	s2.7,5.6,7.7,7.4c0.9,0.4,1.9,0.6,2.7,0.9c-0.2,1-0.4,2-0.6,2.9c-0.7,5.2,0.1,9,2.6,10.3c0.7,0.4,1.7,0.6,2.6,0.6
	C333.2,470.4,336.7,468.4,340.3,464.9L340.3,464.9z M337.5,458.3c0.9,0,1.9,0,2.7,0c0.9,0,1.9,0,2.7,0c-0.9,1.1-1.9,2.2-2.7,3.2
	C339.3,460.6,338.3,459.6,337.5,458.3L337.5,458.3z M331.5,453.4c0.5,0.7,0.9,1.6,1.4,2.4c-1.6-0.1-3-0.4-4.2-0.7
	c0.4-1.2,0.9-2.7,1.6-4C330.6,451.6,331,452.5,331.5,453.4L331.5,453.4z M328.6,441.5c1.2-0.2,2.7-0.5,4.2-0.7
	c-0.5,0.7-1,1.6-1.4,2.4c-0.4,0.7-0.9,1.6-1.2,2.5C329.5,444.4,329,442.9,328.6,441.5L328.6,441.5z M331.4,448.2
	c0.6-1.2,1.2-2.6,2.1-3.9c0.7-1.2,1.6-2.6,2.4-3.7c1.4-0.1,3-0.1,4.4-0.1s3,0,4.4,0.1c0.9,1.2,1.7,2.6,2.4,3.7
	c0.6,1.1,1.4,2.6,2.1,3.9c-0.6,1.2-1.2,2.6-2.1,3.9c-0.9,1.2-1.6,2.6-2.4,3.7c-1.4,0.1-3,0.1-4.4,0.1s-3,0-4.4-0.1
	c-0.9-1.2-1.7-2.6-2.4-3.7C332.9,451,332,449.6,331.4,448.2L331.4,448.2z M350.4,445.6l-1.2-2.5c-0.5-0.7-0.9-1.6-1.4-2.4
	c1.6,0.1,3,0.4,4.2,0.7C351.6,442.8,350.9,444.2,350.4,445.6L350.4,445.6z M350.4,450.9c0.6,1.2,1,2.7,1.6,4
	c-1.2,0.2-2.7,0.5-4.2,0.7c0.5-0.7,1-1.6,1.4-2.4C349.6,452.5,349.9,451.6,350.4,450.9L350.4,450.9z M351.6,467.9
	c-0.4,0.2-0.9,0.4-1.4,0.4c-2.4,0-5.4-2-8.4-5c1.6-1.6,2.9-3.4,4.1-5.2c2.2-0.1,4.4-0.5,6.5-1c0.2,0.9,0.4,1.7,0.5,2.6
	C353.7,463.9,353.2,466.8,351.6,467.9z M354.2,442.1c5.5,1.6,8.7,3.9,8.7,6.1c0,2-2.2,3.7-6.2,5.4c-0.7,0.2-1.7,0.6-2.6,0.7
	c-0.6-2.1-1.4-4.1-2.4-6.1C352.7,446.2,353.4,444.2,354.2,442.1L354.2,442.1z M350.2,428.4c0.5,0,1,0.1,1.4,0.4
	c1.6,0.9,2.2,3.9,1.6,8.1c-0.1,0.7-0.4,1.7-0.5,2.6c-2.2-0.4-4.2-0.7-6.5-1c-1.2-1.9-2.6-3.5-4.1-5.2
	C344.7,430.3,347.7,428.3,350.2,428.4L350.2,428.4z M343.1,438.1c-0.9,0-1.9,0-2.7,0c-0.9,0-1.9,0-2.7,0c0.9-1.1,1.9-2.2,2.7-3.2
	C341.2,435.9,342.2,436.9,343.1,438.1L343.1,438.1z M329,428.7c0.4-0.2,0.9-0.4,1.4-0.4c2.4,0,5.4,2,8.4,5c-1.6,1.6-2.9,3.4-4.1,5.2
	c-2.2,0.1-4.4,0.5-6.5,1c-0.2-0.9-0.4-1.7-0.5-2.6C326.9,432.5,327.4,429.5,329,428.7L329,428.7z M326.4,454.5
	c-5.5-1.6-8.7-3.9-8.7-6.1c0-2,2.2-3.7,6.2-5.4c0.7-0.2,1.7-0.6,2.6-0.7c0.6,2.1,1.4,4.1,2.4,6.1
	C327.9,450.2,327.1,452.2,326.4,454.5L326.4,454.5z M327.5,459.8c0.1-0.7,0.4-1.7,0.5-2.6c2.2,0.4,4.2,0.7,6.5,1
	c1.2,1.9,2.6,3.5,4.1,5.2c-3,2.9-5.9,5-8.4,5c-0.5,0-1-0.1-1.4-0.4C327.4,466.8,326.9,463.9,327.5,459.8L327.5,459.8z"/>
<path class="st8" d="M319.4,407.6c0.6-0.6,1.1-1.2,1.7-2.1c0.6-0.7,1.1-1.6,1.4-2.5c0-0.1,0-0.2-0.1-0.2s-0.1,0-0.2,0.1
	c-0.6,0.7-1.2,1.4-1.9,2.4c-0.6,0.6-1,1.6-1.2,2.4c0,0.1,0,0.1,0,0.1C319.3,407.6,319.4,407.6,319.4,407.6L319.4,407.6z"/>
<path class="st8" d="M323.1,409.1c0.5-0.7,0.9-1.7,1.2-2.5c0.4-0.6,0.6-1.4,0.7-2.1c0-0.1-0.2-0.2-0.4-0.1c-0.5,0.6-1,1.4-1.2,2.4
	c-0.4,0.7-0.6,1.6-0.6,2.4C322.9,409.1,323,409.2,323.1,409.1C323.1,409.2,323.1,409.2,323.1,409.1L323.1,409.1z"/>
<path class="st8" d="M326.9,411c0.5-0.5,0.9-1.1,1-2c0.4-0.9,0.6-1.9,0.7-2.7c0-0.2-0.4-0.2-0.4-0.1c-0.4,0.7-0.6,1.6-0.9,2.4
	c-0.4,0.7-0.5,1.6-0.6,2.4C326.5,411,326.7,411.1,326.9,411L326.9,411z"/>
<path class="st8" d="M331.1,412c0.2-0.7,0.5-1.9,0.6-2.6c0.4-0.7,0.5-1.6,0.5-2.5c0-0.1-0.1-0.2-0.2-0.2s-0.1,0-0.1,0.1
	c-0.5,0.7-0.7,1.7-0.9,2.7c-0.2,0.7-0.2,1.7-0.1,2.5C331,412.1,331,412.1,331.1,412C331.1,412.1,331.1,412,331.1,412L331.1,412z"/>
<path class="st8" d="M335.5,413.6c0.5-2.2,0.4-4.5-0.1-6.7c0-0.1-0.1-0.1-0.2-0.1c0,0-0.1,0-0.1,0.1c0,1.1,0,2.5,0,3.6
	c0,1,0,2.1,0.1,3.1C335.2,413.6,335.3,413.6,335.5,413.6L335.5,413.6L335.5,413.6z"/>
<path class="st8" d="M340.5,413.8c0.1-0.9,0.2-1.9,0.2-2.7c0.1-0.9,0-2-0.1-2.9c0-0.1-0.1-0.2-0.2-0.2s-0.1,0.1-0.2,0.2
	c-0.2,0.9-0.2,2-0.1,2.9c0,0.9,0,1.9,0.2,2.7c0,0.1,0.1,0.1,0.2,0.1C340.5,414,340.5,414,340.5,413.8L340.5,413.8z"/>
<path class="st8" d="M344.8,414c0.1-2.4-0.1-4.5-0.9-6.7c0-0.1-0.1-0.2-0.2-0.1c-0.1,0-0.1,0.1-0.1,0.1c-0.5,2.2,0.6,4.5,1,6.7
	C344.4,414.2,344.7,414.2,344.8,414L344.8,414z"/>
<path class="st8" d="M351.3,411.3c-0.2-1-0.6-2-1.1-3c-0.2-0.9-0.6-1.7-1.2-2.4c-0.1-0.1-0.6,0-0.5,0.2c0.1,0.9,0.5,2,0.9,2.7
	c0.2,0.9,0.7,1.9,1.2,2.6c0.1,0.1,0.4,0.2,0.5,0.1C351.2,411.7,351.3,411.5,351.3,411.3L351.3,411.3z"/>
<path class="st8" d="M355.3,410.8c-0.2-1-0.7-2-1.6-2.9c-0.6-1-1.1-2.1-2-3.1c-0.1-0.1-0.2-0.1-0.4-0.1c-0.1,0-0.1,0.1-0.1,0.2
	c0,2.2,2.2,4.7,3.7,6h0.1C355.3,411,355.4,410.8,355.3,410.8L355.3,410.8z"/>
<path class="st8" d="M359.8,407.5c-0.4-0.7-0.9-1.6-1.2-2.4c-0.4-0.7-0.9-1.4-1.4-2c-0.1-0.1-0.2,0-0.4,0v0.1
	c0.5,1.7,1.4,3.2,2.9,4.4C359.7,408,359.9,407.7,359.8,407.5L359.8,407.5z"/>
<path class="st8" d="M362.8,405.6c-0.2-0.7-0.7-1.6-1.2-2.1c-0.4-0.6-1-1.2-1.7-1.7c-0.1-0.1-0.2-0.1-0.2,0c-0.1,0.1-0.1,0.2,0,0.2
	c0.4,0.7,0.9,1.6,1.6,2.4c0.4,0.6,0.9,1.1,1.6,1.6C362.7,406,362.8,405.7,362.8,405.6L362.8,405.6z"/>
<path class="st8" d="M365.3,403.4c-0.1-0.7-0.5-1.6-1.1-2.1c-0.6-0.9-1.4-1.6-2.2-2.2c-0.1-0.1-0.2,0-0.4,0.1c0,0,0,0.1,0,0.2
	c0.4,0.9,1,1.7,1.7,2.4c0.5,0.6,1.1,1.1,1.9,1.9C365.1,403.5,365.3,403.5,365.3,403.4L365.3,403.4z"/>
<path class="st8" d="M368.4,400c-0.2-0.7-0.6-1.4-1.2-2c-0.5-0.6-1.2-1-2-1.4c-0.2-0.1-0.4,0.2-0.2,0.4c0.4,0.6,1,1.1,1.7,1.7
	C367.1,399.2,367.8,399.7,368.4,400c0.1,0.1,0.2,0.1,0.4,0.1C368.4,400.1,368.4,400.1,368.4,400L368.4,400z"/>
<path class="st8" d="M370.3,396.4c-0.4-0.2-0.6-0.4-1-0.5c-0.5-0.2-0.9-0.5-1.2-0.9c-0.6-0.5-1.2-1-2-1.6c-0.1-0.1-0.2,0-0.4,0.1
	c0,0.1,0,0.1,0,0.2c0.5,0.9,1.1,1.7,2,2.2c0.6,0.5,1.9,1.1,2.6,0.7C370.3,396.7,370.4,396.6,370.3,396.4L370.3,396.4L370.3,396.4z"
	/>
<path class="st8" d="M371.9,394.1c-1.2-1.2-3-2.4-4.9-2.9c-0.1,0-0.2,0.1-0.1,0.2c1.1,1.2,3.2,2,4.9,2.7c0.1,0,0.2,0,0.2-0.1
	C371.9,394.3,371.9,394.1,371.9,394.1L371.9,394.1z"/>
<path class="st8" d="M372.7,390.4c-0.7-0.2-1.6-0.5-2.4-0.7c-0.6-0.4-1.4-0.5-2.2-0.6c-0.2,0-0.4,0.2-0.1,0.5
	c0.6,0.4,1.4,0.7,2.2,0.9c0.7,0.2,1.7,0.4,2.6,0.4c0.1,0,0.1-0.1,0.1-0.2C372.9,390.4,372.7,390.4,372.7,390.4L372.7,390.4z"/>
<path class="st8" d="M369.3,386.6c0.6,1,2.6,1,3.6,1c0.1,0,0.2-0.1,0.2-0.2s0-0.1-0.1-0.1c-1.1-0.5-2.5-0.7-3.6-0.6
	C369.3,386.5,369.1,386.6,369.3,386.6C369.1,386.6,369.3,386.6,369.3,386.6L369.3,386.6z"/>
<path class="st7" d="M367.3,369.9l2,17.8c0,0-5,19.6-28.4,19.6s-28.4-19.6-28.4-19.6l2-17.8H367.3z"/>
<g>
	<path class="st7" d="M370.8,349.5h-59.5c1.7,7.7,2.9,17.3,2,28.4c-0.2,3.4-0.7,6.5-1.2,9.4l20.6,12.2h16.8l20.6-12.2l0,0
		c-2-17.1-1.9-21.7-1.9-21.7C368.3,361.7,368.8,356.2,370.8,349.5z"/>
	<path class="st11" d="M340.5,193.3c-15,0-28.7,2.9-39.4,11.3c-20.9,16.6-22.2,44.8-23.1,69.1c-0.9,25.1-1.9,56.6,20.9,76.8
		c16.6,14.7,37.3,15.7,41.6,15.8c4.9,0.1,24.8,0.4,41-12.6c23.9-19.1,22.6-53.2,21.4-80c-1.1-25.3-2.5-52.9-23.1-69.1
		C369.1,196.1,355.4,193.3,340.5,193.3z"/>
	<g>
		<path class="st11" d="M277.2,278.2c-5.9,1-10.3,3.5-7,22.9c3.4,19.5,7.5,20.3,13.3,19.3L277.2,278.2z"/>
		<path class="st11" d="M403,277.5l-6.4,42.3c5.9,1,10,0.1,13.3-19.3C413.4,281,408.9,278.5,403,277.5z"/>
	</g>
	<g>
		<path class="st12" d="M412.4,258.1c0,0,5.6-11-8.7-20.6c0,0,7.2-1.4,8.2,1.9c0,0-3.6-17.7-14.5-22.4c0,0,4.6-1.4,10.8,4.9
			c0,0-2.5-13.3-18.1-17.7c0,0,3.1-1.4,8.2,1c0,0-4.1-8.6-17-11.5c0,0-1.1-4.4,4.6-3.9c0,0-11.3-5.2-22.2-5.7c0,0,3.6-7.6,9.7-7.6
			c0,0-15-4.4-25.3,1.4c0,0-5.6-2.4-2-4.4c0,0-27.8-1-29.4,13.8c0,0-7.7-0.5-14.5-3.9c0,0-6.7,4.9-0.5,10.6c0,0-16,0.5-23.2,12
			c0,0,3.6-1.4,8.2-1c0,0-12.3,6.2-14,16.7c0,0,3.6-1.4,7.7-1c0,0-7.2,4.4-10.3,12.8c0,0,3.1-1,7.7-1.4c0,0-16,12.5-16,30.2
			c0,0,6.1-9.6,9.7-9.6c0,0-2,15.3,2,32.5c0,0,2.5-8.1,5.1-7.6c0,0-0.5,13.3,7.7,22.4c0,0,0-31,5.6-31.5c0,0,3.1,4.4,6.7,7.1
			c0,0-6.7-37.8,9.7-40.6c0,0,5.1,28.3,25.3,32c0,0-6.7-20.1-6.1-27.8c0,0,21.7,10.1,28.4,30.2c0,0,2.5-11-1.1-27.8
			c0,0,10.8,5.7,9.7,24.8c0,0,8.2-3.4,8.7-14.3c0,0,6.7,10.6,3.6,21.6c0,0,1.5,2.4,4.6-2.9c0,0,12.6,6.1,11.8,26.3
			c0,0,13.1-16.6,9.1-33.5c0,0,3.7,9.1,3.2,15.3c0,0,3.4-13.8-0.2-30.2C406.2,249,410.9,252.9,412.4,258.1z"/>
	</g>
	<path class="st13" d="M323.8,297.2c0.1,3-2.2,5.5-5.1,5.5c-3,0.1-5.5-2.2-5.5-5.1c0-0.1,0-0.2,0-0.4v-2.4c-0.1-3,2.2-5.5,5.1-5.5
		c3-0.1,5.5,2.2,5.5,5.1c0,0.1,0,0.2,0,0.4V297.2z"/>
	<path class="st13" d="M371.3,297.9c0.1,3-2.2,5.5-5.1,5.5c-3,0.1-5.5-2.2-5.5-5.1c0-0.1,0-0.2,0-0.4v-2.4c-0.1-3,2.2-5.5,5.1-5.5
		c3-0.1,5.5,2.2,5.5,5.1c0,0.1,0,0.2,0,0.4V297.9z"/>
	<path class="st14" d="M328.1,348.2c9.4,3.1,19.2,3.1,28.6,0C372,343.1,328.1,348.2,328.1,348.2z"/>
	<ellipse class="st14" cx="320.4" cy="296.8" rx="1.9" ry="3"/>
	<ellipse class="st14" cx="363.6" cy="297.5" rx="1.9" ry="3"/>
	<path class="st15" d="M323.3,284.7c-8.4-1.5-17.1-1.5-25.4,0C297.8,284.7,337,287.3,323.3,284.7z"/>
	<path class="st15" d="M387.7,284.3c-8.4-1.5-17.1-1.5-25.4,0C348.6,286.9,387.7,284.3,387.7,284.3z"/>
</g>
<g>
	<path class="st16" d="M82.3,273.4h144.3c6.8,0,12.4,5.6,12.4,12.4v51.4c0,6.8-5.6,12.4-12.4,12.4H82.3c-6.8,0-12.4-5.6-12.4-12.4
		v-51.4C69.9,278.9,75.5,273.4,82.3,273.4z"/>
	<text transform="matrix(1 0 0 1 101.9077 325.377)" class="st17 st18 st19">HTML5</text>
</g>
<g>
	<path class="st16" d="M450.8,239.1h121.4c5.7,0,10.4,4.7,10.4,10.4v43.3c0,5.7-4.7,10.4-10.4,10.4H450.8c-5.7,0-10.4-4.7-10.4-10.4
		v-43.3C440.4,243.7,445.1,239.1,450.8,239.1z"/>
	<text transform="matrix(1 0 0 1 473.3086 278.7158)" class="st17 st18 st20">CSS3</text>
</g>
<path id="cloud1" class="st21" d="M-179.4,85h2c0-0.4-0.1-0.7,0-1.1c-0.1-17.1,13.6-31.2,30.8-31.3c3.1,0,6.2,0.4,9.1,1.2
	c8.7-25,35.8-38.2,60.8-29.6c18.3,6.3,30.9,23,32.1,42.3c24.1,0.1,43.5,19.8,43.3,43.9c0,0,0,0,0,0.1v1.2
	c0,24.2-18.9,45.9-43.1,45.9h-52.8h-0.5h-0.5h-81c-19.1,0-33.8-17.3-33.8-36.4v-1C-213.2,101.1-198.4,85-179.4,85"/>
<path id="cloud2" class="st21" d="M-186.5,223h1.2c0-0.2,0-0.4,0-0.6c0-10.3,8.2-18.5,18.4-18.6c1.9,0,3.7,0.2,5.5,0.7
	c5.3-14.8,21.6-22.7,36.5-17.3c10.8,3.8,18.1,13.6,19,25c14.5,0.1,26,11.9,25.9,26.3l0,0v0.7c0,14.6-11.3,27.4-25.7,27.4h-80.6
	c-11.4,0-20.3-10.4-20.3-21.8v-0.7C-206.8,232.6-197.9,223-186.5,223"/>
<path class="st7" d="M376.2,491.3c4.1,2,2.6,3.4,0,3.9c-0.5-0.5-1.1-0.7-2-0.6c-22.9,2.6-44.8,9.1-66.5,16.2
	c0-1.9-60.6,26.8-63.6,3.2c0-0.2-0.1-0.4-0.1-0.6c0.1-0.2,0.1-0.5,0.1-0.6c0.6-13.1,3.2-25.7,4.9-38.8c1.1-9.2,8-6.9,14.6-5
	c5.1,1.4,10.2,1.4,15.3,2.7c1.7,9.7-0.9,19.5-5,28.4c-0.7,0.6-3.2,6.7-3.5,7.2c-1.6,3,3,5.6,4.5,2.6c1.1-2.2,2.2-4.4,3.2-6.6
	c15-11.8,38.7-11.6,56.9-12.1c0.7,0.6,1.9,0.6,2.7,0.2c8-3.9,17-4.2,25.6-3.5C367.9,488.4,372.1,489.5,376.2,491.3z"/>
<path class="st7" d="M437.5,501.5c0,0.2,0,0.4-0.1,0.6c0,0.2,0.1,0.4,0.1,0.6c-0.1,46.5-79.8,3.5-101.4,4.5c-0.5,0-1-0.1-1.4-0.4
	c-3.2-0.1-3.2-5.2,0.1-5.2c7.9,0,15.1-0.5,22.3-3.4c6.4-2.5,12.8-4.4,19.5-5.9c5.6-1.1,11.8-2.2,17.5-0.5c3.2,0.9,6.5,2.7,10,2.4
	h0.2c-3.9-6.1-9.5-23.6-7.5-24.7c0.9-0.5,1.9-1.9,3-2.1c2.2-0.6,4.9-0.5,7.1-1c3.9-0.7,7.9-1.4,11.8-2.4c4.1-0.7,9.8-3.7,12.5,0
	c2.5,3.4,3.7,11.1,4.4,14.7C436.8,486.4,437.3,493.9,437.5,501.5z M432.3,501.9c0-0.2-0.1-0.4-0.1-0.6c0-5.2,0-34.7-7.4-33.2
	c-4.7,0.9-9.5,2-14.2,2.9c-3,0.4-6,1-8.9,2c1.4,7.7,3.9,15.2,8.9,21.3h0.4c3.1,0.5,2,5.2-1,5.1c-0.6,0.2-1.2,0.1-2-0.1
	c-3.1-0.1-6.1,0.9-9.1-0.1c-3.2-1.1-6.9-2.7-10.3-2.7c-6.9,0-13.2,1.7-19.7,3.4c-5.5,1.4-10.6,4.1-16.2,5.5
	c29.3,8.4,79.4,27.8,79.4-2.6C432.2,502.2,432.2,502,432.3,501.9z"/>
<path class="st7" d="M435.5,500.5c0,0.2,0,0.4,0.1,0.7c0,0.2-0.1,0.4-0.1,0.7c-0.1,35.3-66.1,12.8-104.6,3.2
	c7.2-1.5,13.8-4.6,21.4-6.4c8.6-2,17-3.9,25.9-4c4.5,0,9.4,1.9,13.6,3.1c3.9,1.1,8.1,0,12,0.1c0.6,0.4,1.7,0.4,2.6,0.1
	c3.9,0.1,5.5-5.2,1.2-6h-0.4c-6.6-7.1-9.7-16-11.7-24.7c3.7-1,7.6-1.9,11.7-2.4c6.2-1,12.5-2.4,18.7-3.4
	C435.5,460.1,435.5,494.4,435.5,500.5z"/>
<path class="st22" d="M211.9,592.5h250c2.1,0,2.6-1.9,1.2-4l-2.5-4.1l-0.2-0.4l-26.9-45.4c-1-1.2-2.7-2-4.4-1.9h-190
	c-1.9,0-3.6,0.7-4.1,1.9L212.5,584l-0.1,0.4l-2.1,4.1C209,590.7,209.8,592.5,211.9,592.5z"/>
<g id="keys">
	<path class="st14" d="M419.3,572.2c-0.2-0.5,0.4-1,1.4-1h10.2c0.9-0.1,1.9,0.2,2.5,1l2.6,5.4c0.2,0.5-0.4,1-1.4,1h-10.5
		c-0.9,0.1-1.9-0.2-2.5-1L419.3,572.2z"/>
	<path class="st14" d="M435,572.2c-0.2-0.5,0.4-1,1.4-1h10.2c0.9,0,1.9,0.2,2.5,1l3,5.4c0.2,0.5-0.2,1-1.4,1h-10.5
		c-0.9,0.1-1.9-0.2-2.5-1L435,572.2z"/>
	<path class="st14" d="M387.7,572.2c-0.1-0.5,0.5-1,1.7-1h10.2c1,0,2.1,0.4,2.4,1l2,5.4c0.1,0.5-0.5,1-1.7,1h-10.5
		c-1.1,0-2.1-0.4-2.4-1L387.7,572.2z"/>
	<path class="st14" d="M403.4,572.2c-0.1-0.5,0.5-1,1.6-1h10.2c0.9-0.1,1.9,0.2,2.4,1l2.2,5.4c0.2,0.5-0.5,1-1.6,1h-10.5
		c-1.1,0-2.2-0.4-2.4-1L403.4,572.2z"/>
	<path class="st14" d="M356,572.2c-0.1-0.5,0.7-1,1.9-1h10.2c1,0,2.1,0.4,2.1,1l1.1,5.4c0.1,0.5-0.6,1-1.9,1H359
		c-1.1,0-2.1-0.4-2.1-1L356,572.2z"/>
	<path class="st14" d="M371.8,572.2c-0.1-0.5,0.6-1,1.7-1h10.2c1,0,2.1,0.4,2.2,1l1.4,5.4c0.1,0.5-0.6,1-1.7,1h-10.5
		c-1.1,0-2.1-0.4-2.2-1L371.8,572.2z"/>
	<path class="st14" d="M324.5,572.2c0-0.5,0.9-1,2-1h10.2c1,0,2,0.4,2,1l0.2,5.4c0,0.5-0.7,1-2,1h-10.5c-1.1,0-2-0.4-2-1
		L324.5,572.2L324.5,572.2z"/>
	<path class="st14" d="M340.3,572.2c0-0.5,0.7-1,1.9-1h10.2c1,0,2,0.4,2.1,1l0.6,5.4c0.1,0.5-0.7,1-1.9,1h-10.5
		c-1.1,0-2.1-0.4-2.1-1L340.3,572.2z"/>
	<path class="st14" d="M308.7,572.2c0-0.5,0.9-1,2-1h10.2c1,0,2,0.4,2,1v5.4c0,0.5-0.9,1-2,1h-10.5c-1.1,0-2-0.4-2-1L308.7,572.2z"
		/>
	<path class="st14" d="M277,572.2c0.1-0.5,1-1,2.2-1h10.2c1,0,1.9,0.4,1.9,1l-0.7,5.4c-0.1,0.5-1,1-2.2,1h-10.5c-1.1,0-2-0.4-1.9-1
		L277,572.2z"/>
	<path class="st14" d="M292.7,572.2c0.1-0.5,1-1,2.1-1H305c1,0,2,0.4,1.9,1l-0.4,5.4c0,0.5-1,1-2.1,1H294c-1.1,0-2-0.4-1.9-1
		L292.7,572.2z"/>
	<path class="st14" d="M245.6,572.2c0.2-0.5,1.2-1,2.4-1h10.2c1,0,1.9,0.4,1.6,1l-1.6,5.4c-0.1,0.5-1.1,1-2.4,1h-10.5
		c-1.1,0-1.9-0.4-1.6-1L245.6,572.2z"/>
	<path class="st14" d="M261.3,572.2c0.1-0.5,1.1-1,2.2-1h10.2c1,0,1.9,0.4,1.7,1l-1.1,5.4c-0.1,0.5-1.1,1-2.2,1h-10.5
		c-1.1,0-1.9-0.4-1.7-1L261.3,572.2z"/>
	<path class="st14" d="M263.5,571h10.2c1.1,0,2,0.5,1.9,1l-1.1,5.4c-0.1,0.6-1.1,1-2.5,1h-10.5c-1.1,0-2.1-0.5-1.9-1l1.6-5.4
		C261.3,571.7,262.3,571,263.5,571z M272,578.4c1,0,2-0.4,2.1-0.9l1.1-5.4c0.1-0.5-0.6-0.9-1.6-0.9h-10.2c-1,0-2,0.4-2.1,0.9
		l-1.6,5.4c-0.1,0.5,0.5,0.9,1.6,0.9H272z"/>
	<path class="st14" d="M297.4,570.6c1,0,1.9-0.4,2-0.9l0.6-5.4c0-0.5-0.6-0.9-1.6-0.9h-9.8c-0.9,0-1.9,0.4-2,0.9l-1,5.4
		c-0.1,0.5,0.6,0.9,1.6,0.9H297.4z"/>
	<path class="st14" d="M255.9,564.3c0.1-0.5,1.1-1,2.2-1h9.8c1,0,1.7,0.4,1.6,1l-1.4,5.4c-0.1,0.5-1.1,1-2.2,1h-10.1
		c-1,0-1.9-0.4-1.6-1L255.9,564.3z"/>
	<path class="st14" d="M271.1,564.3c0.1-0.5,1-1,2.1-1h9.8c1,0,1.9,0.4,1.7,1l-1,5.4c-0.1,0.5-1,1-2.1,1h-10.1c-1,0-1.9-0.4-1.7-1
		L271.1,564.3z"/>
	<path class="st14" d="M225.6,564.3c0.5-0.6,1.4-1,2.4-1h9.8c1,0,1.7,0.4,1.4,1l-2.1,5.4c-0.5,0.6-1.4,1-2.4,1h-10.1
		c-1,0-1.7-0.4-1.4-1L225.6,564.3z"/>
	<path class="st14" d="M240.7,564.3c0.5-0.6,1.4-1,2.4-1h9.8c1,0,1.7,0.4,1.6,1l-1.9,5.4c-0.1,0.5-1.1,1-2.4,1h-10.1
		c-1,0-1.7-0.4-1.6-1L240.7,564.3z"/>
	<path class="st14" d="M362.5,564.3c-0.1-0.5,0.6-1,1.7-1h9.8c1,0,2,0.4,2.1,1l1.2,5.4c0.1,0.5-0.6,1-1.7,1h-10.1c-1,0-2-0.4-2.1-1
		L362.5,564.3z"/>
	<path class="st14" d="M332.1,564.3c0-0.5,0.7-1,1.9-1h9.8c1,0,2,0.4,2,1l0.5,5.4c0,0.5-0.7,1-1.9,1h-10.1c-1,0-2-0.4-2-1
		L332.1,564.3z"/>
	<path class="st14" d="M347.3,564.3c0-0.5,0.7-1,1.9-1h9.8c1,0,2,0.4,2.1,1l0.9,5.4c0.1,0.5-0.6,1-1.9,1H350c-1,0-2-0.4-2.1-1
		L347.3,564.3z"/>
	<path class="st14" d="M408.2,564.3c-0.2-0.5,0.4-1,1.4-1h9.8c0.9-0.1,1.9,0.2,2.4,1l2.5,5.4c0.2,0.5-0.4,1-1.4,1h-10.2
		c-0.9,0.1-1.9-0.2-2.4-1L408.2,564.3z"/>
	<path class="st14" d="M377.6,564.3c-0.1-0.5,0.6-1,1.6-1h9.8c1,0,2,0.4,2.2,1l1.7,5.4c0.1,0.5-0.5,1-1.6,1h-10.1
		c-1,0-2.1-0.4-2.2-1L377.6,564.3z"/>
	<path class="st14" d="M392.8,564.3c-0.1-0.5,0.5-1,1.6-1h9.8c0.9-0.1,1.7,0.2,2.2,1l2.1,5.4c0.2,0.5-0.5,1-1.6,1h-10.1
		c-1,0-2.1-0.4-2.2-1L392.8,564.3z"/>
	<path class="st14" d="M301.7,564.3c0-0.5,0.9-1,2-1h9.8c1,0,1.9,0.4,1.9,1l-0.2,5.4c0,0.5-0.9,1-2,1h-10.1c-1,0-1.9-0.4-1.9-1
		L301.7,564.3z"/>
	<path class="st14" d="M316.9,564.3c0-0.5,0.9-1,2-1h9.8c1,0,1.9,0.4,2,1l0.1,5.4c0,0.5-0.7,1-2,1h-10.1c-1,0-2-0.4-2-1L316.9,564.3
		z"/>
	<path class="st14" d="M284.5,556.3c0.1-0.5,1-1,2-1h9.5c1,0,1.7,0.4,1.7,1l-0.7,5.4c-0.1,0.5-1,1-2,1h-9.7c-1,0-1.9-0.4-1.7-1
		L284.5,556.3z"/>
	<path class="st14" d="M255.2,556.3c0.5-0.6,1.2-1,2.1-1h9.5c1,0,1.7,0.4,1.6,1l-1.6,5.4c-0.1,0.5-1.1,1-2.1,1H255
		c-1,0-1.7-0.4-1.6-1L255.2,556.3z"/>
	<path class="st14" d="M269.8,556.3c0.1-0.5,1-1,2.1-1h9.5c1,0,1.7,0.4,1.6,1l-1.1,5.4c-0.1,0.5-1,1-2.1,1H270c-1,0-1.7-0.4-1.6-1
		L269.8,556.3z"/>
	<path class="st14" d="M357.7,556.3c-0.1-0.5,0.6-1,1.6-1h9.5c1,0,2,0.4,2,1l1.1,5.4c0.1,0.5-0.6,1-1.6,1h-9.7c-1,0-2-0.4-2-1
		L357.7,556.3z"/>
	<path class="st14" d="M328.4,556.3c0-0.5,0.7-1,1.9-1h9.5c1,0,1.9,0.4,1.9,1l0.4,5.4c0,0.5-0.7,1-1.9,1h-9.7c-1,0-1.9-0.4-1.9-1
		L328.4,556.3z"/>
	<path class="st14" d="M343,556.3c0-0.5,0.6-1,1.7-1h9.5c1,0,1.9,0.4,2,1l0.7,5.4c0.1,0.5-0.6,1-1.7,1h-9.7c-1,0-2-0.4-2-1
		L343,556.3z"/>
	<path class="st14" d="M401.4,556.3c-0.2-0.5,0.4-1,1.4-1h9.5c0.9,0,1.7,0.2,2.2,1l2.4,5.4c0.2,0.5-0.4,1-1.4,1h-9.7
		c-0.9,0.1-1.7-0.2-2.2-1L401.4,556.3z"/>
	<path class="st14" d="M372.1,556.3c-0.1-0.5,0.5-1,1.6-1h9.5c1,0,2,0.4,2.1,1l1.6,5.4c0.1,0.5-0.5,1-1.6,1h-9.7c-1,0-2-0.4-2.1-1
		L372.1,556.3z"/>
	<path class="st14" d="M386.7,556.3c-0.1-0.5,0.5-1,1.4-1h9.5c0.9-0.1,1.7,0.2,2.2,1l2,5.4c0.2,0.5-0.5,1-1.4,1h-9.8
		c-1,0-2-0.4-2.2-1L386.7,556.3z"/>
	<path class="st14" d="M299.1,556.3c0.1-0.5,0.9-1,2-1h9.5c1,0,1.9,0.4,1.7,1l-0.4,5.4c0,0.5-0.9,1-2,1h-9.7c-1,0-1.9-0.4-1.7-1
		L299.1,556.3z"/>
	<path class="st14" d="M313.7,556.3c0-0.5,0.9-1,1.9-1h9.5c1,0,1.9,0.4,1.9,1v5.4c0,0.5-0.7,1-1.9,1h-9.8c-1,0-1.9-0.4-1.9-1
		L313.7,556.3z"/>
	<path class="st14" d="M279.1,548.4c0.1-0.5,1-1,2-1h9.1c0.9,0,1.7,0.4,1.6,1l-0.9,5.4c-0.1,0.5-1,1-2,1h-9.4c-1,0-1.7-0.4-1.6-1
		L279.1,548.4z"/>
	<path class="st14" d="M264.9,548.4c0.1-0.5,1-1,2.1-1h9.1c0.9,0,1.6,0.4,1.4,1l-1.2,5.4c-0.1,0.5-1,1-2.1,1h-9.4
		c-1,0-1.7-0.4-1.4-1L264.9,548.4z"/>
	<path class="st14" d="M349.4,548.4c0-0.5,0.6-1,1.6-1h9.1c0.9,0,1.9,0.4,2,1l1,5.4c0.1,0.5-0.6,1-1.6,1h-9.4c-1,0-1.9-0.4-2-1
		L349.4,548.4z"/>
	<path class="st14" d="M321.3,548.4c0-0.5,0.7-1,1.7-1h9.1c0.9,0,1.7,0.4,1.9,1l0.2,5.4c0,0.5-0.7,1-1.7,1H323c-1,0-1.9-0.4-1.9-1
		L321.3,548.4z"/>
	<path class="st14" d="M335.2,548.4c0-0.5,0.6-1,1.7-1h9.1c0.9,0,1.9,0.4,1.9,1l0.6,5.4c0,0.5-0.6,1-1.7,1h-9.4c-1,0-1.9-0.4-1.9-1
		L335.2,548.4z"/>
	<path class="st14" d="M391.5,548.4c-0.1-0.5,0.4-1,1.4-1h9.1c0.7,0,1.7,0.2,2.1,1l2.2,5.4c0.2,0.5-0.4,1-1.4,1h-9.4
		c-0.7,0.1-1.7-0.2-2.1-1L391.5,548.4z"/>
	<path class="st14" d="M418.4,539.5c-0.2-0.6,0.1-1.1,1-1.1h8.6c0.9,0,1.7,0.4,2.4,1.1l3.4,6c0.4,0.6-0.1,1.1-1,1.1h-9.1
		c-0.9,0-1.9-0.4-2.4-1.1L418.4,539.5z"/>
	<path class="st14" d="M404.9,539.5c-0.2-0.6,0.2-1.1,1.1-1.1h8.7c0.9,0,1.7,0.4,2.2,1.1l3,6c0.2,0.6-0.1,1.1-1.1,1.1h-9.1
		c-0.9,0-1.7-0.4-2.2-1.1L404.9,539.5z"/>
	<path class="st14" d="M391.6,539.5c-0.2-0.6,0.2-1.1,1.1-1.1h8.6c0.9,0,1.7,0.4,2.1,1.1l2.6,6c0.2,0.6-0.2,1.1-1.1,1.1h-9.1
		c-0.9,0-1.7-0.4-2.1-1.1L391.6,539.5z"/>
	<path class="st14" d="M277.5,539.5c0.4-0.7,1.1-1.1,2-1.1h8.6c0.9,0,1.6,0.5,1.4,1.1l-1.1,6c-0.1,0.6-1,1.1-2,1.1h-9.1
		c-0.9,0-1.6-0.5-1.4-1.1L277.5,539.5z"/>
	<path class="st14" d="M363.4,548.4c-0.1-0.5,0.5-1,1.6-1h9.1c0.9,0,1.9,0.4,2,1l1.4,5.4c0.1,0.5-0.5,1-1.6,1h-9.5c-1,0-1.9-0.4-2-1
		L363.4,548.4z"/>
	<path class="st14" d="M377.4,548.4c-0.1-0.5,0.5-1,1.4-1h9.1c0.7-0.1,1.6,0.2,2.1,1l1.9,5.4c0.1,0.5-0.5,1-1.4,1H381
		c-1,0-2-0.4-2.1-1L377.4,548.4z"/>
	<path class="st14" d="M293.2,548.4c0.1-0.5,0.9-1,2-1h9.1c0.9,0,1.7,0.4,1.6,1l-0.5,5.4c0,0.5-0.9,1-2,1H294c-1,0-1.7-0.4-1.6-1
		L293.2,548.4z"/>
	<path class="st14" d="M307.2,548.4c0-0.5,0.9-1,1.9-1h9.1c0.9,0,1.7,0.4,1.7,1l-0.1,5.4c0,0.5-0.7,1-1.9,1h-9.4c-1,0-1.7-0.4-1.7-1
		L307.2,548.4z"/>
	<path class="st14" d="M439,580.2c-0.2-0.5,0.4-1,1.4-1h10.5c0.9-0.1,2,0.2,2.6,1l1.2,2.2c0.2,0.5-0.4,1-1.4,1h-10.8
		c-1,0.1-2-0.2-2.6-1L439,580.2z"/>
	<path class="st14" d="M421.9,580.2c-0.2-0.5,0.5-1,1.6-1H434c0.9-0.1,1.9,0.2,2.5,1l1.1,2.2c0.2,0.5-0.4,1-1.6,1h-10.8
		c-0.9,0.1-1.9-0.2-2.5-1L421.9,580.2z"/>
	<path class="st14" d="M405,580.2c-0.1-0.5,0.5-1,1.7-1h10.5c0.9-0.1,1.9,0.2,2.5,1l0.9,2.2c0.2,0.5-0.5,1-1.6,1h-10.8
		c-1.1,0-2.2-0.4-2.5-1L405,580.2z"/>
	<path class="st14" d="M388,580.2c-0.1-0.5,0.6-1,1.7-1h10.5c1.1,0,2.2,0.4,2.4,1l0.7,2.2c0.1,0.5-0.5,1-1.7,1h-10.8
		c-1.1,0-2.2-0.4-2.4-1L388,580.2z"/>
	<path class="st14" d="M371.1,580.2c-0.1-0.5,0.6-1,1.9-1h10.5c1.1,0,2.1,0.4,2.4,1l0.6,2.2c0.1,0.5-0.6,1-1.9,1h-10.8
		c-1.1,0-2.1-0.4-2.2-1L371.1,580.2z"/>
	<path class="st14" d="M353.9,580.2c0-0.5,0.7-1,1.9-1h10.5c1.1,0,2.1,0.4,2.2,1l0.4,2.2c0.1,0.5-0.6,1-1.9,1h-10.8
		c-1.1,0-2.1-0.4-2.2-1L353.9,580.2z"/>
	<path class="st14" d="M337.1,580.2c0-0.5,0.7-1,2-1h10.5c1.1,0,2.1,0.4,2.1,1l0.2,2.2c0,0.5-0.7,1-2,1h-10.8c-1.1,0-2.1-0.4-2.1-1
		L337.1,580.2z"/>
	<path class="st14" d="M319.9,580.2c0-0.5,0.9-1,2.1-1h10.5c1.1,0,2.1,0.4,2.1,1l0.1,2.2c0,0.5-0.9,1-2,1h-10.8c-1.1,0-2.1-0.4-2-1
		L319.9,580.2L319.9,580.2z"/>
	<path class="st14" d="M303.2,580.2c0-0.5,1-1,2.1-1h10.5c1.1,0,2,0.4,2,1l-0.1,2.2c0,0.5-0.9,1-2.1,1h-10.8c-1.1,0-2-0.4-2-1
		L303.2,580.2z"/>
	<path class="st14" d="M285.8,580.2c0.1-0.5,1-1,2.2-1h10.5c1.1,0,2,0.4,2,1l-0.2,2.2c0,0.5-1,1-2.2,1h-10.8c-1.1,0-2-0.4-1.9-1
		L285.8,580.2z"/>
	<path class="st14" d="M269.3,580.2c0.1-0.5,1.1-1,2.2-1H282c1.1,0,2,0.4,1.9,1l-0.4,2.2c-0.1,0.5-1.1,1-2.2,1h-10.8
		c-1.1,0-2-0.4-1.9-1L269.3,580.2z"/>
	<path class="st14" d="M252.1,580.2c0.1-0.5,1.1-1,2.4-1H265c1.1,0,2,0.4,1.7,1l-0.6,2.2c-0.1,0.5-1.1,1-2.4,1h-10.8
		c-1.1,0-2-0.4-1.7-1L252.1,580.2z"/>
	<path class="st14" d="M235.2,580.2c0.2-0.5,1.2-1,2.5-1h10.5c1.1,0,1.9,0.4,1.7,1l-0.7,2.2c-0.1,0.5-1.2,1-2.4,1H236
		c-1.1,0-1.9-0.4-1.7-1L235.2,580.2z"/>
	<path class="st14" d="M218,580.2c0.6-0.6,1.6-1,2.5-1H231c1.1,0,1.9,0.4,1.6,1l-0.9,2.2c-0.2,0.5-1.2,1-2.5,1h-10.8
		c-1.1,0-1.9-0.4-1.6-1L218,580.2z"/>
	<path class="st14" d="M423.5,564.3c-0.2-0.5,0.4-1,1.4-1h17.3c0.9,0,1.9,0.2,2.5,1l3,5.4c0.2,0.5-0.2,1-1.2,1h-18
		c-0.9,0.1-1.9-0.2-2.5-1L423.5,564.3z"/>
	<path class="st14" d="M416,556.3c-0.2-0.5,0.4-1,1.2-1h20.3c0.9,0,1.9,0.4,2.4,1l3,5.4c0.2,0.5-0.2,1-1.2,1h-20.9
		c-0.9,0.1-1.9-0.2-2.4-1L416,556.3z"/>
	<path class="st14" d="M405.2,548.4c-0.2-0.5,0.4-1,1.2-1h26.7c0.9,0,1.7,0.4,2.4,1l3,5.4c0.2,0.5-0.2,1-1.1,1h-27.7
		c-0.9,0.1-1.7-0.2-2.2-1L405.2,548.4z"/>
	<path class="st14" d="M374.9,539.4c-0.1-0.5,0.5-1,1.2-1h12c0.7,0,1.6,0.2,2,1l2.2,6.2c0.1,0.5-0.4,1-1.2,1h-12.5
		c-0.9,0-1.9-0.4-2-1L374.9,539.4z"/>
	<path class="st14" d="M291.5,539.4c0.1-0.5,0.9-1,1.9-1h12c0.9,0,1.6,0.4,1.6,1l-0.6,6.2c0,0.5-0.9,1-1.9,1H292
		c-0.9,0-1.7-0.4-1.6-1L291.5,539.4z"/>
	<path class="st14" d="M221.9,572.2c0.6-0.6,1.6-1,2.5-1h18.3c1,0,1.9,0.4,1.6,1l-2,5.4c-0.2,0.5-1.2,1-2.4,1h-19
		c-1,0-1.9-0.4-1.6-1L221.9,572.2z"/>
	<path class="st14" d="M229.5,556.3c0.5-0.6,1.4-1,2.4-1h20.6c1,0,1.6,0.4,1.4,1l-2,5.4c-0.1,0.5-1.1,1-2.2,1h-21.3
		c-1,0-1.7-0.4-1.4-1L229.5,556.3z"/>
	<path class="st14" d="M233.2,548.4c0.5-0.6,1.2-1,2.2-1H262c0.9,0,1.6,0.4,1.4,1l-1.7,5.4c-0.1,0.5-1.1,1-2.1,1H232
		c-1,0-1.6-0.4-1.2-1L233.2,548.4z"/>
	<path class="st14" d="M264.3,539.4c0.4-0.6,1.1-1,2-1h8.6c0.9,0,1.6,0.4,1.2,1l-0.5,2.1c-0.1,0.5-1,1-2,1h-8.9
		c-0.9,0-1.6-0.4-1.2-1L264.3,539.4z"/>
	<path class="st14" d="M237.5,539.4c0.5-0.6,1.2-1,2.1-1h8.6c0.9,0,1.4,0.4,1.1,1l-0.9,2.1c-0.5,0.6-1.2,1-2.1,1h-8.9
		c-0.9,0-1.4-0.4-1.1-1L237.5,539.4z"/>
	<path class="st14" d="M250.9,539.4c0.4-0.6,1.1-1,2.1-1h8.6c0.9,0,1.4,0.4,1.2,1l-2.1,6.2c-0.4,0.6-1.2,1-2.1,1h-9.1
		c-0.9,0-1.6-0.4-1.2-1L250.9,539.4z"/>
	<path class="st14" d="M308,539.4c0-0.5,0.7-1,1.7-1h61.8c0.9,0,1.9,0.4,2,1l1.7,6.2c0.1,0.5-0.5,1-1.4,1h-64.6
		c-0.9,0-1.7-0.4-1.6-1L308,539.4z"/>
</g>
<path class="st23" d="M440.5,561.4c-0.1-0.1,0-0.2,0.2-0.2s0.4,0.1,0.6,0.2c0.1,0.1,0,0.2-0.2,0.2
	C440.8,561.7,440.6,561.6,440.5,561.4z"/>
<g>
	<path class="st16" d="M477.5,431.5h125.6c5.9,0,10.8,4.8,10.8,10.8v44.8c0,5.9-4.8,10.8-10.8,10.8H477.5c-5.9,0-10.8-4.8-10.8-10.8
		v-44.8C466.7,436.4,471.5,431.5,477.5,431.5z"/>
	<text transform="matrix(1 0 0 1 499.0215 475.6699)" class="st17 st18 st24">React</text>
</g>
<path class="st11" d="M534.6,333.6"/>
<g>
	<g>
		<path id="cloud3" class="st21" d="M-251.2,507.8h1.9c-0.1-0.3-0.1-0.7-0.1-1.1c-0.1-16.4,13.1-29.8,29.5-29.9c3,0,5.9,0.4,8.8,1.3
			c6.4-18.5,23.9-30.8,43.4-30.8c24.4,0,43.8,19,45.5,43c23.1,0.1,41.5,18.9,41.5,42.2v1.1c0,23.3-18,44-41.3,44h-50.6
			c-0.2,0-0.4,0-0.5,0s-0.4,0-0.5,0h-77.6c-18.4,0.2-32.5-16.4-32.5-34.8v-1.1C-283.8,523.3-269.6,507.9-251.2,507.8"/>
	</g>
</g>
<path id="path1" d="M-80,0H800H-80"/>
</svg>
