<?xml version="1.0" encoding="utf-8"?>
<!-- Generator: Adobe Illustrator 21.1.0, SVG Export Plug-In . SVG Version: 6.00 Build 0)  -->
<svg version="1.1" id="Layer_1" xmlns="http://www.w3.org/2000/svg" xmlns:xlink="http://www.w3.org/1999/xlink" x="0px" y="0px"
	 viewBox="0 0 400 400" style="enable-background:new 0 0 400 400;" xml:space="preserve">
<style type="text/css">
	.st0{fill:#383838;}
	.st1{fill:none;stroke:#9ADAF6;stroke-width:10;stroke-miterlimit:10;}
	.st2{fill:#9ADAF6;}
</style>
<title>Atom</title>
<animateMotion  accumulate="none" additive="replace" calcMode="paced" dur="4s" fill="freeze" keyPoints="0;1" keyTimes="0;1" repeatCount="indefinite" restart="always" xlink:href="#ball1">
	<mpath  xlink:href="#path1"></mpath>
</animateMotion>
<animateMotion  accumulate="none" additive="replace" calcMode="paced" dur="3s" fill="remove" repeatCount="indefinite" restart="always" xlink:href="#ball2">
	<mpath  xlink:href="#path2"></mpath>
</animateMotion>
<animateMotion  accumulate="none" additive="replace" calcMode="paced" dur="2s" fill="freeze" repeatCount="indefinite" restart="always" xlink:href="#ball3">
	<mpath  xlink:href="#path3"></mpath>
</animateMotion>
<g id="animateme">
	<circle class="st0" cx="200" cy="200" r="200"/>
	<g>
		<path id="path1" class="st1" d="M305,265.9c-0.4-9.6-3.4-20.7-8.9-32.8c-10.7-23.7-30-49.9-54.4-73.7
			c-18.7-18.4-38.5-33.8-58.1-44.9c-20-11.3-38.1-17.1-52.3-17.1c0,0-16.6,0-26.8,9.5c-4.8,4.5-10.1,12.9-9.5,27.5
			c0.4,9.6,3.4,20.6,8.9,32.7c10.7,23.7,30,49.8,54.4,73.7c18.7,18.4,39,33.8,58.6,44.8c19.9,11.3,38.2,17.1,52.7,17.1
			c10.7,0,19.6-3.2,25.8-9.3C300.1,289,305.5,280.4,305,265.9z"/>
		<path id="path2" class="st1" d="M310.6,144.7c-8.5-4.7-19.4-7.9-32.6-9.5c-25.8-3.2-58.2-0.4-91.3,8.1
			c-25.4,6.4-49.1,15.4-68.7,26.4c-20,11.2-34.5,23.8-42,35.9c-1.6,2.4-8.8,13.8-5.4,27.5c3.1,12.4,12.7,19.1,18.5,22.3
			c8.5,4.7,19.3,7.8,32.5,9.4c25.8,3.2,58.2,0.3,91.2-8.1c25.4-6.4,49.2-15.6,68.8-26.6c20-11.2,34.6-23.7,42.2-36.1
			c5.5-9.1,7.5-18.4,5.4-26.9C327.8,160.8,323.3,151.7,310.6,144.7z"/>
		<path id="path3" class="st1" d="M233.1,67.4c6.5,1.9,11.9,6.6,16.3,14c14.3,24.4,15.8,76.3,1.7,132.8
			C232.7,287.5,195,340.7,166.8,333c-6.5-1.9-11.9-6.6-16.3-14c-14.3-24.4-15.8-76.3-1.7-132.8C167,112.8,204.8,59.7,233.1,67.4z"/>
		<circle class="st2" cx="200" cy="200" r="20.1"/>
		<circle id="ball3" class="st2" cx="0" cy="0" r="20.1"/>
		<circle id="ball2" class="st2" cx="0" cy="0" r="20.1"/>
		<circle id="ball1" class="st2" cx="0" cy="0" r="20.1"/>
	</g>
</g>
</svg>
