<svg xmlns="http://www.w3.org/2000/svg" xmlns:xlink="http://www.w3.org/1999/xlink" viewBox="0 0 663.07 571.04"><defs><style>.cls-1,.cls-23,.cls-32,.cls-35,.cls-42,.cls-46{fill:none;}.cls-2{isolation:isolate;}.cls-3,.cls-5{fill:#9995a7;}.cls-3{opacity:0.69;}.cls-4{fill:#fff;}.cls-6{fill:#5d5872;}.cls-7{fill:#ecebef;}.cls-8{fill:#65324e;}.cls-9{fill:#d93838;}.cls-10{fill:#25253a;}.cls-11{fill:#07113d;}.cls-12{fill:#2c3765;}.cls-13{fill:#fbfcfc;}.cls-14{fill:#061d48;}.cls-15{fill:#4a8ecc;}.cls-16{fill:#f4a891;}.cls-17{fill:#cd8f7c;}.cls-18{fill:#723343;}.cls-19{fill:#591239;}.cls-20{fill:#ffc4bc;}.cls-21{fill:#ffc7b0;}.cls-22{fill:#89362e;}.cls-23,.cls-42{stroke:#07113d;stroke-linecap:round;}.cls-23,.cls-32,.cls-35,.cls-42,.cls-46{stroke-miterlimit:10;}.cls-23,.cls-35{stroke-width:1.56px;}.cls-24{fill:#a54437;}.cls-25{clip-path:url(#clip-path);}.cls-26,.cls-45{fill:#181827;}.cls-27{fill:#f4b84d;}.cls-28{opacity:0.95;}.cls-29,.cls-30{fill:#db734c;}.cls-30{opacity:0.71;}.cls-31{fill:#eaecee;}.cls-32{stroke:#181827;stroke-width:34.31px;}.cls-33{fill:#2b2b2b;}.cls-34{fill:#424242;}.cls-35{stroke:#e48867;}.cls-36{fill:#d3aaa1;}.cls-37{fill:#5371b7;}.cls-38{fill:#6d322e;}.cls-39{fill:#b7b9bd;}.cls-40{fill:#578dce;}.cls-41{fill:#0c2d63;}.cls-42{stroke-width:1.58px;}.cls-43{fill:#4d6199;}.cls-44{fill:#2c2c44;}.cls-45{opacity:0.39;mix-blend-mode:multiply;}.cls-46{stroke:#2c2c44;stroke-width:37.42px;}.cls-47{fill:#b95241;}</style><clipPath id="clip-path"><path class="cls-1" d="M238.06,542.17c-2.34-63.42-8.44-130.36-14.49-141.69-5.75-6.84-37.74-22-68.82-32.44l13.13-39c21.82,7.35,74.18,26.7,89.18,47.53,6.33,8.79,13.3,32.48,17,97,1.92,33.8,5.87,67,5.87,67Z"/></clipPath></defs><title>collaboration</title><g class="cls-2"><g id="Layer_2" data-name="Layer 2"><g id="Layer_1-2" data-name="Layer 1"><path class="cls-3" d="M650.25,571H9.36A9.38,9.38,0,0,1,0,561.68H0a9.38,9.38,0,0,1,9.36-9.36H650.25a9.38,9.38,0,0,1,9.36,9.36h0A9.38,9.38,0,0,1,650.25,571Z"/><path class="cls-4" d="M416.34,561.52H306.41a17.15,17.15,0,0,1,17.15-17.15h75.63a17.15,17.15,0,0,1,17.15,17.15Z"/><path class="cls-5" d="M374.12,317.63V544.78a5.13,5.13,0,0,1-5.13,5.13H357.42a5.13,5.13,0,0,1-5.13-5.13V317.63Z"/><rect class="cls-6" x="293.82" y="314.51" width="138.78" height="14.03"/><rect class="cls-4" x="240.72" y="290.47" width="244.99" height="28.07"/><path class="cls-7" d="M416.34,571H306.41a17.15,17.15,0,0,1,17.15-17.15h75.63A17.15,17.15,0,0,1,416.34,571Z"/><rect class="cls-7" x="240.72" y="305.15" width="244.99" height="13.38"/><polygon class="cls-6" points="352.29 322.99 374.12 322.49 374.12 339.74 352.29 348.25 352.29 322.99"/><path class="cls-5" d="M353.2,295.53h0a4.06,4.06,0,0,1-4.06,4.06H240.72v-8.12H349.14A4.06,4.06,0,0,1,353.2,295.53Z"/><path class="cls-5" d="M485.7,293.47v6.12H446.6a3.06,3.06,0,0,1-3.06-3.06h0a3.06,3.06,0,0,1,3.06-3.06Z"/><path class="cls-8" d="M77.49,401.87l-40-178.2c-1-7.48,21.53-4.62,29.06-5,4.84-.26,14.34,1.26,15.43,11.76l22.65,167.8a13.76,13.76,0,0,1-11.76,15.43h0A13.76,13.76,0,0,1,77.49,401.87Z"/><path class="cls-9" d="M53.32,401.87,30.68,234.07a13.76,13.76,0,0,1,11.76-15.43h0A13.76,13.76,0,0,1,57.86,230.4L80.51,398.2a13.76,13.76,0,0,1-11.76,15.43h0A13.76,13.76,0,0,1,53.32,401.87Z"/><rect class="cls-5" x="130.89" y="424.86" width="15.95" height="94.1"/><path class="cls-10" d="M146.84,430.34V451.6l-16-6.17V431C134.88,430.84,142.57,430.52,146.84,430.34Z"/><path class="cls-10" d="M175.83,432.47H104.54a7.15,7.15,0,0,1-7.13-7.13h0a7.15,7.15,0,0,1,7.13-7.13h71.29a7.15,7.15,0,0,1,7.13,7.13h0A7.15,7.15,0,0,1,175.83,432.47Z"/><rect class="cls-8" x="110.96" y="388.26" width="117.59" height="35.65" rx="17.82" ry="17.82"/><rect class="cls-8" x="85.29" y="388.26" width="117.59" height="35.65" rx="17.82" ry="17.82"/><path class="cls-9" d="M138.72,424.39H73.18a17.88,17.88,0,0,1-17.82-17.82h0a17.88,17.88,0,0,1,17.82-17.82h65.54a17.88,17.88,0,0,1,17.82,17.82h0A17.88,17.88,0,0,1,138.72,424.39Z"/><path class="cls-11" d="M206.48,550.33h-10a21.65,21.65,0,0,0-21.62-21.62H102.16a21.65,21.65,0,0,0-21.62,21.62h-10a31.64,31.64,0,0,1,31.6-31.6h72.71A31.64,31.64,0,0,1,206.48,550.33Z"/><rect class="cls-11" x="127.11" y="503.76" width="23.29" height="15.21"/><circle class="cls-11" cx="75.17" cy="559.98" r="8.29"/><path class="cls-12" d="M75.35,545.82h.87a10.91,10.91,0,0,1,10.91,10.91v2.52a0,0,0,0,1,0,0H64.44a0,0,0,0,1,0,0v-2.52A10.91,10.91,0,0,1,75.35,545.82Z"/><circle class="cls-11" cx="201.96" cy="559.98" r="8.29"/><path class="cls-12" d="M202.14,545.82H203a10.91,10.91,0,0,1,10.91,10.91v2.52a0,0,0,0,1,0,0H191.23a0,0,0,0,1,0,0v-2.52A10.91,10.91,0,0,1,202.14,545.82Z"/><rect class="cls-11" x="132.62" y="521.81" width="13.21" height="29.94"/><circle class="cls-11" cx="139.51" cy="559.98" r="8.29"/><path class="cls-12" d="M139.68,545.82h.87a10.91,10.91,0,0,1,10.91,10.91v2.52a0,0,0,0,1,0,0H128.77a0,0,0,0,1,0,0v-2.52A10.91,10.91,0,0,1,139.68,545.82Z"/><path class="cls-8" d="M616.13,401.87l40-178.2c1-7.48-21.53-4.62-29.06-5-4.84-.26-14.34,1.26-15.43,11.76L588.95,398.2a13.76,13.76,0,0,0,11.76,15.43h0A13.76,13.76,0,0,0,616.13,401.87Z"/><path class="cls-9" d="M640.3,401.87l22.65-167.8a13.76,13.76,0,0,0-11.76-15.43h0a13.76,13.76,0,0,0-15.43,11.76L613.12,398.2a13.76,13.76,0,0,0,11.76,15.43h0A13.76,13.76,0,0,0,640.3,401.87Z"/><rect class="cls-5" x="546.78" y="424.86" width="15.95" height="94.1"/><path class="cls-10" d="M546.78,430.34V451.6l16-6.17V431C558.75,430.84,551.06,430.52,546.78,430.34Z"/><path class="cls-10" d="M517.8,432.47h71.29a7.15,7.15,0,0,0,7.13-7.13h0a7.15,7.15,0,0,0-7.13-7.13H517.8a7.15,7.15,0,0,0-7.13,7.13h0A7.15,7.15,0,0,0,517.8,432.47Z"/><rect class="cls-8" x="465.08" y="388.26" width="117.59" height="35.65" rx="17.82" ry="17.82" transform="translate(1047.75 812.18) rotate(180)"/><rect class="cls-8" x="490.75" y="388.26" width="117.59" height="35.65" rx="17.82" ry="17.82" transform="translate(1099.08 812.18) rotate(180)"/><path class="cls-9" d="M554.91,424.39h65.54a17.88,17.88,0,0,0,17.82-17.82h0a17.88,17.88,0,0,0-17.82-17.82H554.91a17.88,17.88,0,0,0-17.82,17.82h0A17.88,17.88,0,0,0,554.91,424.39Z"/><path class="cls-11" d="M487.14,550.33h10a21.65,21.65,0,0,1,21.62-21.62h72.71a21.65,21.65,0,0,1,21.62,21.62h10a31.64,31.64,0,0,0-31.6-31.6H518.75A31.64,31.64,0,0,0,487.14,550.33Z"/><rect class="cls-11" x="543.22" y="503.76" width="23.29" height="15.21" transform="translate(1109.74 1022.72) rotate(180)"/><circle class="cls-11" cx="618.46" cy="559.98" r="8.29"/><path class="cls-12" d="M606.5,545.82h22.69a0,0,0,0,1,0,0v2.52a10.91,10.91,0,0,1-10.91,10.91h-.87a10.91,10.91,0,0,1-10.91-10.91v-2.52A0,0,0,0,1,606.5,545.82Z" transform="translate(1235.69 1105.07) rotate(180)"/><circle class="cls-11" cx="491.67" cy="559.98" r="8.29"/><path class="cls-12" d="M479.71,545.82H502.4a0,0,0,0,1,0,0v2.52a10.91,10.91,0,0,1-10.91,10.91h-.87a10.91,10.91,0,0,1-10.91-10.91v-2.52A0,0,0,0,1,479.71,545.82Z" transform="translate(982.11 1105.07) rotate(180)"/><rect class="cls-11" x="547.79" y="521.81" width="13.21" height="29.94" transform="translate(1108.8 1073.57) rotate(180)"/><circle class="cls-11" cx="554.12" cy="559.98" r="8.29"/><path class="cls-12" d="M542.16,545.82h22.69a0,0,0,0,1,0,0v2.52a10.91,10.91,0,0,1-10.91,10.91h-.87a10.91,10.91,0,0,1-10.91-10.91v-2.52A0,0,0,0,1,542.16,545.82Z" transform="translate(1107.02 1105.07) rotate(180)"/><polygon class="cls-13" points="472.87 259.04 472.84 259.57 472.75 260.84 472.61 262.68 472.45 264.73 472.23 267.85 472.23 267.92 471.84 273.03 471.11 283.13 470.63 289.76 470.02 296.04 449.75 295.96 449.21 289.76 448.73 283.13 448 273.03 447.63 267.92 447.41 264.91 447.2 262.15 447.11 260.84 447.02 259.57 446.97 259.04 472.87 259.04"/><path class="cls-14" d="M469,258.37h-4.88a1.81,1.81,0,0,1-1.81-1.81h0a1.81,1.81,0,0,1,1.81-1.81H469a1.81,1.81,0,0,1,1.81,1.81h0A1.81,1.81,0,0,1,469,258.37Z"/><path class="cls-9" d="M474.47,259.57v2.18a3.23,3.23,0,0,1-2,3,3.27,3.27,0,0,1-1.22.24H448.08a3,3,0,0,1-.68-.08,3.23,3.23,0,0,1-2.56-3.16v-2.18a3.24,3.24,0,0,1,3.24-3.19h23.15A3.24,3.24,0,0,1,474.47,259.57Z"/><polygon class="cls-15" points="472.23 267.92 471.84 273.03 471.11 283.13 470.63 289.76 449.21 289.76 448.73 283.13 448 273.03 447.63 267.92 472.23 267.92"/><path class="cls-16" d="M518.93,186.35l-.17.19c-5.32,5.64-16.75,17.81-48.09,27.72-5.33,1.68-11.23,3.32-17.78,4.83-6,1.39-11.84,2.48-17.45,3.32A238.48,238.48,0,0,1,400.16,225a182,182,0,0,1-28.27-1.92l2-11.52-2.07-9.36a299.7,299.7,0,0,0,62.51-3.29c4.4-.73,8.86-1.61,13.33-2.65,7.13-1.65,13.3-3.4,18.68-5.21,23.42-7.81,43.61-19,47.5-23.16l-11.9,2.39Z"/><path class="cls-16" d="M356.87,210.33a2.83,2.83,0,0,1,0,.36,3.46,3.46,0,0,1-2,2.78l-11,5.05-12.6,5.8a3.31,3.31,0,0,1-2.07.25,3.45,3.45,0,0,1-2.49-1.93,3.35,3.35,0,0,1-.31-1.43,3.47,3.47,0,0,1,2-3.13l4.63-2.14,4.52-2.09,11.12-5.11.3-.14,3-1.39a3.46,3.46,0,0,1,4.37,1.33c.08.12.14.25.2.37A3.36,3.36,0,0,1,356.87,210.33Z"/><path class="cls-16" d="M355.9,220.64a3.44,3.44,0,0,1-2,3.13l-1.78.83L335,232.5a3.44,3.44,0,0,1-4.57-1.7,3.35,3.35,0,0,1-.31-1.43,3.43,3.43,0,0,1,2-3.13l13.71-6.32,5.21-2.4a3.47,3.47,0,0,1,4.58,1.68A3.61,3.61,0,0,1,355.9,220.64Z"/><path class="cls-16" d="M371.54,220.8a3.35,3.35,0,0,1-.28,1.36,3.41,3.41,0,0,1-1.71,1.78l-16.41,8.32a3.46,3.46,0,0,1-4.57-1.68,3.35,3.35,0,0,1-.31-1.43,3.47,3.47,0,0,1,2-3.13l9.45-5.13,7-3.2a3.46,3.46,0,0,1,4.57,1.68A3.35,3.35,0,0,1,371.54,220.8Z"/><path class="cls-16" d="M376.12,221c-2.49,1.43-13.26,8.43-15.41,9.26-2.74,1-4-.48-6.17-.17-6.28.92-3-1.87-4.37-2.54-.36-.17-2.62-1.12-2.62-1.12l1.25-2.32-6.32-4.68-1.9-1.4-6.33-4.68-.23-.17c.12,0,2.42-1.86,5.16-3.95.48-.36,1-.72,1.45-1.09,2.9-2.15,6-4.29,7.44-4.85a36.64,36.64,0,0,1,9.64-2.2h0a36.25,36.25,0,0,1,7.58.09l11.2,1.29S376.82,220.59,376.12,221Z"/><path class="cls-17" d="M470.67,214.26c-5.33,1.68-11.23,3.32-17.78,4.83-6,1.39-11.84,2.48-17.45,3.32-.3-5.82-1-20.26-1.15-23.47,4.4-.73,8.86-1.61,13.33-2.65,7.13-1.65,13.3-3.4,18.68-5.21Z"/><path class="cls-18" d="M546.29,170.81c-.79.14-1.58.26-2.35.36-26,3.28-50.2-14.78-54.7-41.31l-10-59,34.94-6.14,64.06-10.1,9.33,77.83C592.17,159.76,573.14,166.08,546.29,170.81Z"/><path class="cls-19" d="M568.21,148.31c-1.83,9.35-11.83,17.5-24.28,22.86-26,3.28-50.2-14.78-54.7-41.31l-10-59,34.94-6.14c21.77,5.52,45.61,17.69,47.22,20.4C562.12,86.36,573.14,123.21,568.21,148.31Z"/><path class="cls-16" d="M539.24,154.35h4.7a11.14,11.14,0,0,0,11.11-11.11l-3.83-36.39c0-6.11-1.17-9.92-7.28-9.92h-4.7A11.14,11.14,0,0,0,528.13,108v35.2A11.14,11.14,0,0,0,539.24,154.35Z"/><path class="cls-18" d="M478.2,79.25c1.5,4,3.16,7.73,4.83,11.67.4.93-3.37-9-2.45-8.6,2.37,1.14,5.48.22,7.82-.55,8.65-2.83,16.63-8,24.5-12.43s16-9.59,24.86-12.05c2.47-.69,5.77-1.44,8.17-.12,2.74,1.51,4.71,5,6.35,7.52,5.4,8.26,9.82,17.13,14.42,25.84.77,1.47,1.55,2.94,2.36,4.38.23.41.88,2,1.37,2.2,1.16.39,4.55-11.77,4.91-13.14a97.12,97.12,0,0,0,3.5-20.14,43.2,43.2,0,0,0-3.49-18.64c-5.3-12.65-16-22.58-28.65-27.75a52.32,52.32,0,0,0-42.23.88c-14.11,6.77-26.25,19.2-29.36,34.54C474.22,57.32,474.54,69.58,478.2,79.25Z"/><path class="cls-20" d="M542.56,77a8.22,8.22,0,0,0,.73,3,9.43,9.43,0,0,0,2.15,3.14,8.85,8.85,0,0,0,6.3,2.41l5.18-.27,4-.2-.59-11.79h0l-.1-2.18-.09-1.69L560,67.86v-.4h0l-9.14.47a8.72,8.72,0,0,0-7.86,6A7.86,7.86,0,0,0,542.56,77Z"/><path class="cls-21" d="M551.81,113.94c-6.12,8.77-6.06,10.3-13.64,13.86h0a39.48,39.48,0,0,1-9.79,3.16c-1.26.23-2.53.42-3.82.55l-1.56.1a38,38,0,0,1-5.58-.11,14.58,14.58,0,0,1-1.56-.16,40,40,0,0,1-34.39-31.9,39,39,0,0,1-.67-5.54l-.14-2.86-1-19.07a47.67,47.67,0,0,1,.22-8.38,29.42,29.42,0,0,1,1.38-6.18,38.67,38.67,0,0,1,7.93-14.09A40.83,40.83,0,0,1,540,35.78c1,.57,1.91,1.19,2.83,1.84,4.59,3.23,7.43,12,7.43,12C551,50.88,552,113.71,551.81,113.94Z"/><path class="cls-20" d="M567.13,81.86a8.13,8.13,0,0,1-6,8.16,7.67,7.67,0,0,1-1,.2,2.94,2.94,0,0,1-.53.06l-2.45.13-.27-5.12-.06-1.15-.47-9.3,2.47-.13a4.74,4.74,0,0,1,.65,0h0a6.58,6.58,0,0,1,.93.07s0,0,0,0a7.61,7.61,0,0,1,6.73,7.07Z"/><path class="cls-16" d="M548.93,67.23c-.76-2.46-1.54-4.91-2.37-7.35a10.82,10.82,0,0,0-2.39,3.43s.3,3,.57,7.56a.81.81,0,0,1,0,.19c.2,3.31.4,7.45.44,11.84v.72c.09,9.58-.49,20.3-3,26.8-4.52,12-11.75,18.87-14.55,20.67-.44.29,2.87.72,2.87.72s.45.6,7.33-3.53h0c8.08-3.82,9.67-6.71,13.69-14.53a120.75,120.75,0,0,0-.58-23C549.7,80.75,549.55,73.17,548.93,67.23Z"/><path class="cls-18" d="M489.7,45.92c-.63,3.48-.13,11.14,5.17,15,13.83,10.09,52.9,3.85,54.6,17.35,7.15,56.79,19.22,71.23,19.43,69.65,1-7.68,5.65-42.21,5.46-43.92-5.72-49.9-12.69-56.9-14.52-58.75a10.15,10.15,0,0,0-7.17-3H503.09C498.1,42.27,490.59,41,489.7,45.92Z"/><path class="cls-16" d="M500.56,96.9s.46,2.89,4.54,2.75C508.69,99.53,509,97,509,97Z"/><path class="cls-18" d="M495.42,49s-12.1-.48-17,13.93c0,0-2.74-14.65,17.35-29.71s55.6-2.51,58.47,3.95a26.41,26.41,0,0,1,2.51,11.48Z"/><path class="cls-8" d="M513.71,74.42a15.69,15.69,0,0,1,14,1.08"/><path class="cls-8" d="M485.37,73.53a15.69,15.69,0,0,1,14,1.08"/><path class="cls-11" d="M520.28,87.32h0a1.8,1.8,0,0,0,1.79-1.79V82.21a1.8,1.8,0,0,0-1.79-1.79h0a1.8,1.8,0,0,0-1.79,1.79v3.32A1.8,1.8,0,0,0,520.28,87.32Z"/><path class="cls-11" d="M492.54,87.32h0a1.8,1.8,0,0,0,1.79-1.79V82.21a1.8,1.8,0,0,0-1.79-1.79h0a1.8,1.8,0,0,0-1.79,1.79v3.32A1.8,1.8,0,0,0,492.54,87.32Z"/><path class="cls-22" d="M244,565.31l64.89,2.64a7,7,0,0,0,7.29-6.72h0a7,7,0,0,0-4.43-6.81l-31.65-12.5L245,541.34Z"/><path class="cls-11" d="M310.11,569.8l-65.71-2.18.16-4.71L315,565.25h0A4.71,4.71,0,0,1,310.11,569.8Z"/><line class="cls-23" x1="278.98" y1="551.38" x2="286.87" y2="543.49"/><line class="cls-23" x1="284.49" y1="553.92" x2="292.38" y2="546.03"/><line class="cls-23" x1="289.73" y1="557.25" x2="298.62" y2="548.3"/><path class="cls-24" d="M200.31,567.3l64.95,0a7,7,0,0,0,7-7h0a7,7,0,0,0-4.7-6.62l-32.13-11.22-35.12.85Z"/><path class="cls-14" d="M266.56,569.12l-65.75.47,0-4.71,70.46-.5h0A4.71,4.71,0,0,1,266.56,569.12Z"/><line class="cls-23" x1="232.02" y1="550.76" x2="239.84" y2="542.79"/><line class="cls-23" x1="237.55" y1="553.25" x2="245.37" y2="545.29"/><line class="cls-23" x1="242.82" y1="556.53" x2="251.63" y2="547.5"/><g class="cls-25"><path class="cls-10" d="M238.2,543.92c-2.34-63.42-8.58-132.11-14.64-143.44-5.75-6.84-37.74-22-68.82-32.44l13.13-39c21.82,7.35,74.18,26.7,89.18,47.53,6.33,8.79,13.3,32.48,17,97,1.92,33.8,4.72,68.73,4.72,68.73Z"/><path class="cls-26" d="M147.15,347.55s78.7,20.07,89.6,41,19.54,148.76,19.54,148.76L231,540.75,127.6,345.26Z"/></g><path class="cls-26" d="M204.33,351.22a29.34,29.34,0,0,1-26.38,32L128.89,388a27.93,27.93,0,0,1-4.32.09,28.61,28.61,0,0,1-10.36-2.46c-.57-.24-1.13-.52-1.68-.81A29.28,29.28,0,0,1,96.9,361.6l-.6-15.66,105.6-11.13Z"/><path class="cls-10" d="M234.55,475.94c4.36,33.27,6.55,64.69,6.63,66l-22.19.62-19.2,1.14c-3.4-57.35-12.58-120.14-20.21-131.36-7.61-5.2-35.13-12.52-60.42-17.32-3.56-.67-7.08-1.29-10.49-1.84l-1.8-.3.08-.41s14.36-38,58.06-32.56c9.21,1.14,17.76,8.37,27.83,13.07A65.09,65.09,0,0,1,206,380.76C215.81,388.63,226,410.87,234.55,475.94Z"/><path class="cls-26" d="M219,542.54l-19.2,1.14c-3.4-57.35-12.58-120.14-20.21-131.36-7.61-5.2-35.13-12.52-60.42-17.32a28.61,28.61,0,0,1-10.49-1.84l-1.8-.3.08-.41a29.28,29.28,0,0,1-17-22.2l-1.54-15.59,17.09-.34c-.21,1.26-.62,13.42,4.62,19.86a10.16,10.16,0,0,0,5.94,3.74c6.94,1.47,32.81,3.65,54,9.4,13.72,3.73,25.51,9,29,16.49C207.18,421.48,217.46,527.29,219,542.54Z"/><path class="cls-16" d="M313.09,272.22c-.26-.09-3.06-1.45-6.1-2.93a36.75,36.75,0,0,0-16.85-3.72l-11.17.22s-1.3,17.52-1.36,18.32c-.88,11.15,21.21,8,21.21,8Z"/><path class="cls-16" d="M298.17,275.76l25.68,1.62a3.43,3.43,0,0,0,3.62-3.19h0a3.43,3.43,0,0,0-3.19-3.62l-25.68-1.62a3.43,3.43,0,0,0-3.62,3.19h0A3.43,3.43,0,0,0,298.17,275.76Z"/><path class="cls-16" d="M300.33,284.67l20.57,1.89a3.43,3.43,0,0,0,3.72-3.09h0a3.43,3.43,0,0,0-3.09-3.72L301,277.86a3.43,3.43,0,0,0-3.72,3.09h0A3.43,3.43,0,0,0,300.33,284.67Z"/><path class="cls-16" d="M292.35,292.09l24.41,1.5a3.43,3.43,0,0,0,3.62-3.2h0a3.43,3.43,0,0,0-3.2-3.62l-24.41-1.5a3.43,3.43,0,0,0-3.62,3.2h0A3.43,3.43,0,0,0,292.35,292.09Z"/><path class="cls-27" d="M344.44,257.61v38.27h-32V257.61a3.06,3.06,0,0,1,3.06-3.06h25.85A3.06,3.06,0,0,1,344.44,257.61Z"/><g class="cls-28"><path class="cls-29" d="M312.86,289.33c-.42-.24-10.23-6-11.11-16.05a9.23,9.23,0,0,1,2.4-7.54c3.51-3.63,9.35-3.42,10-3.38L313.9,267c-1.19-.06-4.67.19-6.4,2a4.69,4.69,0,0,0-1.09,3.87c.67,7.66,8.69,12.36,8.78,12.4Z"/></g><path class="cls-30" d="M336.54,278.92h-9.16a5.75,5.75,0,0,1-5.75-5.75h0a5.75,5.75,0,0,1,5.75-5.75h9.16a5.75,5.75,0,0,1,5.75,5.75h0A5.75,5.75,0,0,1,336.54,278.92Z"/><path class="cls-30" d="M329.5,295.87h-17V257.61a3.06,3.06,0,0,1,3.06-3.06h1c0,2,.59,17.26,4.88,28.26C325.16,292.38,328.48,295.2,329.5,295.87Z"/><path class="cls-16" d="M280.25,273.09l25.47-3.63a3.43,3.43,0,0,0,2.9-3.86h0a3.42,3.42,0,0,0-3.86-2.9l-25.47,3.63a3.43,3.43,0,0,0-2.9,3.86h0A3.43,3.43,0,0,0,280.25,273.09Z"/><rect class="cls-31" x="272.22" y="263.96" width="10.66" height="28.55"/><path class="cls-32" d="M196.82,187.91l11.35,72.8c5.75,12.45,9.46,18,23.16,17.91l45.31-.56"/><rect class="cls-16" x="151.41" y="91.13" width="33.67" height="62.4" rx="12.95" ry="12.95"/><path class="cls-33" d="M237.43,56.82q0,1.24-.1,2.49a55.79,55.79,0,0,1-32.55,47.3,55.51,55.51,0,0,1-24.14,5c-13.94-.25-16.68,1.66-28.85-2.68-7-2.5-25.93-13.75-25.93-54.11,0-30,24.6-54,54.25-54.79q1.27,0,2.54,0a55.71,55.71,0,0,1,45.08,24.32l0,0a55.71,55.71,0,0,1,9.69,32.47Z"/><path class="cls-20" d="M165,69.45a8.93,8.93,0,0,1-.8,3.27,10.25,10.25,0,0,1-2.34,3.41A9.61,9.61,0,0,1,155,78.76l-5.63-.3-4.32-.22.64-12.82h0l.11-2.37.09-1.84.09-1.68,0-.44h0l9.93.51a9.48,9.48,0,0,1,8.55,6.5A8.54,8.54,0,0,1,165,69.45Z"/><path class="cls-21" d="M233.37,64l-1.06,20.72-.16,3.1a42.34,42.34,0,0,1-.73,6A43.52,43.52,0,0,1,194,128.52a15.85,15.85,0,0,1-1.7.17,41.33,41.33,0,0,1-6.07.12,44.41,44.41,0,0,1-16.48-4.13l0,0a43.51,43.51,0,0,1-25-37.77c0-.5,0-1,0-1.48a16.67,16.67,0,0,1,0-1.76v-.31l.06-1.4.2-3.7.62-12.69,0-.12v0l.12-2.35.09-1.84.09-1.68,0-.44a34.91,34.91,0,0,1,1.62-8.48,47,47,0,0,1,2.09-5.54c.11-.3.22-.55.34-.81A40,40,0,0,1,152.34,40a.06.06,0,0,1,0,0,43.7,43.7,0,0,1,12.35-13.29c1-.7,2-1.37,3.07-2A44.37,44.37,0,0,1,223,32.87a42,42,0,0,1,8.62,15.31,32,32,0,0,1,1.5,6.72A51.84,51.84,0,0,1,233.37,64Z"/><path class="cls-20" d="M150,65.6l-.66,12.86-.45,8.69L145.51,87a5.52,5.52,0,0,1-.73-.08,11.22,11.22,0,0,1-9.7-11.59,10.32,10.32,0,0,1,3.6-7.3,10.6,10.6,0,0,1,7-2.59h0a4.23,4.23,0,0,1,.89,0Z"/><path class="cls-16" d="M185.07,128.66a29,29,0,0,1-15.28-4l0,0a43.51,43.51,0,0,1-25-37.77,11.22,11.22,0,0,1-9.7-11.59,10.32,10.32,0,0,1,3.6-7.3,10.6,10.6,0,0,1,7-2.59v0l.12-2.35.09-1.84.09-1.68,0-.44h0a34.91,34.91,0,0,1,1.62-8.48c5.89-3.29,11.9-3.91,15.31,3.46,0,0-.34,3.34-.64,8.42-.23,3.8-.45,8.58-.48,13.64-.09,10.42.53,22.06,3.21,29.13C170.77,120.34,185.07,128.66,185.07,128.66Z"/><path class="cls-33" d="M235.08,34h-70.3a8.42,8.42,0,0,1-8.39-8.39h0a8.42,8.42,0,0,1,8.39-8.39h70.3a8.42,8.42,0,0,1,8.39,8.39h0A8.42,8.42,0,0,1,235.08,34Z"/><path class="cls-33" d="M250.39,40.77a11.07,11.07,0,0,1-10.86,13h-64.1a16.65,16.65,0,0,0-16.65,16.65V80.82a6.27,6.27,0,0,1-6.25,6.25H151a6.25,6.25,0,0,1-6.25-6.25V49.6a5.37,5.37,0,0,1,0-.72A10.89,10.89,0,0,1,143,42.77a11.07,11.07,0,0,1,11-11.06h85.06A11.37,11.37,0,0,1,250.39,40.77Z"/><path class="cls-34" d="M228.61,65.5H214.83A2.48,2.48,0,0,1,212.36,63h0a2.48,2.48,0,0,1,2.47-2.47h13.77A2.48,2.48,0,0,1,231.07,63h0A2.48,2.48,0,0,1,228.61,65.5Z"/><path class="cls-34" d="M195.08,65.5H181.31A2.48,2.48,0,0,1,178.84,63h0a2.48,2.48,0,0,1,2.47-2.47h13.77A2.48,2.48,0,0,1,197.55,63h0A2.48,2.48,0,0,1,195.08,65.5Z"/><path class="cls-35" d="M211.47,100.65a12.69,12.69,0,0,1-9.82,3.58,13.1,13.1,0,0,1-8.31-3.37"/><path class="cls-36" d="M212.45,89.39c0,.07-.27,0-.27,0-.06,2.21-2,4-6.74,3.84l-.56-17.45C210,82.2,212.1,85.77,212.45,89.39Z"/><path class="cls-11" d="M217.69,79.36h0a2,2,0,0,1-1.95-1.95V74.17a2,2,0,0,1,1.95-1.95h0a2,2,0,0,1,1.95,1.95v3.24A2,2,0,0,1,217.69,79.36Z"/><path class="cls-11" d="M189.1,79.36h0a2,2,0,0,1-1.95-1.95V74.17a2,2,0,0,1,1.95-1.95h0a2,2,0,0,1,1.95,1.95v3.24A2,2,0,0,1,189.1,79.36Z"/><path class="cls-26" d="M214.13,193.16,203.65,350.37l-82.77,7.91h0l-35.18,3.35-1.12.11,0-.53L95.35,223.36c4-48.95,20.27-83.27,44.61-85.89a53.3,53.3,0,0,1,6.72-.28c.75,0,1.5.06,2.25.11l17.34,1.15A51.4,51.4,0,0,1,214.13,193.16Z"/><rect class="cls-31" x="137.21" y="135.15" width="46" height="200.97" transform="translate(16.04 -10.14) rotate(3.82)"/><polygon class="cls-37" points="167.57 156.47 157.14 139.28 168.18 133.64 180.2 140.82 167.57 156.47"/><polygon class="cls-37" points="160.67 321.35 148.95 303.12 164.46 148.5 172.4 149.8 173.84 304.14 160.67 321.35"/><polygon class="cls-4" points="189.59 148.61 168.91 134.53 142.91 145.5 143.95 129.94 190.62 133.05 189.59 148.61"/><rect class="cls-38" x="129.89" y="335.56" width="46.74" height="9.85" transform="translate(23 -9.44) rotate(3.82)"/><rect class="cls-39" x="150.82" y="335.86" width="16.76" height="10.14" transform="translate(23.04 -9.84) rotate(3.82)"/><path class="cls-40" d="M507.19,200.14c-2,1.45-56.91,23.49-56.91,23.49l-2.68-6.69-7.85-19.62S492,179.24,509.9,161.69c1.94-1.9,11,5,11.73,7.36a4,4,0,0,1,.19,1.65C521,181.42,515.69,194,507.19,200.14Z"/><path class="cls-4" d="M444.72,197.38l8.42,23.15a3.59,3.59,0,0,1-2.11,4.58h0A3.59,3.59,0,0,1,446.4,223l-8.28-23.2a3.51,3.51,0,0,1,1.75-4.33h0A3.51,3.51,0,0,1,444.72,197.38Z"/><path class="cls-41" d="M594.66,213.84,587,342.48h-.11l-26.23-1.13L498,338.67l0-8.78,10.79-73.59-10.34-44.85c1.91-33.47,11.66-66.34,37.78-66.34h16a48.43,48.43,0,0,1,8.22.7,28,28,0,0,1,11.09,4.55C586.41,160.48,593.87,184.95,594.66,213.84Z"/><path class="cls-40" d="M532,261.66s3.21-38.13,6.28-55.5c7.05-39.93,21-59.29,21-59.29l-25.83-6.28-13.65,5.81s-6.71,22.5-3,58.25C518.3,219.26,532,261.66,532,261.66Z"/><path class="cls-4" d="M559.26,147.24l-16.86,1.43a9,9,0,0,1-9-9h23.23a3.18,3.18,0,0,1,3.15,3.63Z"/><path class="cls-4" d="M518.37,149.75l6.1-1.08a9,9,0,0,0,9-9h0l-11.76.13a3.88,3.88,0,0,0-3.82,4.24Z"/><path class="cls-14" d="M519.09,408.73l.65-.26A.52.52,0,0,1,519.09,408.73Z"/><path class="cls-16" d="M447.53,523.46c-11.72-55.54-34.09-120.06-20.27-149.7,7.24-15.53,42.1-27.55,94.55-40.67a33.54,33.54,0,0,0,6.94-3c-.36.18-.63.34-.82.46L546,360.87c-1.78,1.07-3.67,1.88-10.6,4.81-53.56,22.6-74.61,18.8-77,22.12-4.68,32.23,5,80.69,11.44,132Zm20.59-121.83h0Z"/><path class="cls-11" d="M446.09,526.3l-9.89,23.91A12.32,12.32,0,0,1,427,557.3h0A6.4,6.4,0,0,0,421.6,564v0a6.4,6.4,0,0,0,7.22,6L439,568.76a21.13,21.13,0,0,0,13.6-7.39l24.48-29.13a8.78,8.78,0,0,0,1-6.31h0a8.69,8.69,0,0,0-10.8-6.49Z"/><rect class="cls-11" x="469.95" y="524.32" width="7.3" height="38.47"/><path class="cls-12" d="M445.1,523.52l-9.89,23.91a12.32,12.32,0,0,1-9.24,7.09h0a6.4,6.4,0,0,0-5.36,6.73v0a6.4,6.4,0,0,0,7.22,6l7.32-.9a28.55,28.55,0,0,0,18.38-10l22.6-26.89a8.78,8.78,0,0,0,1-6.31h0a8.69,8.69,0,0,0-10.8-6.49Z"/><line class="cls-42" x1="437.41" y1="541.37" x2="443.53" y2="544.15"/><line class="cls-42" x1="439.19" y1="536.61" x2="445.3" y2="539.39"/><line class="cls-42" x1="440.96" y1="532.05" x2="447.08" y2="534.83"/><path class="cls-21" d="M556,352.42l.63-.14c-1.21.14-4.38.43-7.24.69-23,2.11-41,4.41-55.21,7.18-11.87,2.29-27.13,6.33-34.15,9.46-6.22,2.75-11.46,5.37-14.12,9.51-13.95,21.68-26.48,88.9-32.14,145.38l22.87-4.68c10.92-48.34,16.11-72.25,33.79-120.07,1,.52,12.45-.88,21.83-3.12,4.76-1.15,11-2.38,19.08-3.63,10.33-1.62,23.75-3.27,41.13-4.87,7.5-.68,9.54-.88,11.56-1.37Z"/><path class="cls-11" d="M413.58,526.71l-10.9,23.47a12.32,12.32,0,0,1-9.54,6.69h0a6.4,6.4,0,0,0-5.64,6.49v0a6.4,6.4,0,0,0,7,6.27l10.25-.81a21.13,21.13,0,0,0,13.9-6.8L444.33,534a8.78,8.78,0,0,0,1.23-6.27h0A8.69,8.69,0,0,0,435,520.76Z"/><rect class="cls-11" x="436.68" y="525.89" width="7.3" height="38.47" transform="translate(23.68 -18.31) rotate(2.45)"/><path class="cls-43" d="M412.72,523.9l-10.9,23.47a12.32,12.32,0,0,1-9.54,6.69h0a6.4,6.4,0,0,0-5.64,6.49v0a6.4,6.4,0,0,0,7,6.27l7.35-.58a28.55,28.55,0,0,0,18.79-9.19l23.73-25.9a8.78,8.78,0,0,0,1.23-6.27h0a8.69,8.69,0,0,0-10.51-6.95Z"/><line class="cls-42" x1="404.27" y1="541.4" x2="410.26" y2="544.43"/><line class="cls-42" x1="406.25" y1="536.72" x2="412.23" y2="539.75"/><line class="cls-42" x1="408.21" y1="532.24" x2="414.2" y2="535.27"/><path class="cls-16" d="M439.73,361.81s14.55,1,20.27,7.8c0,0,19.23-8.84,35.86,3.12S511.32,393,511.32,393l18.34-1.57s-9.36-27.55-30.15-34.83S439.73,361.81,439.73,361.81Z"/><path class="cls-11" d="M563.94,390.23l-45.45,2.64c.31-.62.05-2.6-3.49-8.42-15.41-25.3-75.25-22.64-75.25-22.64,8.32-9.36,54.25-22.66,54.25-22.66l4.49-9.56,63.89-1.73,1.56,0,22.61,7,.36,7.64.51,10.84A38,38,0,0,1,563.94,390.23Z"/><ellipse class="cls-4" cx="534.58" cy="154.47" rx="1.79" ry="1.2" transform="translate(326.3 670.46) rotate(-84.14)"/><ellipse class="cls-4" cx="533.5" cy="164.89" rx="1.79" ry="1.2" transform="translate(314.96 678.76) rotate(-84.14)"/><ellipse class="cls-4" cx="532.43" cy="175.32" rx="1.79" ry="1.2" transform="translate(303.63 687.05) rotate(-84.14)"/><path class="cls-14" d="M519.09,408.73l.65-.26A.52.52,0,0,1,519.09,408.73Z"/><path class="cls-11" d="M587.4,353.32a38,38,0,0,1-23.47,36.91l-45.45,2.64c.31-.62,0-2.57-3.49-8.42,8.36-3.26,21.3-9,30.89-16.14,9-6.7,12.66-14.74,14.78-27,.42-2.45.78-5.07,1.11-7.91.2-1.78.41-3.65.59-5.58.55-5.82,1.06-12.37,1.68-19.8,2.87-33.48,6.14-150.21,6.71-154a20.48,20.48,0,0,1,.86-3.7c14.8,10.12,22.27,34.59,23,63.48L587,342.48h-.11Z"/><path class="cls-21" d="M469.43,276.06l-19.78-3.16a2.67,2.67,0,0,1-2.21-3h0a2.67,2.67,0,0,1,3-2.21l19.78,3.16a2.67,2.67,0,0,1,2.21,3h0A2.67,2.67,0,0,1,469.43,276.06Z"/><path class="cls-21" d="M463.13,281.41l-15.88-2.54a2.67,2.67,0,0,1-2.21-3h0a2.67,2.67,0,0,1,3-2.21L464,276.16a2.67,2.67,0,0,1,2.21,3h0A2.67,2.67,0,0,1,463.13,281.41Z"/><path class="cls-21" d="M466.81,288.35l-18.8-3a2.67,2.67,0,0,1-2.21-3h0a2.67,2.67,0,0,1,3-2.21l18.8,3a2.67,2.67,0,0,1,2.21,3h0A2.67,2.67,0,0,1,466.81,288.35Z"/><path class="cls-21" d="M460.89,270.95c.21,0,3.61-.46,6.24-.5,4.54-.08,8.72,1.66,12.8,3.67l7.14,3.56s-4.81,14-5.42,14.08c-14.43,2.57-19.86-4.82-19.86-4.82Z"/><path class="cls-21" d="M585.45,205.35s-5.94,24.85-12.53,45.27c-1.84,5.67-3.72,11-5.52,15.35-.53,1.26-1.08,2.5-1.66,3.69-7.23,15-18.28,24.29-35.53,24.29l-51.06-2.32.73-17.65L532,272.07c5.68.07,13-8.75,15.9-14.51.23-.44.43-.87.6-1.28,1.33-3.13,2.74-7,4.19-11.22,8.65-25.6,18.41-67,18.41-67Z"/><path class="cls-16" d="M552.69,245.06l20.23,5.55c-1.84,5.67-3.72,11-5.52,15.35-.53,1.26-1.08,2.5-1.66,3.69l-17.83-12.1Z"/><path class="cls-40" d="M587.56,196.05a36.15,36.15,0,0,1-.76,7.42l-11.22,53.95-7-1.76-20.49-5.18,19.48-79.72a4.45,4.45,0,0,1,5.77-3.14,4,4,0,0,1,1.45.82A36.32,36.32,0,0,1,587.56,196.05Z"/><path class="cls-4" d="M551.07,246.48l23.68,6.79a3.59,3.59,0,0,1,2.47,4.4h0a3.59,3.59,0,0,1-4.47,2.49l-23.63-6.94a3.51,3.51,0,0,1-2.47-4h0A3.51,3.51,0,0,1,551.07,246.48Z"/><path class="cls-44" d="M143.07,137.52,127.35,356.1s-2.54,1-6.47,2.18h0c-9.08,2.81-25.53,6.91-35.18,3.35a11,11,0,0,1-1.08-.42L95.35,223.36c4-48.95,20.27-83.27,44.61-85.89C142.18,137.24,140.79,137.48,143.07,137.52Z"/><path class="cls-45" d="M114.79,177.67l104.06,71.7s-32.78,10.16-60.66-4.35S117.08,203.89,114.79,177.67Z"/><path class="cls-21" d="M342.43,211.73l24,15.08a3.67,3.67,0,0,0,5.11-1.22h0a3.87,3.87,0,0,0-1.26-5.22l-24-15.08a3.67,3.67,0,0,0-5.11,1.22h0A3.87,3.87,0,0,0,342.43,211.73Z"/><path class="cls-21" d="M342.4,221.52l19.27,12.11a3.67,3.67,0,0,0,5.11-1.22h0a3.87,3.87,0,0,0-1.26-5.22l-19.27-12.11a3.67,3.67,0,0,0-5.11,1.22h0A3.87,3.87,0,0,0,342.4,221.52Z"/><path class="cls-21" d="M332.79,225.22l22.8,14.33a3.67,3.67,0,0,0,5.11-1.22h0a3.87,3.87,0,0,0-1.26-5.22l-22.8-14.33a3.67,3.67,0,0,0-5.11,1.22h0A3.87,3.87,0,0,0,332.79,225.22Z"/><path class="cls-21" d="M353.1,212.89c-.29-.1-1.85-3.27-5.21-4.94a40.92,40.92,0,0,0-18.72-4.31l-9.8.61s-5.06,19.38-4.33,19.91c17.72,12.79,28.6,7.17,28.6,7.17Z"/><rect class="cls-31" x="313.05" y="204.17" width="9.55" height="31.03" transform="translate(-30.83 53.21) rotate(-9.13)"/><path class="cls-46" d="M126.11,168.61c16.6,25.27,69.45,83.73,190,52.73"/><path class="cls-47" d="M498.79,104.78a89.41,89.41,0,0,0,14.62.19S506.59,115.5,498.79,104.78Z"/><path class="cls-16" d="M558.44,85.63a7,7,0,0,1-6.39,7.57c-3.91.39-4-2.71-4.34-6.5s-.94-6.83,3-7.22A7,7,0,0,1,558.44,85.63Z"/><path class="cls-18" d="M524.2,67.08c12.6,3.61,17.11,5.59,17.5,13.67.33,6.83,7.84,9.13,8.06,6.87.19-1.95,0-6.78,0-8.09,0-2.24-1.07-15.11-1.07-15.11Z"/><path class="cls-21" d="M341.41,206.92l11.38-5.12a20.3,20.3,0,0,0-12.4-3.09c-7.24.58-19.85,5.59-19.85,5.59l10.35,6.09Z"/><path class="cls-16" d="M339.42,224.83a3.35,3.35,0,0,1,.45,1.31,3.4,3.4,0,0,1-.58,2.4l-3.18,5.65a3.46,3.46,0,0,1-4.79.87,3.35,3.35,0,0,1-1-1.08,3.47,3.47,0,0,1,.13-3.71l1.81-2.87,1.37-2.78a3.46,3.46,0,0,1,4.79-.87A3.35,3.35,0,0,1,339.42,224.83Z"/><path class="cls-16" d="M346.19,226.86a3.72,3.72,0,0,1,.5,1.46A3.78,3.78,0,0,1,346,231l-3.54,6.28a3.84,3.84,0,0,1-5.32,1,3.73,3.73,0,0,1-1.11-1.2,3.86,3.86,0,0,1,.14-4.13l2-3.19,1.52-3.09a3.84,3.84,0,0,1,5.32-1A3.73,3.73,0,0,1,346.19,226.86Z"/><path class="cls-16" d="M351.71,230.87a3.35,3.35,0,0,1,.45,1.31,3.4,3.4,0,0,1-.58,2.4l-3.18,5.65a3.46,3.46,0,0,1-4.79.87,3.35,3.35,0,0,1-1-1.08,3.47,3.47,0,0,1,.13-3.71l1.81-2.87,1.37-2.78a3.46,3.46,0,0,1,4.79-.87A3.35,3.35,0,0,1,351.71,230.87Z"/><path class="cls-16" d="M349.16,206.33a3.35,3.35,0,0,1,.12,1.38,3.41,3.41,0,0,1-1.13,2.2l-8.62,8.26a3.46,3.46,0,0,1-4.86-.29,3.36,3.36,0,0,1-.71-1.28,3.47,3.47,0,0,1,1-3.58l2.44-2.36,6.18-5.9a3.46,3.46,0,0,1,4.86.29A3.36,3.36,0,0,1,349.16,206.33Z"/><path class="cls-16" d="M340.66,211.17c.25-1.37,0-3.52,2.13-5.67,3.92-4,10.92-6.07,22.52-4.32s3,15.12,3,15.12-3.75.25-9.12-2.62-11.5-3.87-15.25.13S340.66,211.17,340.66,211.17Z"/></g></g></g></svg>