<svg xmlns="http://www.w3.org/2000/svg" viewBox="0 0 770.58 759.05"><defs><style>.cls-1{isolation:isolate;}.cls-2{fill:#91deff;}.cls-3{fill:#53aeba;}.cls-4{opacity:0.1;}.cls-4,.cls-6{mix-blend-mode:multiply;}.cls-5{fill:#145f80;}.cls-6{opacity:0.2;}.cls-34,.cls-7,.cls-8{fill:#fff;}.cls-10,.cls-11,.cls-12,.cls-8{stroke:#145f80;}.cls-10,.cls-11,.cls-12,.cls-27,.cls-34,.cls-8{stroke-miterlimit:10;}.cls-8{stroke-dasharray:5;}.cls-9{fill:#f0221f;}.cls-10,.cls-11,.cls-12,.cls-13,.cls-21,.cls-27{fill:none;}.cls-11{stroke-dasharray:5.8 5.8;}.cls-12{stroke-dasharray:5.8 5.8;}.cls-13{stroke:#094e59;}.cls-13,.cls-21{stroke-linecap:round;stroke-linejoin:round;}.cls-14{fill:#eb3a38;}.cls-15{fill:#e6b48a;}.cls-16{fill:#ffc899;}.cls-17{fill:#ff4542;}.cls-18{fill:#0a2f40;}.cls-19{fill:#6e4b2e;}.cls-20{fill:#104e69;}.cls-21{stroke:#d6935a;}.cls-22{fill:#d6935a;}.cls-23{fill:#104c66;}.cls-24{fill:#b3b3b3;}.cls-25{fill:#ccc;}.cls-26{fill:#489eab;}.cls-27{stroke:#fff;stroke-width:3px;}.cls-28{fill:#76d9e8;}.cls-29{font-size:31.71px;fill:#094e59;font-family:Roboto-Regular, Roboto;}.cls-30{letter-spacing:-0.03em;}.cls-31{letter-spacing:-0.01em;}.cls-32{letter-spacing:-0.02em;}.cls-33{fill:#5ca5c4;}.cls-34{stroke:#000;}.cls-35{fill:#47311e;}.cls-36{fill:#5c3f27;}.cls-37{fill:#67b9db;}.cls-38{fill:#595959;}</style></defs><title>webconstruction</title><g class="cls-1"><g id="Layer_2" data-name="Layer 2"><g id="Objects"><rect class="cls-2" x="150.78" y="264.22" width="469" height="378.58" rx="10" ry="10"/><path class="cls-3" d="M150.78,533.59V632.8a10,10,0,0,0,10,10h449a10,10,0,0,0,10-10V533.59Z"/><path class="cls-4" d="M150.78,533.59v3.82c0,.21,4.48.38,10,.38h449c5.52,0,10-.17,10-.38v-3.82Z"/><rect class="cls-5" x="150.78" y="285.22" width="469" height="94"/><rect class="cls-4" x="150.78" y="379.22" width="469" height="6.31"/><rect class="cls-6" x="150.78" y="273.37" width="469" height="31" rx="10" ry="10"/><rect class="cls-3" x="150.78" y="264.22" width="469" height="31" rx="10" ry="10"/><path class="cls-4" d="M619.78,285.22a10,10,0,0,1-10,10h-449a10,10,0,0,1-10-10Z"/><rect class="cls-7" x="183.28" y="315.22" width="404" height="34"/><rect class="cls-4" x="183.28" y="344.79" width="404" height="4.73"/><rect class="cls-8" x="183.28" y="402.67" width="195.52" height="112.5"/><rect class="cls-5" x="183.28" y="402.67" width="87.87" height="112.5"/><rect class="cls-5" x="496.54" y="402.67" width="90.74" height="64.15"/><rect class="cls-8" x="393.24" y="402.67" width="90.74" height="64.15"/><rect class="cls-5" x="393.24" y="477.56" width="194.04" height="37.61"/><rect class="cls-8" x="183.19" y="550.6" width="126.94" height="13.65"/><rect class="cls-7" x="321.77" y="550.6" width="126.94" height="13.65"/><rect class="cls-7" x="460.34" y="550.6" width="126.94" height="13.65"/><rect class="cls-7" x="183.19" y="575.1" width="126.94" height="13.65"/><rect class="cls-7" x="183.19" y="598.66" width="404.09" height="22.83"/><rect class="cls-8" x="321.77" y="575.1" width="126.94" height="13.65"/><rect class="cls-7" x="460.34" y="575.1" width="126.94" height="13.65"/><path class="cls-7" d="M226.53,419.86a30.18,30.18,0,0,0-12.22,57.71L227,498l12.45-20.56a30.19,30.19,0,0,0-12.93-57.56Zm.26,42.3a12.1,12.1,0,1,1,12-12.17A12.1,12.1,0,0,1,226.78,462.16Z"/><circle class="cls-7" cx="544.81" cy="279.72" r="6.34"/><circle class="cls-7" cx="570.76" cy="279.72" r="6.34"/><circle class="cls-9" cx="596.7" cy="279.72" r="6.34"/><polyline class="cls-10" points="553.28 346.73 553.28 349.23 555.78 349.23"/><line class="cls-11" x1="561.58" y1="349.22" x2="581.88" y2="349.22"/><polyline class="cls-10" points="584.78 349.23 587.28 349.23 587.28 346.73"/><line class="cls-12" x1="587.28" y1="340.92" x2="587.28" y2="320.62"/><polyline class="cls-10" points="587.28 317.73 587.28 315.23 584.78 315.23"/><line class="cls-11" x1="578.98" y1="315.22" x2="558.68" y2="315.22"/><polyline class="cls-10" points="555.78 315.23 553.28 315.23 553.28 317.73"/><line class="cls-12" x1="553.28" y1="323.52" x2="553.28" y2="343.82"/><polygon class="cls-6" points="396.39 264.23 389.62 312.14 479.46 324.83 488.03 264.23 396.39 264.23"/><path class="cls-6" d="M231.7,467.47a9.93,9.93,0,0,0-3.44,6.5l-4.19,1.67-1.17-2.3L197.74,483.4l-27.09-12.88a20.87,20.87,0,0,0-8.38-3.63l.1-1.71.84,0c17.46-1.09,23.94-14.76,22.85-32.21l-1.15-18.33c5.5-3.79,5.63-12.68,1.78-22.79-4.4,8.31-15.18-1.61-34.65,1.71-1.1.19-2.18.44-3.25.73V529.42c1,.12,2,.22,2.94.28l.52,0,.63,28.82c0,.22,0,.44,0,.66l-4.14,16.59v10.59h0V600l8.86,4.17c3,1.57,5.84,2.16,7.4-.87,1.31-2.54-3.37-7.67-6.71-10.19l.78-3.11,1.91.66,7.24-29a7.72,7.72,0,0,0,.11-4.72l-.68-30.78c3-2.44,4.8-6.23,5.15-11.72l1.62-22.74,20,7.27a12.92,12.92,0,0,0,7.71-.68l27.76-11.09-.91-1.8,4.13-1.65a10,10,0,0,0,11.58-1l83,34.21L370.6,413l-99.54-41Z"/><line class="cls-13" x1="706.35" y1="242" x2="674.29" y2="341.65"/><path class="cls-6" d="M619.78,354.86l-11.06-10.33-1.92,1.72-3.29-3.08a10.13,10.13,0,1,0-8.1,7.34l3.25,3-1.5,1.35,21.6,20.17a7.71,7.71,0,0,0,.84.84l.19.15Z"/><rect class="cls-6" x="555.43" y="319.76" width="33.96" height="33.96" transform="translate(-40.49 81) rotate(-7.82)"/><rect class="cls-2" x="558.12" y="316.13" width="33.96" height="33.96" transform="translate(-39.97 81.34) rotate(-7.82)"/><path class="cls-7" d="M587.34,340.72l-5.62-4.26a2,2,0,0,0-.7-1l-.59-.45a9.2,9.2,0,1,0-2.41,3.18l.59.45a2,2,0,0,0,1.18.4l5.62,4.26a1.6,1.6,0,0,0,1.93-2.55Zm-18.74-5a5.74,5.74,0,1,1,8-1.1A5.74,5.74,0,0,1,568.6,335.72Z"/><polygon class="cls-4" points="560.58 352.25 594.23 347.63 589.61 313.98 560.58 352.25"/><path class="cls-14" d="M624.33,359.06a7.77,7.77,0,0,0-3.87,10.28h0a7.76,7.76,0,0,0,10.28,3.86L661,359.5a7.77,7.77,0,0,0,3.86-10.28h0c-1.77-3.91-4.55-10.33-8.45-8.55Z"/><path class="cls-15" d="M597.47,345.86l15.38,14.36a5.47,5.47,0,0,0,7.72.43h0a5.47,5.47,0,0,0,.43-7.72l-15.38-14.36Z"/><path class="cls-14" d="M600,351l21.85,20.4c2.86,3.2,6.72,3.54,11,.61h0a7.76,7.76,0,0,0,.61-11l-21.85-20.4Z"/><circle class="cls-16" cx="596.7" cy="336.74" r="10.04"/><path class="cls-17" d="M709.77,344.33a7.77,7.77,0,0,0,7.42-8.09h0a7.76,7.76,0,0,0-8.09-7.42l-33.17,1.43a7.77,7.77,0,0,0-7.42,8.09h0c.19,4.28.37,11.28,4.65,11.09Z"/><path class="cls-15" d="M695.07,303.39l5.35,20.35a5.47,5.47,0,0,0,6.3,4.48h0a5.47,5.47,0,0,0,4.48-6.3l-5.35-20.36Z"/><path class="cls-17" d="M694.5,309.13,702.1,338c.72,4.23,4.16,6.27,8.39,5.55l.79.52a7.33,7.33,0,0,0,6.13-8.66l-7.6-28.92Z"/><path class="cls-5" d="M730.29,394.94a7.77,7.77,0,0,1-.57,11h0a7.76,7.76,0,0,1-11-.57l-22.22-24.67a7.76,7.76,0,0,1,.57-11h0a7.76,7.76,0,0,1,11,.57Z"/><path class="cls-18" d="M760.19,393.6l-19.85,7a5.47,5.47,0,0,1-7.24-2.7h0a5.47,5.47,0,0,1,2.7-7.24l19.85-7Z"/><path class="cls-5" d="M755.76,397.3l-28.19,9.95a7.76,7.76,0,0,1-10.29-3.83h0a7.76,7.76,0,0,1,3.83-10.29l28.19-9.95Z"/><path class="cls-19" d="M768.89,392.66c1.85,2.87,2.7,5.61-.16,7.45h0c-2.87,1.85-10.23-4.48-12.08-7.34l-2.88-5.35a6.18,6.18,0,0,1,1.85-8.54h0c2.87-1.85,5,.06,6.86,2.93Z"/><path class="cls-20" d="M708.74,420a7.77,7.77,0,0,1-3.79,10.31h0a7.77,7.77,0,0,1-10.31-3.79L680.71,396.4a7.77,7.77,0,0,1,3.79-10.31h0a7.77,7.77,0,0,1,10.31,3.79Z"/><path class="cls-18" d="M737.7,427.58l-21,.82a5.46,5.46,0,0,1-6.12-4.72h0a5.46,5.46,0,0,1,4.72-6.12l21-.82Z"/><path class="cls-20" d="M732.38,429.8,702.51,431a7.76,7.76,0,0,1-8.7-6.71h0a7.76,7.76,0,0,1,6.7-8.69l29.87-1.17Z"/><path class="cls-19" d="M746.29,429.25c.92,3.29.92,6.15-2.36,7.07h0c-3.29.92-8.45-7.3-9.37-10.59l-1.17-6a6.17,6.17,0,0,1,4.29-7.61h0c3.28-.92,4.77,1.54,5.68,4.83Z"/><path class="cls-17" d="M707.53,365.07c0,8.94-6.12,14-16.81,20.1h0c-10.69,6.09-11.79,5.38-21.9,2L652.47,359c-6.09-10.69,1.62-18,12.31-24.08h0c10.69-6.09,20.31-8.68,26.41,2Z"/><path class="cls-15" d="M673.24,334.64a8.16,8.16,0,0,1-3.13,11.11h0A8.16,8.16,0,0,1,659,342.61l-8.64-15.43a8.16,8.16,0,0,1,3.13-11.11h0a8.16,8.16,0,0,1,11.11,3.13Z"/><path class="cls-16" d="M677.06,305.75c-2.45,18.64-7.92,29.19-24.86,33.53h0c-16.94,4.35-27.33-6.65-31.67-23.59L616,297.87c-4.35-16.94,8.42-24.23,25.36-28.58h0C658.26,265,672.08,276,676.43,293Z"/><path class="cls-19" d="M660.91,270.56a32.54,32.54,0,0,0-1.45,20.61c3.11,12.12,5.85,22.63,17.21,25.39a34.86,34.86,0,0,0,1-19.21L676.43,293C673.81,282.8,670,274.18,660.91,270.56Z"/><path class="cls-15" d="M665.08,295.5a6.62,6.62,0,0,0-2.35,1.13l3,11.88a6.64,6.64,0,1,0-.7-13Z"/><circle class="cls-19" cx="624.01" cy="307.99" r="1.9" transform="translate(-56.97 164.78) rotate(-14.39)"/><circle class="cls-19" cx="647.72" cy="301.91" r="1.9" transform="translate(-54.72 170.48) rotate(-14.39)"/><path class="cls-21" d="M644.76,325.19a5.8,5.8,0,0,1-10.08,4.68"/><path class="cls-19" d="M665.84,308.74a3.16,3.16,0,0,1-2.27,3.84h0c-1.69.43-2.32-1.45-2.75-3.14L658.49,285c-.43-1.69.19,5.63,1.88,5.19l1.16,1.77c1.69-.43.62,2.42,1.05,4.11Z"/><path class="cls-19" d="M666.28,273.72a35.75,35.75,0,0,0-25.54-6c-19.54,2.85-26.74,15.61-33.49,9.06-.71,13.91,4.25,23.88,15.13,21.06C639.21,293.47,659.15,285.94,666.28,273.72Z"/><path class="cls-22" d="M638.74,319.52a2.77,2.77,0,0,1-2,3.38h0a2.78,2.78,0,0,1-3.38-2l-2.63-10.26a2.78,2.78,0,0,1,2-3.38h0a2.77,2.77,0,0,1,3.38,2Z"/><path class="cls-5" d="M668.81,387.14c6.09,10.69,15,10.54,25.69,4.45s19.12-15.83,13-26.52Z"/><line class="cls-13" x1="710.49" y1="0.5" x2="710.49" y2="201.23"/><path class="cls-23" d="M705.69,198.74a4.81,4.81,0,0,0,4.81,4.81h0a4.81,4.81,0,0,0,4.81-4.81V187.89a4.81,4.81,0,0,0-4.81-4.81h0a4.81,4.81,0,0,0-4.81,4.81Z"/><path class="cls-5" d="M716.46,206.08v-9.79H704.54v13.44a6,6,0,0,0,6,6h.09A13.29,13.29,0,1,1,697.2,229a5.18,5.18,0,0,0-10.37,0,23.65,23.65,0,1,0,29.63-22.89Z"/><line class="cls-13" x1="710.49" y1="242.56" x2="680.71" y2="396.4"/><circle class="cls-16" cx="699.29" cy="295.27" r="10.04" transform="translate(76.43 729.12) rotate(-57.75)"/><rect class="cls-24" x="92.86" y="604.39" width="87.87" height="61.19"/><polygon class="cls-25" points="171.13 589.33 105.94 589.33 92.86 604.39 180.72 604.39 171.13 589.33"/><ellipse class="cls-4" cx="136.79" cy="596.86" rx="28.25" ry="6.42"/><path class="cls-26" d="M195.82,480.36a7.77,7.77,0,0,1,4.65,9.95h0a7.77,7.77,0,0,1-9.95,4.65l-31.21-11.33a7.76,7.76,0,0,1-4.65-9.95h0c1.46-4,3.74-10.65,7.77-9.18Z"/><path class="cls-15" d="M230.27,479.31l-19.54,7.81a5.47,5.47,0,0,1-7.35-2.4h0a5.47,5.47,0,0,1,2.4-7.35l19.54-7.81Z"/><path class="cls-26" d="M226,483.19l-27.76,11.09a7.76,7.76,0,0,1-10.44-3.41h0a7.76,7.76,0,0,1,3.41-10.43L219,469.34Z"/><circle class="cls-16" cx="234.28" cy="471.09" r="10.04" transform="translate(-289.7 518.6) rotate(-68.74)"/><path class="cls-3" d="M113.29,490a7.77,7.77,0,0,1-10.23-4h0a7.76,7.76,0,0,1,4-10.22l27-12.3c3.93-1.72,11.93-.91,13.65,3h0c1.72,3.93,4.63,10.29.7,12Z"/><path class="cls-15" d="M84.51,456l16.09,13.56a5.46,5.46,0,0,1,1.34,7.61h0a5.46,5.46,0,0,1-7.61,1.34L78.24,464.93Z"/><path class="cls-3" d="M89.94,457.92l22.86,19.27A7.77,7.77,0,0,1,114.7,488h0a7.76,7.76,0,0,1-10.81,1.91L81,470.64Z"/><circle class="cls-16" cx="76.41" cy="455.97" r="10.04" transform="translate(-192.59 79.96) rotate(-26.07)"/><path class="cls-5" d="M118.55,541.5a7.77,7.77,0,0,0,5.33,9.6h0a7.76,7.76,0,0,0,9.6-5.33l9.12-31.92a7.76,7.76,0,0,0-5.33-9.6h0a7.76,7.76,0,0,0-9.6,5.33Z"/><path class="cls-16" d="M102.46,571.17l16.1-13.56A5.47,5.47,0,0,0,119.9,550h0a5.47,5.47,0,0,0-7.61-1.35l-16.1,13.56Z"/><path class="cls-5" d="M107.89,569.22,130.76,550a7.76,7.76,0,0,0,1.91-10.81h0a7.76,7.76,0,0,0-10.81-1.91L99,556.5Z"/><path class="cls-19" d="M97.24,578.18c1.54,3,3.46,5.17,6.51,3.64h0c3-1.54,1.33-11.09-.21-14.14l-3.15-5.19a6.18,6.18,0,0,0-8.3-2.74h0c-3,1.53-2.49,4.35-1,7.39Z"/><path class="cls-20" d="M148.92,554.55a7.77,7.77,0,0,0,7.93,7.59h0a7.77,7.77,0,0,0,7.59-7.93L163.72,521a7.77,7.77,0,0,0-7.93-7.59h0a7.77,7.77,0,0,0-7.59,7.93Z"/><path class="cls-16" d="M153.81,591.4,158.9,571a5.46,5.46,0,0,0-3.37-7h0a5.47,5.47,0,0,0-7,3.37l-5.1,20.42Z"/><path class="cls-20" d="M157.07,586.64l7.24-29a7.76,7.76,0,0,0-4.79-9.88h0a7.76,7.76,0,0,0-9.88,4.79l-7.24,29Z"/><path class="cls-19" d="M153.7,600.15c3,1.57,5.84,2.16,7.4-.87h0c1.57-3-5.42-9.76-8.45-11.33l-5.6-2.36a6.18,6.18,0,0,0-8.32,2.64h0c-1.57,3,.53,5,3.56,6.55Z"/><path class="cls-3" d="M124.41,507.61c3.95,8,11.66,9.89,23.94,10.67h0c12.28.78,13-.34,20.54-7.86L171.2,478c.78-12.28-9.36-15.45-21.64-16.23h0c-12.28-.78-22.06,1.13-22.84,13.41Z"/><path class="cls-15" d="M141.84,465.21a8.16,8.16,0,0,0,7.69,8.6h0a8.16,8.16,0,0,0,8.6-7.69l1-17.66a8.16,8.16,0,0,0-7.69-8.6h0a8.16,8.16,0,0,0-8.6,7.69Z"/><path class="cls-16" d="M125.26,436.92c8.08,17,16.54,25.32,34,24.23h0c17.46-1.09,23.94-14.76,22.85-32.21l-1.15-18.36c-1.09-17.46-15.48-20.45-32.94-19.36h0c-17.46,1.09-27.18,15.9-26.09,33.36Z"/><path class="cls-19" d="M129.76,398.46a32.54,32.54,0,0,1,7.74,19.16c.78,12.49,1.42,23.33-8.54,29.46a34.86,34.86,0,0,1-6.85-18l-.19-4.52C121.26,414.09,122.26,404.7,129.76,398.46Z"/><path class="cls-15" d="M133.49,423.47a6.66,6.66,0,0,1,2.58.35l.77,12.25a6.64,6.64,0,1,1-3.35-12.59Z"/><circle class="cls-19" cx="176.41" cy="422.69" r="1.9" transform="translate(-25.88 11.76) rotate(-3.56)"/><circle class="cls-19" cx="151.98" cy="424.21" r="1.9" transform="translate(-26.25 10.34) rotate(-3.59)"/><path class="cls-21" d="M162,445.45a5.8,5.8,0,0,0,11,1.34"/><path class="cls-19" d="M136.85,436.3a3.16,3.16,0,0,0,3.35,3h0c1.74-.11,1.76-2.1,1.65-3.84l-5-18.71c-.11-1.74-2.77.11-4.51.22l3.44,2c-1.74.11.16,2.5.27,4.24Z"/><path class="cls-19" d="M125.63,403.13a35.75,35.75,0,0,1,22.45-13.59c19.47-3.32,30.25,6.6,34.65-1.71,5,13,3.32,24-7.9,24.7C157.47,413.56,136.18,412.55,125.63,403.13Z"/><path class="cls-22" d="M166,438.19a2.77,2.77,0,0,0,2.94,2.6h0a2.78,2.78,0,0,0,2.6-2.94l-.66-10.57a2.78,2.78,0,0,0-2.94-2.6h0a2.77,2.77,0,0,0-2.59,2.94Z"/><path class="cls-5" d="M168.89,510.42c-.78,12.28-8.84,16.06-21.12,15.28s-24.13-5.81-23.36-18.09Z"/><line class="cls-13" x1="56.96" y1="319.5" x2="80.59" y2="393.49"/><line class="cls-13" x1="52.82" y1="0.5" x2="52.82" y2="279.72"/><path class="cls-23" d="M58.45,269a5.65,5.65,0,0,1-5.65,5.65h0A5.65,5.65,0,0,1,47.16,269V256.24a5.65,5.65,0,0,1,5.65-5.65h0a5.65,5.65,0,0,1,5.65,5.65Z"/><path class="cls-5" d="M74.5,298.38a6.08,6.08,0,0,0-6.08,6.08,15.6,15.6,0,1,1-15.72-15.59h.11a7,7,0,0,0,7-7V266.1h-14v11.49a27.77,27.77,0,1,0,34.78,26.87A6.08,6.08,0,0,0,74.5,298.38Z"/><rect class="cls-3" x="20.73" y="369.54" width="64.15" height="90.74" transform="translate(-359.26 343.22) rotate(-72.88)"/><path class="cls-7" d="M52.7,419.24a15.61,15.61,0,0,0-.4-7l3.64-1.06a19.64,19.64,0,0,0-4.19-7.57l-2.83,2.53a15.58,15.58,0,0,0-5.66-4l1.45-3.49-.1,0a19.29,19.29,0,0,0-8.54-1.41L36.3,401a15.73,15.73,0,0,0-6.69,2l-1.84-3.31a19.52,19.52,0,0,0-6.43,5.8l3.1,2.18a15.31,15.31,0,0,0-2.64,6.45l-3.74-.62a19.51,19.51,0,0,0,.52,8.64L22.2,421a15.74,15.74,0,0,0,3.39,6.08l-2.82,2.54a19.27,19.27,0,0,0,7.08,5l1.44-3.5h0a15.56,15.56,0,0,0,6.85,1.12l.23,3.79a19.64,19.64,0,0,0,8.3-2.42l-1.84-3.31A15.6,15.6,0,0,0,50,425.68l3.1,2.19a19.6,19.6,0,0,0,3.3-8Zm-17.82,3.2A6.26,6.26,0,1,1,43,419,6.26,6.26,0,0,1,34.88,422.43Z"/><path class="cls-7" d="M84.31,412.44l3.07.67a16.26,16.26,0,0,0-.06-7.17l-3.06.72a12.94,12.94,0,0,0-2.53-5.17l2.44-2-.06-.07A16,16,0,0,0,78.44,395l-1.33,2.86a13,13,0,0,0-5.65-1.22l0-3.14a16.16,16.16,0,0,0-7,1.68l1.4,2.81a12.67,12.67,0,0,0-4.48,3.65l-2.48-1.94a16.18,16.18,0,0,0-3,6.51l3.07.66a13,13,0,0,0,.07,5.78l-3.06.73a16,16,0,0,0,3.19,6.43l2.43-2,0,0a13,13,0,0,0,4.55,3.53l-1.34,2.85a16.25,16.25,0,0,0,7,1.52l0-3.14a12.93,12.93,0,0,0,5.62-1.34l1.39,2.82a16.25,16.25,0,0,0,5.56-4.52l-2.47-1.94A12.93,12.93,0,0,0,84.31,412.44Zm-9.4,1.24a5.2,5.2,0,1,1,.73-7.31A5.2,5.2,0,0,1,74.91,413.68Z"/><polygon class="cls-4" points="105.6 397.61 86.72 458.92 0 432.2 105.6 397.61"/><line class="cls-13" x1="52.82" y1="320.06" x2="13.09" y2="436.24"/><line class="cls-13" x1="440.18" y1="221.76" x2="463.81" y2="261.31"/><line class="cls-13" x1="436.05" y1="0.5" x2="436.05" y2="188.56"/><path class="cls-23" d="M440.4,180.24A4.37,4.37,0,0,1,436,184.6h0a4.37,4.37,0,0,1-4.37-4.37v-9.85A4.37,4.37,0,0,1,436,166h0a4.37,4.37,0,0,1,4.37,4.37Z"/><path class="cls-5" d="M452.82,203a4.71,4.71,0,0,0-4.71,4.71A12.07,12.07,0,1,1,436,195.63H436a5.41,5.41,0,0,0,5.41-5.41V178H430.62v8.91a21.47,21.47,0,1,0,26.91,20.76A4.71,4.71,0,0,0,452.82,203Z"/><path class="cls-4" d="M441.45,178H430.62v8.91A21.51,21.51,0,0,0,420.37,193l20.56-.53a5.38,5.38,0,0,0,.52-2.29Z"/><rect class="cls-2" x="403.96" y="237.36" width="64.15" height="90.74" transform="translate(95.08 674.91) rotate(-81.96)"/><polygon class="cls-7" points="460.57 269.66 416.7 262.99 435.3 288.27 460.57 269.66"/><polygon class="cls-7" points="446.06 284.99 458.92 302.46 463.53 272.13 446.06 284.99"/><polygon class="cls-7" points="413.14 264.47 408.53 294.8 426 281.94 413.14 264.47"/><polygon class="cls-7" points="434.5 293.5 428.21 284.96 413.05 296.12 454.21 302.38 443.05 287.21 434.5 293.5"/><polygon class="cls-4" points="485.44 257.32 476.46 320.83 386.62 308.14 485.44 257.32"/><line class="cls-13" x1="436.05" y1="219.32" x2="394.54" y2="309.9"/><rect class="cls-17" x="245.22" y="386.96" width="112.5" height="107.66" transform="translate(-220.94 551.58) rotate(-67.6)"/><circle class="cls-27" cx="301.47" cy="440.79" r="37.81" transform="translate(-220.94 551.58) rotate(-67.6)"/><polygon class="cls-7" points="283.3 452.69 296.13 421.56 319.51 449.4 283.3 452.69"/><polygon class="cls-4" points="329.8 513.31 230.26 472.29 273.13 368.28 329.8 513.31"/><line class="cls-13" x1="200.66" y1="77.75" x2="224.29" y2="151.74"/><line class="cls-13" x1="525.83" y1="60.51" x2="502.2" y2="133.51"/><rect class="cls-28" x="163.23" y="109.16" width="444.09" height="79.08" transform="translate(-3.68 9.91) rotate(-1.47)"/><text class="cls-29" transform="translate(206.24 164.53) rotate(-1.47)">WEB DEVE<tspan class="cls-30" x="150.78" y="0">L</tspan><tspan x="166.84" y="0">OPME</tspan><tspan class="cls-31" x="254.36" y="0">N</tspan><tspan class="cls-32" x="276.52" y="0">T</tspan></text><polygon class="cls-4" points="608.26 182.55 164.32 193.91 162.29 114.86 608.26 182.55"/><line class="cls-13" x1="196.53" y1="0.5" x2="196.53" y2="37.98"/><path class="cls-23" d="M201.94,29.06a5.43,5.43,0,0,1-5.43,5.43h0a5.43,5.43,0,0,1-5.43-5.43V16.81a5.43,5.43,0,0,1,5.43-5.43h0a5.43,5.43,0,0,1,5.43,5.43Z"/><path class="cls-5" d="M217.4,57.37a5.86,5.86,0,0,0-5.86,5.86,15,15,0,1,1-15.13-15h.1a6.73,6.73,0,0,0,6.73-6.73V26.3H189.78V37.36a26.73,26.73,0,1,0,33.48,25.86A5.86,5.86,0,0,0,217.4,57.37Z"/><line class="cls-13" x1="196.53" y1="78.31" x2="190.86" y2="194.49"/><line class="cls-13" x1="529.97" y1="0.5" x2="529.97" y2="19.74"/><path class="cls-23" d="M525.86,22.91A4.12,4.12,0,0,0,530,27h0a4.12,4.12,0,0,0,4.12-4.12v-9.3A4.12,4.12,0,0,0,530,9.48h0a4.12,4.12,0,0,0-4.12,4.12Z"/><path class="cls-5" d="M535.09,29.23V20.81H524.87V32.34A5.11,5.11,0,0,0,530,37.45H530a11.39,11.39,0,1,1-11.46,11.39,4.44,4.44,0,0,0-8.89,0,20.28,20.28,0,1,0,25.41-19.6Z"/><line class="cls-13" x1="529.97" y1="60.07" x2="587.28" y2="183.08"/><polygon class="cls-5" points="407.18 741.81 283.27 741.81 303.6 686.3 386.85 686.3 407.18 741.81"/><path class="cls-2" d="M329.72,710.87a31.69,31.69,0,0,0-5.29-.43c-7.45,0-14.09,2.37-14.84,5.4s5.08,5.84,13.15,5.84,14.75-2.67,14.91-5.84a2.28,2.28,0,0,0-.15-.88l.79-14.57h23.2l1.33,10.47a33.52,33.52,0,0,0-5.39-.43c-7.46,0-13.52,2.37-13.55,5.4s6.48,5.84,14.55,5.84,14.1-2.67,13.51-5.84l-3.56-19.06H331.3l0,.19Z"/><polygon class="cls-4" points="386.85 686.3 407.18 741.81 283.27 741.81 386.85 686.3"/><polygon class="cls-5" points="197.37 714.68 55.5 714.68 65.14 699.43 207.02 699.43 197.37 714.68"/><polygon class="cls-2" points="258.68 689.95 146.63 689.95 154.25 677.9 266.3 677.9 258.68 689.95"/><polygon class="cls-17" points="241.19 747.44 81.49 752.4 87.71 735.02 247.42 730.06 241.19 747.44"/><polygon class="cls-4" points="428.38 590.62 419.47 641.84 434.5 663.03 530.81 581.95 428.38 590.62"/><rect class="cls-2" x="431.26" y="586.15" width="102.8" height="72.67" transform="translate(-50.77 42.91) rotate(-4.84)"/><path class="cls-17" d="M511.23,616.18a16,16,0,0,0-29.68-6.77,16,16,0,1,0-19.81,24.36h0l23,13.7,20.4-17.37h0A16,16,0,0,0,511.23,616.18Z"/><polygon class="cls-4" points="530.81 581.95 536.93 654.36 434.5 663.03 530.81 581.95"/><ellipse class="cls-4" cx="601.87" cy="743.64" rx="42.12" ry="13.08"/><path class="cls-33" d="M650.25,631A7.77,7.77,0,0,1,654.9,641h0a7.77,7.77,0,0,1-10,4.65L613.74,634.3a7.76,7.76,0,0,1-4.65-9.95h0c1.46-4-1-11.56,3.08-10.1Z"/><path class="cls-34" d="M684.7,630l-19.54,7.81a5.47,5.47,0,0,1-7.35-2.4h0a5.47,5.47,0,0,1,2.4-7.35l19.54-7.81Z"/><path class="cls-33" d="M680.42,633.87,652.66,645a7.76,7.76,0,0,1-10.44-3.41h0a7.76,7.76,0,0,1,3.41-10.43L673.39,620Z"/><circle class="cls-34" cx="688.72" cy="621.77" r="10.04" transform="translate(-140.48 1038.14) rotate(-68.74)"/><path class="cls-19" d="M581.13,700.79a7.77,7.77,0,0,0,7.3,8.2h0a7.76,7.76,0,0,0,8.2-7.3l1.93-33.14a7.76,7.76,0,0,0-7.3-8.2h0a7.76,7.76,0,0,0-8.2,7.3Z"/><path class="cls-15" d="M590.06,739.67l2.53-20.89a5.47,5.47,0,0,0-4.21-6.49h0a5.46,5.46,0,0,0-6.49,4.21l-2.53,20.89Z"/><path class="cls-19" d="M592.7,734.55l3.6-29.68a7.76,7.76,0,0,0-6-9.21h0a7.76,7.76,0,0,0-9.21,6l-3.6,29.68Z"/><path class="cls-35" d="M594.38,746.91c3.4.29,6.22-.23,6.51-3.63h0c.29-3.4-8.74-7-12.14-7.25l-6.07,0a6.18,6.18,0,0,0-6.68,5.62h0c-.29,3.4,2.4,4.4,5.79,4.69Z"/><path class="cls-36" d="M605.05,701.51a7.77,7.77,0,0,0,8.06,7.46h0a7.76,7.76,0,0,0,7.46-8.06l-1.27-33.18a7.76,7.76,0,0,0-8.06-7.46h0a7.76,7.76,0,0,0-7.46,8.05Z"/><path class="cls-15" d="M617.68,739.35l.51-21a5.47,5.47,0,0,0-4.81-6.05h0a5.47,5.47,0,0,0-6.05,4.81l-.51,21Z"/><path class="cls-36" d="M619.82,734l.72-29.89a7.76,7.76,0,0,0-6.83-8.59h0a7.76,7.76,0,0,0-8.6,6.83l-.72,29.89Z"/><path class="cls-35" d="M622.67,746.14c3.41,0,6.17-.83,6.13-4.24h0c0-3.41-9.37-6.08-12.78-6l-6,.54a6.17,6.17,0,0,0-6.11,6.24h0c0,3.41,2.81,4.15,6.22,4.11Z"/><path class="cls-37" d="M578.85,658.29c3.95,8,11.66,9.89,23.94,10.67h0c12.28.78,12-.34,19.54-7.86l-1.07-26.54c.78-12.28-1.95-21-17.26-22.16h0c-12.28-.78-22.06,1.13-22.84,13.41Z"/><path class="cls-15" d="M596.27,610.89a8.16,8.16,0,0,0,7.69,8.6h0a8.16,8.16,0,0,0,8.6-7.69l1-17.66a8.16,8.16,0,0,0-7.69-8.6h0a8.16,8.16,0,0,0-8.6,7.69Z"/><path class="cls-16" d="M584.37,579.15c2.89,18.58,8.61,29,25.65,32.93h0c17,3.94,27.16-7.3,31.1-24.34l4.15-17.92c3.94-17-9-24-26-28h0c-17-3.94-30.59,7.47-34.54,24.51Z"/><path class="cls-19" d="M599.68,543.59a32.53,32.53,0,0,1,1.94,20.57c-2.82,12.19-5.31,22.77-16.61,25.79a34.84,34.84,0,0,1-1.42-19.19l1.11-4.39C587.07,556.13,590.71,547.42,599.68,543.59Z"/><path class="cls-15" d="M596.1,568.62a6.66,6.66,0,0,1,2.37,1.07l-2.77,12a6.64,6.64,0,1,1,.39-13Z"/><circle class="cls-19" cx="637.46" cy="580.13" r="1.9" transform="translate(-71.59 1070.19) rotate(-76.95)"/><circle class="cls-19" cx="613.61" cy="574.61" r="1.9" transform="translate(-84.4 1043.1) rotate(-76.99)"/><path class="cls-21" d="M617.13,597.82a5.8,5.8,0,0,0,10.19,4.44"/><path class="cls-19" d="M595.65,581.87a3.16,3.16,0,0,0,2.36,3.79h0c1.7.39,2.29-1.51,2.68-3.21L603,555.17c.39-1.7-2.86,1.23-4.56.84l1.1,8.94c-1.7-.39-.56,2.44-1,4.14Z"/><path class="cls-19" d="M594.39,546.88a35.75,35.75,0,0,1,25.39-6.61c19.6,2.38,27.1,15,33.69,8.27,1,13.89-3.68,24-14.63,21.41C621.92,566,601.81,558.92,594.39,546.88Z"/><path class="cls-22" d="M623,592a2.77,2.77,0,0,0,2.08,3.33h0a2.78,2.78,0,0,0,3.33-2.08l2.39-10.32a2.78,2.78,0,0,0-2.08-3.33h0a2.77,2.77,0,0,0-3.33,2.08Z"/><path class="cls-19" d="M622.32,661.11c-.78,12.28-7.84,16.06-20.12,15.28s-24.13-5.81-23.36-18.09Z"/><polygon class="cls-38" points="667.46 673.98 647.12 653 729.81 653 750.16 673.98 667.46 673.98"/><polygon class="cls-3" points="718.95 697.18 674.6 705.82 646.95 578.64 691.29 570 718.95 697.18"/><polygon class="cls-4" points="671.3 690.64 674.6 705.82 716.32 697.69 716.6 686.38 695.02 587.13 673.92 586.84 671.3 690.64"/><polygon class="cls-5" points="713.81 722.93 668.86 718.36 683.46 589.26 728.41 593.82 713.81 722.93"/><polygon class="cls-4" points="682.05 704.26 715.27 709.99 728.41 593.82 703.79 591.32 682.05 704.26"/><polygon class="cls-2" points="733.62 713.31 689.1 705.63 713.68 577.89 758.2 585.57 733.62 713.31"/><polygon class="cls-4" points="696.44 667.46 689.1 705.63 733.62 713.31 742.44 667.46 696.44 667.46"/><rect class="cls-24" x="667.46" y="673.98" width="82.69" height="85.07"/><polygon class="cls-25" points="647.12 717.79 647.12 653 667.46 673.98 667.46 759.05 647.12 717.79"/><path class="cls-2" d="M610.17,649.92a7.77,7.77,0,0,0,11-.2h0a7.76,7.76,0,0,0-.2-11L597,615.7a7.76,7.76,0,0,0-11,.2h0c-3,3.09-4.79,9.18-1.7,12.15Z"/><path class="cls-15" d="M649,628.05l-19.8,7.12a5.46,5.46,0,0,0-3.91,6.67h0a5.46,5.46,0,0,0,6.67,3.91l19.8-7.12Z"/><path class="cls-2" d="M643.2,628,615.07,638.1a7.76,7.76,0,0,0-5.55,9.48h0a7.76,7.76,0,0,0,9.47,5.55L647.13,643Z"/><circle class="cls-16" cx="656.56" cy="630.87" r="10.04" transform="translate(-253.96 626.5) rotate(-43.58)"/></g></g></g></svg>